M48
;Layer_Color=9474304
;FILE_FORMAT=2:4
INCH,TZ
;TYPE=PLATED
T1F00S00C0.0157
T2F00S00C0.0197
T3F00S00C0.0236
T4F00S00C0.0315
T5F00S00C0.0394
;TYPE=NON_PLATED
T6F00S00C0.0591
T7F00S00C0.1181
%
T01
X37480Y11693
X37874Y11339
X37959Y12317
X37935Y13307
X37926Y13819
X32520Y12835
X32717Y12323
X32795Y11378
X30079
X29646
X30236Y12362
X30246Y13317
X30234Y13817
X24746Y12817
X24921Y12305
X25394Y11378
X22283Y11339
X21850
X22435Y12317
X22431Y13317
X22443Y13817
X16911Y12817
X17132Y12317
X17244Y11339
X14370Y11378
X13937Y11378
X14600Y12317
X14596Y13317
X14608Y13817
X9116Y12817
X9370Y12323
X10000Y11339
X6614Y11378
X6181
X6856Y12317
X6841Y13317
X6848Y13817
X12756Y7717
X2480Y11378
X1457Y12305
X1321Y12817
T02
X5315Y5512
X6890Y4528
Y3346
X8465Y394
X9843
X11811
X13780
X15748
X17717
X19685
X20039Y4803
X14882Y4764
X11535Y4252
X10236Y5315
X23228Y4331
X25394Y4921
X25787Y1969
X22244
X32087Y3346
X30512Y5315
X36929Y2087
X38543Y14094
X36457Y14173
X36063Y14567
X36457Y14961
X35669
Y15748
X35276Y15354
X34882Y15748
Y14961
X35276Y14567
X34882Y14173
X34094
X34488Y14567
X34094Y14961
X34488Y15354
X34094Y15748
X34488Y16142
X34094Y16535
X34488Y16929
X34882Y16535
X35276Y16142
X36063
Y15354
X35669Y16535
X35276Y16929
X36063
X35669Y14173
Y13386
X35276Y13780
X34882Y13386
X34488Y13780
X34094Y13386
X34488Y12992
X35276
X36063
Y13780
X36457Y13386
X35541Y11388
X35030
X35039Y8268
X29331Y8504
X29291Y7283
X27874Y8031
X26378
X24744Y7874
X24213Y8031
X22480Y7717
X24685Y11339
X26299Y12598
X26693Y12992
Y13780
X26299Y13386
Y14173
X27087
X27480Y14567
X27087Y14961
X26299
X26693Y14567
Y15354
X26299Y15748
X27087
X27480Y15354
X27874Y15748
Y14961
X28661
X28268Y15354
X28661Y15748
X28268Y16142
X28661Y16535
X27874
X27087
X26299
X26693Y16142
Y16929
X27480
Y16142
X28268Y16929
Y14567
X28661Y14173
X27874
Y13386
X27480Y13780
X27087Y13386
X27480Y12992
X28268
Y13780
X28661Y13386
Y12598
X27874
X27087
X27362Y5906
X20472
X20157Y7756
X19685
X16968Y7717
X15591Y7756
X13858
X11791Y8012
X10291Y8016
X9449Y6693
X7874
X6102
X6142Y7913
X8681Y8720
X9173Y11339
X10709Y12598
X11102Y12992
Y13780
X10709Y13386
Y14173
X11496
X11890Y14567
X11496Y14961
X10709
X11102Y14567
Y15354
X10709Y15748
X11496
X11890Y15354
X12283Y15748
Y14961
X13071
X12677Y15354
X13071Y15748
X12677Y16142
X13071Y16535
X12283
X11496
X10709
X11102Y16142
Y16929
X11890
Y16142
X12677Y16929
Y14567
X13071Y14173
X12283
Y13386
X11890Y13780
X11496Y13386
X11890Y12992
X12677
Y13780
X13071Y13386
Y12598
X12283
X11496
X18504
X18898Y12992
Y13780
X18504Y13386
Y14173
X19291
X19685Y14567
X19291Y14961
X18504
X18898Y14567
Y15354
X18504Y15748
X19291
X19685Y15354
X20079Y15748
Y14961
X20866
X20472Y15354
X20866Y15748
X20472Y16142
X20866Y16535
X20079
X19291
X18504
X18898Y16142
Y16929
X19685
Y16142
X20472Y16929
Y14567
X20866Y14173
X20079
Y13386
X19685Y13780
X19291Y13386
X19685Y12992
X20472
Y13780
X20866Y13386
Y12598
X20079
X19291
X5276
X4488
X3701
X2913
X3307Y12992
X2913Y13386
X3307Y13780
X3701Y13386
X4094Y13780
Y12992
X4882
X5276Y13386
X4882Y13780
X4488Y13386
Y14173
X5276
X4882Y14567
X5276Y14961
Y15748
X4882Y15354
Y16142
X5276Y16535
X4882Y16929
X4488Y16535
X4094Y16929
Y16142
Y15354
X3701Y15748
X2913
X3307Y15354
Y16142
X2913Y16535
X3701
X3307Y16929
X2913Y14961
X3307Y14567
X4094
X3701Y14961
Y14173
X2913
X4488Y14961
Y15748
X1772Y11378
X1516Y8720
X3150Y8268
X2362Y7480
X3740Y7087
Y6102
X1969
X394
X4685Y7756
T03
X394Y1772
Y2559
Y3150
Y3937
X984Y3543
X1575Y3150
Y2559
Y1772
X984Y2165
X1575Y3937
X6890Y1575
X7677
X7283Y984
X7677Y394
X6890
X19331Y4685
X21063Y5118
X23858Y13858
Y14331
X24409
Y13858
X24961
X24961Y14331
X31772
Y13858
X32323
Y14331
X32874
Y13858
X33937Y5938
X18583Y6654
X17165Y13858
X17165Y14331
X16614
Y13858
X16063
Y14331
X9409Y14331
X9409Y13858
X8858
Y14331
X8307
Y13858
X7480Y7874
X394
X512Y13858
Y14331
X1063
Y13858
X1614
Y14331
T04
X5512Y2362
X7480Y2362
X9287Y2811
X10287
X9787Y1811
X10787
X13173
X14173
X13673Y2811
X12673
X16059
X17059
X16559Y1811
X17559
X19945Y1811
X20945
X20445Y2811
X19445
X22831Y2811
X23831
X23331Y1811
X24331
X26717Y1811
X27717
X27217Y2811
X26217
X29602
X30602
X30102Y1811
X31102
X37701Y2776
Y3776
Y4776
X38701Y5276
Y4276
Y3276
X35945Y9370
T05
X21937Y661
X22937
X23937
X24937
X25937
X26937
X27937
X28937
X29937
X30937
X31937
X32937
X33937
X34937
X35937
Y6661
X34937
X33937
X32937
X31937
X30937
X29937
X28937
X27937
X26937
X25937
X24937
X23937
X22937
X21937
T06
X11339Y2520
X14724
X18110
X21496Y2520
X24882Y2520
X28268Y2520
X31654
X37992Y5827
T07
X8661Y4724
X27559
X38189Y7677
X1181Y6890
M30
