G04 Layer_Color=32896*
%FSLAX24Y24*%
%MOIN*%
G70*
G01*
G75*
%ADD34C,0.0197*%
%ADD36C,0.0118*%
%ADD52C,0.0050*%
D34*
X32726Y11732D02*
G03*
X32726Y11732I-88J0D01*
G01*
X24931D02*
G03*
X24931Y11732I-88J0D01*
G01*
X17135D02*
G03*
X17135Y11732I-88J0D01*
G01*
X9340D02*
G03*
X9340Y11732I-88J0D01*
G01*
X1545D02*
G03*
X1545Y11732I-88J0D01*
G01*
D36*
X36614Y10039D02*
X37139D01*
X36877Y10302D02*
Y9777D01*
X3583Y19291D02*
Y18662D01*
X3793Y18872D01*
X4002Y18662D01*
Y19291D01*
X4632Y18662D02*
X4212D01*
Y18976D01*
X4422Y18872D01*
X4527D01*
X4632Y18976D01*
Y19186D01*
X4527Y19291D01*
X4317D01*
X4212Y19186D01*
X11378Y19291D02*
Y18662D01*
X11588Y18872D01*
X11798Y18662D01*
Y19291D01*
X12323D02*
Y18662D01*
X12008Y18976D01*
X12427D01*
X19173Y19291D02*
Y18662D01*
X19383Y18872D01*
X19593Y18662D01*
Y19291D01*
X19803Y18767D02*
X19908Y18662D01*
X20118D01*
X20223Y18767D01*
Y18872D01*
X20118Y18976D01*
X20013D01*
X20118D01*
X20223Y19081D01*
Y19186D01*
X20118Y19291D01*
X19908D01*
X19803Y19186D01*
X26969Y19291D02*
Y18662D01*
X27178Y18872D01*
X27388Y18662D01*
Y19291D01*
X28018D02*
X27598D01*
X28018Y18872D01*
Y18767D01*
X27913Y18662D01*
X27703D01*
X27598Y18767D01*
X34764Y19291D02*
Y18662D01*
X34974Y18872D01*
X35184Y18662D01*
Y19291D01*
X35394D02*
X35603D01*
X35498D01*
Y18662D01*
X35394Y18767D01*
X9291Y3386D02*
Y4016D01*
X9606D01*
X9711Y3911D01*
Y3806D01*
X9606Y3701D01*
X9291D01*
X9606D01*
X9711Y3596D01*
Y3491D01*
X9606Y3386D01*
X9291D01*
X9921D02*
X10341D01*
X10131D01*
Y4016D01*
X10551D02*
Y3386D01*
X10971Y4016D01*
Y3386D01*
X12402D02*
Y4016D01*
X12716D01*
X12821Y3911D01*
Y3806D01*
X12716Y3701D01*
X12402D01*
X12716D01*
X12821Y3596D01*
Y3491D01*
X12716Y3386D01*
X12402D01*
X13031Y4016D02*
Y3596D01*
X13241Y3386D01*
X13451Y3596D01*
Y4016D01*
Y3701D01*
X13031D01*
X13661Y3386D02*
Y4016D01*
X14081D01*
X14291Y3386D02*
Y4016D01*
X14711D01*
X16207Y3386D02*
X15787D01*
Y4016D01*
X16207D01*
X15787Y3701D02*
X15997D01*
X16417Y4016D02*
Y3386D01*
X16837Y4016D01*
Y3386D01*
X17467Y3491D02*
X17362Y3386D01*
X17152D01*
X17047Y3491D01*
Y3911D01*
X17152Y4016D01*
X17362D01*
X17467Y3911D01*
X18096Y3386D02*
X17677D01*
Y3701D01*
X17886Y3596D01*
X17991D01*
X18096Y3701D01*
Y3911D01*
X17991Y4016D01*
X17782D01*
X17677Y3911D01*
X19593Y3386D02*
X19173D01*
Y4016D01*
X19593D01*
X19173Y3701D02*
X19383D01*
X19803Y4016D02*
Y3386D01*
X20223Y4016D01*
Y3386D01*
X20852Y3491D02*
X20748Y3386D01*
X20538D01*
X20433Y3491D01*
Y3911D01*
X20538Y4016D01*
X20748D01*
X20852Y3911D01*
X21377Y4016D02*
Y3386D01*
X21062Y3701D01*
X21482D01*
X23018Y3386D02*
X22598D01*
Y4016D01*
X23018D01*
X22598Y3701D02*
X22808D01*
X23228Y4016D02*
Y3386D01*
X23648Y4016D01*
Y3386D01*
X24278Y3491D02*
X24173Y3386D01*
X23963D01*
X23858Y3491D01*
Y3911D01*
X23963Y4016D01*
X24173D01*
X24278Y3911D01*
X24488Y3491D02*
X24593Y3386D01*
X24802D01*
X24907Y3491D01*
Y3596D01*
X24802Y3701D01*
X24697D01*
X24802D01*
X24907Y3806D01*
Y3911D01*
X24802Y4016D01*
X24593D01*
X24488Y3911D01*
X26404Y3386D02*
X25984D01*
Y4016D01*
X26404D01*
X25984Y3701D02*
X26194D01*
X26614Y4016D02*
Y3386D01*
X27034Y4016D01*
Y3386D01*
X27664Y3491D02*
X27559Y3386D01*
X27349D01*
X27244Y3491D01*
Y3911D01*
X27349Y4016D01*
X27559D01*
X27664Y3911D01*
X28293Y4016D02*
X27873D01*
X28293Y3596D01*
Y3491D01*
X28188Y3386D01*
X27978D01*
X27873Y3491D01*
X29790Y3386D02*
X29370D01*
Y4016D01*
X29790D01*
X29370Y3701D02*
X29580D01*
X30000Y4016D02*
Y3386D01*
X30420Y4016D01*
Y3386D01*
X31049Y3491D02*
X30944Y3386D01*
X30734D01*
X30630Y3491D01*
Y3911D01*
X30734Y4016D01*
X30944D01*
X31049Y3911D01*
X31259Y4016D02*
X31469D01*
X31364D01*
Y3386D01*
X31259Y3491D01*
D52*
X22084Y5412D02*
Y5532D01*
X22404Y5412D02*
Y5532D01*
X21466Y5402D02*
X21841D01*
X21466Y5542D02*
X21841D01*
X35549Y5491D02*
Y5611D01*
X35869Y5491D02*
Y5611D01*
X34958Y5491D02*
Y5611D01*
X35278Y5491D02*
Y5611D01*
X31612Y5412D02*
Y5532D01*
X31932Y5412D02*
Y5532D01*
X31021Y5412D02*
Y5532D01*
X31341Y5412D02*
Y5532D01*
X24368Y5412D02*
Y5532D01*
X24688Y5412D02*
Y5532D01*
X23777Y5412D02*
Y5532D01*
X24097Y5412D02*
Y5532D01*
X23186Y5412D02*
Y5532D01*
X23506Y5412D02*
Y5532D01*
X29564Y5412D02*
Y5532D01*
X29884Y5412D02*
Y5532D01*
X28974Y5412D02*
Y5532D01*
X29294Y5412D02*
Y5532D01*
M02*
