G04 Layer_Color=16711935*
%FSLAX24Y24*%
%MOIN*%
G70*
G01*
G75*
G04:AMPARAMS|DCode=54|XSize=47.4mil|YSize=43.4mil|CornerRadius=8.4mil|HoleSize=0mil|Usage=FLASHONLY|Rotation=0.000|XOffset=0mil|YOffset=0mil|HoleType=Round|Shape=RoundedRectangle|*
%AMROUNDEDRECTD54*
21,1,0.0474,0.0266,0,0,0.0*
21,1,0.0305,0.0434,0,0,0.0*
1,1,0.0169,0.0153,-0.0133*
1,1,0.0169,-0.0153,-0.0133*
1,1,0.0169,-0.0153,0.0133*
1,1,0.0169,0.0153,0.0133*
%
%ADD54ROUNDEDRECTD54*%
%ADD60R,0.1655X0.1261*%
%ADD63R,0.1655X0.1891*%
%ADD77C,0.0710*%
%ADD78C,0.0080*%
%ADD79C,0.0080*%
%ADD80C,0.0592*%
%ADD81R,0.0612X0.0612*%
%ADD82C,0.0612*%
%ADD83C,0.0434*%
%ADD84C,0.0474*%
%ADD85C,0.0395*%
%ADD86C,0.0356*%
%ADD87C,0.0631*%
%ADD88R,0.0631X0.0356*%
G36*
X12480Y17953D02*
X12486Y17953D01*
X12491Y17952D01*
X12496Y17950D01*
X12500Y17948D01*
X12505Y17945D01*
X12509Y17942D01*
X12512Y17938D01*
X12515Y17933D01*
X12517Y17929D01*
X12519Y17924D01*
X12520Y17919D01*
X12520Y17913D01*
X12520Y17166D01*
X13425Y17166D01*
X13430Y17166D01*
X13436Y17165D01*
X13441Y17163D01*
X13445Y17161D01*
X13450Y17158D01*
X13454Y17154D01*
X13457Y17150D01*
X13460Y17146D01*
X13462Y17141D01*
X13464Y17136D01*
X13465Y17131D01*
X13465Y17126D01*
X13465Y12008D01*
X13465Y12003D01*
X13464Y11997D01*
X13462Y11993D01*
X13460Y11988D01*
X13457Y11983D01*
X13454Y11980D01*
X13450Y11976D01*
X13445Y11973D01*
X13441Y11971D01*
X13436Y11969D01*
X13430Y11968D01*
X13425Y11968D01*
X12520Y11968D01*
X12520Y11220D01*
X12520Y11215D01*
X12519Y11210D01*
X12517Y11205D01*
X12515Y11200D01*
X12512Y11196D01*
X12509Y11192D01*
X12505Y11189D01*
X12500Y11186D01*
X12496Y11183D01*
X12491Y11182D01*
X12486Y11181D01*
X12480Y11180D01*
X11299Y11180D01*
X11294Y11181D01*
X11289Y11182D01*
X11284Y11183D01*
X11279Y11186D01*
X11275Y11189D01*
X11271Y11192D01*
X11267Y11196D01*
X11264Y11200D01*
X11262Y11205D01*
X11260Y11210D01*
X11259Y11215D01*
X11259Y11220D01*
X11259Y11968D01*
X10354Y11968D01*
X10349Y11968D01*
X10344Y11969D01*
X10339Y11971D01*
X10334Y11973D01*
X10330Y11976D01*
X10326Y11980D01*
X10323Y11983D01*
X10320Y11988D01*
X10317Y11993D01*
X10316Y11997D01*
X10315Y12003D01*
X10314Y12008D01*
X10314Y17126D01*
X10315Y17131D01*
X10316Y17136D01*
X10317Y17141D01*
X10320Y17146D01*
X10323Y17150D01*
X10326Y17154D01*
X10330Y17158D01*
X10334Y17161D01*
X10339Y17163D01*
X10344Y17165D01*
X10349Y17166D01*
X10354Y17166D01*
X11259Y17166D01*
X11259Y17913D01*
X11259Y17919D01*
X11261Y17924D01*
X11262Y17929D01*
X11265Y17933D01*
X11267Y17938D01*
X11271Y17942D01*
X11275Y17945D01*
X11279Y17948D01*
X11284Y17950D01*
X11289Y17952D01*
X11294Y17953D01*
X11299Y17953D01*
X12480Y17953D01*
D02*
G37*
G36*
X4685D02*
X4690Y17953D01*
X4695Y17952D01*
X4700Y17950D01*
X4705Y17948D01*
X4709Y17945D01*
X4713Y17942D01*
X4717Y17938D01*
X4720Y17933D01*
X4722Y17929D01*
X4724Y17924D01*
X4725Y17919D01*
X4725Y17913D01*
X4725Y17166D01*
X5630Y17166D01*
X5635Y17166D01*
X5640Y17165D01*
X5645Y17163D01*
X5650Y17161D01*
X5654Y17158D01*
X5658Y17154D01*
X5662Y17150D01*
X5665Y17146D01*
X5667Y17141D01*
X5669Y17136D01*
X5670Y17131D01*
X5670Y17126D01*
X5670Y12008D01*
X5670Y12003D01*
X5669Y11997D01*
X5667Y11993D01*
X5665Y11988D01*
X5662Y11983D01*
X5658Y11980D01*
X5654Y11976D01*
X5650Y11973D01*
X5645Y11971D01*
X5640Y11969D01*
X5635Y11968D01*
X5630Y11968D01*
X4725Y11968D01*
X4725Y11220D01*
X4725Y11215D01*
X4724Y11210D01*
X4722Y11205D01*
X4720Y11200D01*
X4717Y11196D01*
X4713Y11192D01*
X4709Y11189D01*
X4705Y11186D01*
X4700Y11183D01*
X4695Y11182D01*
X4690Y11181D01*
X4685Y11180D01*
X3504Y11180D01*
X3499Y11181D01*
X3494Y11182D01*
X3489Y11183D01*
X3484Y11186D01*
X3480Y11189D01*
X3476Y11192D01*
X3472Y11196D01*
X3469Y11200D01*
X3467Y11205D01*
X3465Y11210D01*
X3464Y11215D01*
X3464Y11220D01*
X3464Y11968D01*
X2559Y11968D01*
X2554Y11968D01*
X2549Y11969D01*
X2544Y11971D01*
X2539Y11973D01*
X2535Y11976D01*
X2531Y11980D01*
X2527Y11983D01*
X2524Y11988D01*
X2522Y11993D01*
X2520Y11997D01*
X2519Y12003D01*
X2519Y12008D01*
X2519Y17126D01*
X2519Y17131D01*
X2520Y17136D01*
X2522Y17141D01*
X2524Y17146D01*
X2527Y17150D01*
X2531Y17154D01*
X2535Y17158D01*
X2539Y17161D01*
X2544Y17163D01*
X2549Y17165D01*
X2554Y17166D01*
X2559Y17166D01*
X3464Y17166D01*
X3464Y17913D01*
X3464Y17919D01*
X3465Y17924D01*
X3467Y17929D01*
X3469Y17933D01*
X3472Y17938D01*
X3476Y17942D01*
X3480Y17945D01*
X3484Y17948D01*
X3489Y17950D01*
X3494Y17952D01*
X3499Y17953D01*
X3504Y17953D01*
X4685Y17953D01*
D02*
G37*
G36*
X20276D02*
X20281Y17953D01*
X20286Y17952D01*
X20291Y17950D01*
X20296Y17948D01*
X20300Y17945D01*
X20304Y17942D01*
X20307Y17938D01*
X20310Y17933D01*
X20313Y17929D01*
X20314Y17924D01*
X20315Y17919D01*
X20316Y17913D01*
X20316Y17166D01*
X21220Y17166D01*
X21226Y17166D01*
X21231Y17165D01*
X21236Y17163D01*
X21241Y17161D01*
X21245Y17158D01*
X21249Y17154D01*
X21252Y17150D01*
X21255Y17146D01*
X21258Y17141D01*
X21259Y17136D01*
X21260Y17131D01*
X21261Y17126D01*
X21261Y12008D01*
X21260Y12003D01*
X21259Y11997D01*
X21258Y11993D01*
X21255Y11988D01*
X21252Y11983D01*
X21249Y11980D01*
X21245Y11976D01*
X21241Y11973D01*
X21236Y11971D01*
X21231Y11969D01*
X21226Y11968D01*
X21220Y11968D01*
X20316Y11968D01*
X20316Y11220D01*
X20315Y11215D01*
X20314Y11210D01*
X20313Y11205D01*
X20310Y11200D01*
X20307Y11196D01*
X20304Y11192D01*
X20300Y11189D01*
X20296Y11186D01*
X20291Y11183D01*
X20286Y11182D01*
X20281Y11181D01*
X20276Y11180D01*
X19094Y11180D01*
X19089Y11181D01*
X19084Y11182D01*
X19079Y11183D01*
X19074Y11186D01*
X19070Y11189D01*
X19066Y11192D01*
X19063Y11196D01*
X19060Y11200D01*
X19057Y11205D01*
X19056Y11210D01*
X19055Y11215D01*
X19054Y11220D01*
X19054Y11968D01*
X18150Y11968D01*
X18144Y11968D01*
X18139Y11969D01*
X18134Y11971D01*
X18130Y11973D01*
X18125Y11976D01*
X18121Y11980D01*
X18118Y11983D01*
X18115Y11988D01*
X18113Y11993D01*
X18111Y11997D01*
X18110Y12003D01*
X18110Y12008D01*
X18110Y17126D01*
X18110Y17131D01*
X18111Y17136D01*
X18113Y17141D01*
X18115Y17146D01*
X18118Y17150D01*
X18121Y17154D01*
X18125Y17158D01*
X18130Y17161D01*
X18134Y17163D01*
X18139Y17165D01*
X18144Y17166D01*
X18150Y17166D01*
X19054Y17166D01*
X19054Y17913D01*
X19055Y17919D01*
X19056Y17924D01*
X19057Y17929D01*
X19060Y17933D01*
X19063Y17938D01*
X19066Y17942D01*
X19070Y17945D01*
X19074Y17948D01*
X19079Y17950D01*
X19084Y17952D01*
X19089Y17953D01*
X19095Y17953D01*
X20276Y17953D01*
D02*
G37*
G36*
X35866D02*
X35871Y17953D01*
X35877Y17952D01*
X35882Y17950D01*
X35886Y17948D01*
X35891Y17945D01*
X35895Y17942D01*
X35898Y17938D01*
X35901Y17933D01*
X35903Y17929D01*
X35905Y17924D01*
X35906Y17919D01*
X35906Y17913D01*
X35906Y17166D01*
X36811Y17166D01*
X36816Y17166D01*
X36821Y17165D01*
X36826Y17163D01*
X36831Y17161D01*
X36835Y17158D01*
X36839Y17154D01*
X36843Y17150D01*
X36846Y17146D01*
X36848Y17141D01*
X36850Y17136D01*
X36851Y17131D01*
X36851Y17126D01*
X36851Y12008D01*
X36851Y12003D01*
X36850Y11997D01*
X36848Y11993D01*
X36846Y11988D01*
X36843Y11983D01*
X36839Y11980D01*
X36835Y11976D01*
X36831Y11973D01*
X36826Y11971D01*
X36821Y11969D01*
X36816Y11968D01*
X36811Y11968D01*
X35906Y11968D01*
X35906Y11220D01*
X35906Y11215D01*
X35905Y11210D01*
X35903Y11205D01*
X35901Y11200D01*
X35898Y11196D01*
X35894Y11192D01*
X35891Y11189D01*
X35886Y11186D01*
X35881Y11183D01*
X35877Y11182D01*
X35871Y11181D01*
X35866Y11180D01*
X34685Y11180D01*
X34680Y11181D01*
X34675Y11182D01*
X34670Y11183D01*
X34665Y11186D01*
X34661Y11189D01*
X34657Y11192D01*
X34653Y11196D01*
X34650Y11200D01*
X34648Y11205D01*
X34646Y11210D01*
X34645Y11215D01*
X34645Y11220D01*
X34645Y11968D01*
X33740Y11968D01*
X33735Y11968D01*
X33730Y11969D01*
X33725Y11971D01*
X33720Y11973D01*
X33716Y11976D01*
X33712Y11980D01*
X33708Y11983D01*
X33705Y11988D01*
X33703Y11993D01*
X33701Y11997D01*
X33700Y12003D01*
X33700Y12008D01*
X33700Y17126D01*
X33700Y17131D01*
X33701Y17136D01*
X33703Y17141D01*
X33705Y17146D01*
X33708Y17150D01*
X33712Y17154D01*
X33716Y17158D01*
X33720Y17161D01*
X33725Y17163D01*
X33730Y17165D01*
X33735Y17166D01*
X33740Y17166D01*
X34645Y17166D01*
X34645Y17913D01*
X34645Y17919D01*
X34646Y17924D01*
X34648Y17929D01*
X34650Y17933D01*
X34653Y17938D01*
X34657Y17942D01*
X34661Y17945D01*
X34665Y17948D01*
X34670Y17950D01*
X34675Y17952D01*
X34680Y17953D01*
X34685Y17953D01*
X35866Y17953D01*
D02*
G37*
G36*
X28071D02*
X28076Y17953D01*
X28081Y17952D01*
X28086Y17950D01*
X28091Y17948D01*
X28095Y17945D01*
X28099Y17942D01*
X28103Y17938D01*
X28106Y17933D01*
X28108Y17929D01*
X28110Y17924D01*
X28111Y17919D01*
X28111Y17913D01*
X28111Y17166D01*
X29016Y17166D01*
X29021Y17166D01*
X29026Y17165D01*
X29031Y17163D01*
X29036Y17161D01*
X29040Y17158D01*
X29044Y17154D01*
X29048Y17150D01*
X29050Y17146D01*
X29053Y17141D01*
X29054Y17136D01*
X29055Y17131D01*
X29056Y17126D01*
X29056Y12008D01*
X29055Y12003D01*
X29054Y11997D01*
X29053Y11993D01*
X29050Y11988D01*
X29048Y11983D01*
X29044Y11980D01*
X29040Y11976D01*
X29036Y11973D01*
X29031Y11971D01*
X29026Y11969D01*
X29021Y11968D01*
X29016Y11968D01*
X28111Y11968D01*
X28111Y11220D01*
X28111Y11215D01*
X28110Y11210D01*
X28108Y11205D01*
X28106Y11200D01*
X28103Y11196D01*
X28099Y11192D01*
X28095Y11189D01*
X28091Y11186D01*
X28086Y11183D01*
X28081Y11182D01*
X28076Y11181D01*
X28071Y11180D01*
X26890Y11180D01*
X26885Y11181D01*
X26879Y11182D01*
X26874Y11183D01*
X26870Y11186D01*
X26865Y11189D01*
X26861Y11192D01*
X26858Y11196D01*
X26855Y11200D01*
X26853Y11205D01*
X26851Y11210D01*
X26850Y11215D01*
X26850Y11220D01*
X26850Y11968D01*
X25945Y11968D01*
X25940Y11968D01*
X25935Y11969D01*
X25930Y11971D01*
X25925Y11973D01*
X25920Y11976D01*
X25917Y11980D01*
X25913Y11983D01*
X25910Y11988D01*
X25908Y11993D01*
X25906Y11997D01*
X25905Y12003D01*
X25905Y12008D01*
X25905Y17126D01*
X25905Y17131D01*
X25906Y17136D01*
X25908Y17141D01*
X25910Y17146D01*
X25913Y17150D01*
X25917Y17154D01*
X25920Y17158D01*
X25925Y17161D01*
X25930Y17163D01*
X25935Y17165D01*
X25940Y17166D01*
X25945Y17166D01*
X26850Y17166D01*
X26850Y17913D01*
X26850Y17919D01*
X26851Y17924D01*
X26853Y17929D01*
X26855Y17933D01*
X26858Y17938D01*
X26861Y17942D01*
X26865Y17945D01*
X26870Y17948D01*
X26874Y17950D01*
X26879Y17952D01*
X26885Y17953D01*
X26890Y17953D01*
X28071Y17953D01*
D02*
G37*
D54*
X22244Y5807D02*
D03*
Y5138D02*
D03*
X21654Y5807D02*
D03*
Y5138D02*
D03*
X35709Y5886D02*
D03*
Y5217D02*
D03*
X35118Y5886D02*
D03*
Y5217D02*
D03*
X31772Y5807D02*
D03*
Y5138D02*
D03*
X31181Y5807D02*
D03*
Y5138D02*
D03*
X24528Y5807D02*
D03*
Y5138D02*
D03*
X23937Y5807D02*
D03*
Y5138D02*
D03*
X23346Y5807D02*
D03*
Y5138D02*
D03*
X29724Y5807D02*
D03*
Y5138D02*
D03*
X29134Y5807D02*
D03*
Y5138D02*
D03*
D60*
X33701Y18898D02*
D03*
X36850D02*
D03*
X25906D02*
D03*
X29055D02*
D03*
X18110D02*
D03*
X21260D02*
D03*
X10315D02*
D03*
X13465D02*
D03*
X2520D02*
D03*
X5669D02*
D03*
D63*
X38386Y9921D02*
D03*
D77*
X35937Y661D02*
D03*
X34937D02*
D03*
X33937D02*
D03*
X32937D02*
D03*
X31937D02*
D03*
X30937D02*
D03*
X29937D02*
D03*
X28937D02*
D03*
X27937D02*
D03*
X26937D02*
D03*
X25937D02*
D03*
X24937D02*
D03*
X23937D02*
D03*
X22937D02*
D03*
X21937D02*
D03*
Y6661D02*
D03*
X22937D02*
D03*
X23937D02*
D03*
X24937D02*
D03*
X25937D02*
D03*
X26937D02*
D03*
X27937D02*
D03*
X28937D02*
D03*
X29937D02*
D03*
X30937D02*
D03*
X31937D02*
D03*
X32937D02*
D03*
X33937D02*
D03*
X34937D02*
D03*
X35937D02*
D03*
D78*
X8661Y4724D02*
D03*
X27559D02*
D03*
X38189Y7677D02*
D03*
X1181Y6890D02*
D03*
D79*
X11339Y2520D02*
D03*
X14724D02*
D03*
X18110D02*
D03*
X24882D02*
D03*
X37992Y5827D02*
D03*
X28268Y2520D02*
D03*
X31654D02*
D03*
X21496D02*
D03*
D80*
X9287Y2811D02*
D03*
X9787Y1811D02*
D03*
X10287Y2811D02*
D03*
X10787Y1811D02*
D03*
X12673Y2811D02*
D03*
X13173Y1811D02*
D03*
X13673Y2811D02*
D03*
X14173Y1811D02*
D03*
X16059Y2811D02*
D03*
X16559Y1811D02*
D03*
X17059Y2811D02*
D03*
X17559Y1811D02*
D03*
X22831Y2811D02*
D03*
X23331Y1811D02*
D03*
X23831Y2811D02*
D03*
X24331Y1811D02*
D03*
X38701Y5276D02*
D03*
X37701Y4776D02*
D03*
X38701Y4276D02*
D03*
X37701Y3776D02*
D03*
X38701Y3276D02*
D03*
X37701Y2776D02*
D03*
X26217Y2811D02*
D03*
X26717Y1811D02*
D03*
X27217Y2811D02*
D03*
X27717Y1811D02*
D03*
X29602Y2811D02*
D03*
X30102Y1811D02*
D03*
X30602Y2811D02*
D03*
X31102Y1811D02*
D03*
X19445Y2811D02*
D03*
X19945Y1811D02*
D03*
X20445Y2811D02*
D03*
X20945Y1811D02*
D03*
D81*
X5512Y2362D02*
D03*
D82*
X7480Y2362D02*
D03*
D83*
X29331Y8504D02*
D03*
X29291Y7283D02*
D03*
X6142Y7913D02*
D03*
X4685Y7756D02*
D03*
X36929Y2087D02*
D03*
X15591Y7756D02*
D03*
X13858D02*
D03*
X20472Y5906D02*
D03*
X35039Y8268D02*
D03*
X32087Y3346D02*
D03*
X25787Y1969D02*
D03*
X25394Y4921D02*
D03*
X27362Y5906D02*
D03*
X23228Y4331D02*
D03*
X22244Y1969D02*
D03*
X19685Y394D02*
D03*
X17717D02*
D03*
X15748D02*
D03*
X10236Y5315D02*
D03*
X9449Y6693D02*
D03*
X7874D02*
D03*
X6102D02*
D03*
X3740Y7087D02*
D03*
X13780Y394D02*
D03*
X11811D02*
D03*
X9843D02*
D03*
X8465D02*
D03*
X6890Y3346D02*
D03*
Y4528D02*
D03*
X5315Y5512D02*
D03*
X3740Y6102D02*
D03*
X1969D02*
D03*
X2362Y7480D02*
D03*
X394Y6102D02*
D03*
X24744Y7874D02*
D03*
X20039Y4803D02*
D03*
X11535Y4252D02*
D03*
X14882Y4764D02*
D03*
X3150Y8268D02*
D03*
X8681Y8720D02*
D03*
X1516D02*
D03*
X38543Y14094D02*
D03*
X11791Y8012D02*
D03*
X10291Y8016D02*
D03*
X26378Y8031D02*
D03*
X27874D02*
D03*
X35030Y11388D02*
D03*
X35541D02*
D03*
X24685Y11339D02*
D03*
X9173Y11339D02*
D03*
X1772Y11378D02*
D03*
X30512Y5315D02*
D03*
D84*
X24961Y14331D02*
D03*
X24409D02*
D03*
X32323D02*
D03*
X32874D02*
D03*
X32323Y13858D02*
D03*
X31772Y14331D02*
D03*
Y13858D02*
D03*
X32874D02*
D03*
X24409D02*
D03*
X24961D02*
D03*
X23858D02*
D03*
Y14331D02*
D03*
X16614Y13858D02*
D03*
X16063Y14331D02*
D03*
Y13858D02*
D03*
X17165D02*
D03*
X8858D02*
D03*
X9409D02*
D03*
X8307Y14331D02*
D03*
Y13858D02*
D03*
X512Y14331D02*
D03*
Y13858D02*
D03*
X1063D02*
D03*
X1614D02*
D03*
X1063Y14331D02*
D03*
X1614D02*
D03*
X1575Y2559D02*
D03*
X18583Y6654D02*
D03*
X19331Y4685D02*
D03*
X21063Y5118D02*
D03*
X394Y7874D02*
D03*
X7480D02*
D03*
X33937Y5938D02*
D03*
X394Y3937D02*
D03*
Y3150D02*
D03*
X1575D02*
D03*
Y3937D02*
D03*
X984Y3543D02*
D03*
X394Y2559D02*
D03*
Y1772D02*
D03*
X1575D02*
D03*
X984Y2165D02*
D03*
X7677Y394D02*
D03*
X6890D02*
D03*
Y1575D02*
D03*
X7677D02*
D03*
X7283Y984D02*
D03*
X16614Y14331D02*
D03*
X17165D02*
D03*
X8858Y14331D02*
D03*
X9409Y14331D02*
D03*
D85*
X6848Y13817D02*
D03*
X24213Y8031D02*
D03*
X36063Y16142D02*
D03*
X5276Y14961D02*
D03*
X4488Y12598D02*
D03*
X35276Y14567D02*
D03*
X35669Y14961D02*
D03*
X35276Y15354D02*
D03*
X36063D02*
D03*
Y14567D02*
D03*
X36457Y14961D02*
D03*
X35669Y14173D02*
D03*
X34882D02*
D03*
Y14961D02*
D03*
X34488Y14567D02*
D03*
Y15354D02*
D03*
X34094Y14961D02*
D03*
Y14173D02*
D03*
X34488Y13780D02*
D03*
X35276D02*
D03*
X36063D02*
D03*
X36457Y14173D02*
D03*
X35669Y15748D02*
D03*
X34882D02*
D03*
X34094D02*
D03*
Y16535D02*
D03*
X34488Y16142D02*
D03*
Y16929D02*
D03*
X34882Y16535D02*
D03*
X35276Y16142D02*
D03*
Y16929D02*
D03*
X35669Y16535D02*
D03*
X36063Y16929D02*
D03*
X34094Y13386D02*
D03*
X34882D02*
D03*
X35669D02*
D03*
X36457D02*
D03*
X36063Y12992D02*
D03*
X35276D02*
D03*
X34488D02*
D03*
X27480Y14567D02*
D03*
X27874Y14961D02*
D03*
X27480Y15354D02*
D03*
X28268D02*
D03*
Y14567D02*
D03*
X28661Y14961D02*
D03*
X27874Y14173D02*
D03*
X27087D02*
D03*
Y14961D02*
D03*
X26693Y14567D02*
D03*
Y15354D02*
D03*
X26299Y14961D02*
D03*
Y14173D02*
D03*
X26693Y13780D02*
D03*
X27480D02*
D03*
X28268D02*
D03*
X28661Y14173D02*
D03*
Y15748D02*
D03*
X27874D02*
D03*
X27087D02*
D03*
X26299D02*
D03*
Y16535D02*
D03*
X26693Y16142D02*
D03*
Y16929D02*
D03*
X27087Y16535D02*
D03*
X27480Y16142D02*
D03*
Y16929D02*
D03*
X28268Y16142D02*
D03*
X27874Y16535D02*
D03*
X28268Y16929D02*
D03*
X28661Y16535D02*
D03*
X26299Y13386D02*
D03*
X27087D02*
D03*
X27874D02*
D03*
X28661D02*
D03*
X28268Y12992D02*
D03*
X27480D02*
D03*
X26693D02*
D03*
X26299Y12598D02*
D03*
X27087D02*
D03*
X27874D02*
D03*
X28661D02*
D03*
X19685Y14567D02*
D03*
X20079Y14961D02*
D03*
X19685Y15354D02*
D03*
X20472D02*
D03*
Y14567D02*
D03*
X20866Y14961D02*
D03*
X20079Y14173D02*
D03*
X19291D02*
D03*
Y14961D02*
D03*
X18898Y14567D02*
D03*
Y15354D02*
D03*
X18504Y14961D02*
D03*
Y14173D02*
D03*
X18898Y13780D02*
D03*
X19685D02*
D03*
X20472D02*
D03*
X20866Y14173D02*
D03*
Y15748D02*
D03*
X20079D02*
D03*
X19291D02*
D03*
X18504D02*
D03*
Y16535D02*
D03*
X18898Y16142D02*
D03*
Y16929D02*
D03*
X19291Y16535D02*
D03*
X19685Y16142D02*
D03*
Y16929D02*
D03*
X20472Y16142D02*
D03*
X20079Y16535D02*
D03*
X20472Y16929D02*
D03*
X20866Y16535D02*
D03*
X18504Y13386D02*
D03*
X19291D02*
D03*
X20079D02*
D03*
X20866D02*
D03*
X20472Y12992D02*
D03*
X19685D02*
D03*
X18898D02*
D03*
X18504Y12598D02*
D03*
X19291D02*
D03*
X20079D02*
D03*
X20866D02*
D03*
X11890Y14567D02*
D03*
X12283Y14961D02*
D03*
X11890Y15354D02*
D03*
X12677D02*
D03*
Y14567D02*
D03*
X13071Y14961D02*
D03*
X12283Y14173D02*
D03*
X11496D02*
D03*
Y14961D02*
D03*
X11102Y14567D02*
D03*
Y15354D02*
D03*
X10709Y14961D02*
D03*
Y14173D02*
D03*
X11102Y13780D02*
D03*
X11890D02*
D03*
X12677D02*
D03*
X13071Y14173D02*
D03*
Y15748D02*
D03*
X12283D02*
D03*
X11496D02*
D03*
X10709D02*
D03*
Y16535D02*
D03*
X11102Y16142D02*
D03*
Y16929D02*
D03*
X11496Y16535D02*
D03*
X11890Y16142D02*
D03*
Y16929D02*
D03*
X12677Y16142D02*
D03*
X12283Y16535D02*
D03*
X12677Y16929D02*
D03*
X13071Y16535D02*
D03*
X10709Y13386D02*
D03*
X11496D02*
D03*
X12283D02*
D03*
X13071D02*
D03*
X12677Y12992D02*
D03*
X11890D02*
D03*
X11102D02*
D03*
X10709Y12598D02*
D03*
X11496D02*
D03*
X12283D02*
D03*
X13071D02*
D03*
X5276D02*
D03*
X3701D02*
D03*
X2913D02*
D03*
X3307Y12992D02*
D03*
X4094D02*
D03*
X4882D02*
D03*
X5276Y13386D02*
D03*
X4488D02*
D03*
X3701D02*
D03*
X2913D02*
D03*
X5276Y16535D02*
D03*
X4882Y16929D02*
D03*
X4488Y16535D02*
D03*
X4882Y16142D02*
D03*
X4094Y16929D02*
D03*
Y16142D02*
D03*
X3701Y16535D02*
D03*
X3307Y16929D02*
D03*
Y16142D02*
D03*
X2913Y16535D02*
D03*
Y15748D02*
D03*
X3701D02*
D03*
X4488D02*
D03*
X5276D02*
D03*
Y14173D02*
D03*
X4882Y13780D02*
D03*
X4094D02*
D03*
X3307D02*
D03*
X2913Y14173D02*
D03*
Y14961D02*
D03*
X3307Y15354D02*
D03*
Y14567D02*
D03*
X3701Y14961D02*
D03*
Y14173D02*
D03*
X4488D02*
D03*
X4882Y14567D02*
D03*
Y15354D02*
D03*
X4094D02*
D03*
X4488Y14961D02*
D03*
X4094Y14567D02*
D03*
X22480Y7717D02*
D03*
X16968D02*
D03*
X20157Y7756D02*
D03*
X19685D02*
D03*
X37926Y13819D02*
D03*
X37935Y13307D02*
D03*
X13937Y11378D02*
D03*
X6181Y11378D02*
D03*
X6614D02*
D03*
X17132Y12317D02*
D03*
X17244Y11339D02*
D03*
X16911Y12817D02*
D03*
X21850Y11339D02*
D03*
X22283D02*
D03*
X29646Y11378D02*
D03*
X30079D02*
D03*
X32717Y12323D02*
D03*
X32795Y11378D02*
D03*
X9370Y12323D02*
D03*
X30234Y13817D02*
D03*
X32520Y12835D02*
D03*
X30246Y13317D02*
D03*
X30236Y12362D02*
D03*
X24746Y12817D02*
D03*
X24921Y12305D02*
D03*
X1457Y12305D02*
D03*
X22435Y12317D02*
D03*
X6841Y13317D02*
D03*
X9116Y12817D02*
D03*
X6856Y12317D02*
D03*
X1321Y12817D02*
D03*
X14608Y13817D02*
D03*
X14596Y13317D02*
D03*
X14600Y12317D02*
D03*
X22443Y13817D02*
D03*
X22431Y13317D02*
D03*
X37959Y12317D02*
D03*
X37874Y11339D02*
D03*
X37480Y11693D02*
D03*
X14370Y11378D02*
D03*
X25394D02*
D03*
X10000Y11339D02*
D03*
X2480Y11378D02*
D03*
D86*
X12756Y7717D02*
D03*
D87*
X35945Y9370D02*
D03*
D88*
X37926Y12317D02*
D03*
Y13817D02*
D03*
Y12817D02*
D03*
Y13317D02*
D03*
Y15817D02*
D03*
Y16817D02*
D03*
Y16317D02*
D03*
Y14317D02*
D03*
Y15317D02*
D03*
Y14817D02*
D03*
X32626Y12817D02*
D03*
Y12317D02*
D03*
Y13317D02*
D03*
Y14317D02*
D03*
Y13817D02*
D03*
X35276Y14567D02*
D03*
X32626Y15317D02*
D03*
Y14817D02*
D03*
Y15817D02*
D03*
Y16817D02*
D03*
Y16317D02*
D03*
X30130Y12317D02*
D03*
Y13817D02*
D03*
Y12817D02*
D03*
Y13317D02*
D03*
Y15817D02*
D03*
Y16817D02*
D03*
Y16317D02*
D03*
Y14317D02*
D03*
Y15317D02*
D03*
Y14817D02*
D03*
X27480Y13386D02*
D03*
X24830Y12317D02*
D03*
Y12817D02*
D03*
Y13817D02*
D03*
Y13317D02*
D03*
Y15817D02*
D03*
Y16817D02*
D03*
Y16317D02*
D03*
Y14317D02*
D03*
Y15317D02*
D03*
Y14817D02*
D03*
X22335Y12317D02*
D03*
Y13817D02*
D03*
Y12817D02*
D03*
Y13317D02*
D03*
Y15817D02*
D03*
Y16817D02*
D03*
Y16317D02*
D03*
Y14317D02*
D03*
Y15317D02*
D03*
Y14817D02*
D03*
X17035Y12817D02*
D03*
Y12317D02*
D03*
Y13317D02*
D03*
Y14317D02*
D03*
Y13817D02*
D03*
X19685Y14567D02*
D03*
X17035Y15317D02*
D03*
Y14817D02*
D03*
Y15817D02*
D03*
Y16817D02*
D03*
Y16317D02*
D03*
X14540Y12317D02*
D03*
Y13817D02*
D03*
Y12817D02*
D03*
Y13317D02*
D03*
Y15817D02*
D03*
Y16817D02*
D03*
Y16317D02*
D03*
Y14317D02*
D03*
Y15317D02*
D03*
Y14817D02*
D03*
X9240Y12817D02*
D03*
Y12317D02*
D03*
Y13317D02*
D03*
Y14317D02*
D03*
Y13817D02*
D03*
X11890Y14567D02*
D03*
X9240Y15317D02*
D03*
Y14817D02*
D03*
Y15817D02*
D03*
Y16817D02*
D03*
Y16317D02*
D03*
X6744Y12317D02*
D03*
Y13817D02*
D03*
Y12817D02*
D03*
Y13317D02*
D03*
Y15817D02*
D03*
Y16817D02*
D03*
Y16317D02*
D03*
Y14317D02*
D03*
Y15317D02*
D03*
Y14817D02*
D03*
X1444Y12817D02*
D03*
Y12317D02*
D03*
Y13317D02*
D03*
Y14317D02*
D03*
Y13817D02*
D03*
X4094Y14567D02*
D03*
X1444Y15317D02*
D03*
Y14817D02*
D03*
Y15817D02*
D03*
Y16817D02*
D03*
Y16317D02*
D03*
M02*
