G04 Layer_Physical_Order=1*
G04 Layer_Color=255*
%FSLAX24Y24*%
%MOIN*%
G70*
G01*
G75*
G04:AMPARAMS|DCode=10|XSize=157.5mil|YSize=94.5mil|CornerRadius=23.6mil|HoleSize=0mil|Usage=FLASHONLY|Rotation=180.000|XOffset=0mil|YOffset=0mil|HoleType=Round|Shape=RoundedRectangle|*
%AMROUNDEDRECTD10*
21,1,0.1575,0.0472,0,0,180.0*
21,1,0.1102,0.0945,0,0,180.0*
1,1,0.0472,-0.0551,0.0236*
1,1,0.0472,0.0551,0.0236*
1,1,0.0472,0.0551,-0.0236*
1,1,0.0472,-0.0551,-0.0236*
%
%ADD10ROUNDEDRECTD10*%
G04:AMPARAMS|DCode=11|XSize=39.4mil|YSize=35.4mil|CornerRadius=4.4mil|HoleSize=0mil|Usage=FLASHONLY|Rotation=0.000|XOffset=0mil|YOffset=0mil|HoleType=Round|Shape=RoundedRectangle|*
%AMROUNDEDRECTD11*
21,1,0.0394,0.0266,0,0,0.0*
21,1,0.0305,0.0354,0,0,0.0*
1,1,0.0089,0.0153,-0.0133*
1,1,0.0089,-0.0153,-0.0133*
1,1,0.0089,-0.0153,0.0133*
1,1,0.0089,0.0153,0.0133*
%
%ADD11ROUNDEDRECTD11*%
%ADD12O,0.0472X0.0236*%
%ADD13R,0.0472X0.0236*%
%ADD14R,0.0701X0.0283*%
%ADD15O,0.0701X0.0283*%
G04:AMPARAMS|DCode=16|XSize=39.4mil|YSize=35.4mil|CornerRadius=4.4mil|HoleSize=0mil|Usage=FLASHONLY|Rotation=90.000|XOffset=0mil|YOffset=0mil|HoleType=Round|Shape=RoundedRectangle|*
%AMROUNDEDRECTD16*
21,1,0.0394,0.0266,0,0,90.0*
21,1,0.0305,0.0354,0,0,90.0*
1,1,0.0089,0.0133,0.0153*
1,1,0.0089,0.0133,-0.0153*
1,1,0.0089,-0.0133,-0.0153*
1,1,0.0089,-0.0133,0.0153*
%
%ADD16ROUNDEDRECTD16*%
%ADD17R,0.1575X0.1181*%
G04:AMPARAMS|DCode=18|XSize=70.9mil|YSize=45.3mil|CornerRadius=5.7mil|HoleSize=0mil|Usage=FLASHONLY|Rotation=0.000|XOffset=0mil|YOffset=0mil|HoleType=Round|Shape=RoundedRectangle|*
%AMROUNDEDRECTD18*
21,1,0.0709,0.0340,0,0,0.0*
21,1,0.0595,0.0453,0,0,0.0*
1,1,0.0113,0.0298,-0.0170*
1,1,0.0113,-0.0298,-0.0170*
1,1,0.0113,-0.0298,0.0170*
1,1,0.0113,0.0298,0.0170*
%
%ADD18ROUNDEDRECTD18*%
G04:AMPARAMS|DCode=19|XSize=31.5mil|YSize=39.4mil|CornerRadius=3.9mil|HoleSize=0mil|Usage=FLASHONLY|Rotation=180.000|XOffset=0mil|YOffset=0mil|HoleType=Round|Shape=RoundedRectangle|*
%AMROUNDEDRECTD19*
21,1,0.0315,0.0315,0,0,180.0*
21,1,0.0236,0.0394,0,0,180.0*
1,1,0.0079,-0.0118,0.0157*
1,1,0.0079,0.0118,0.0157*
1,1,0.0079,0.0118,-0.0157*
1,1,0.0079,-0.0118,-0.0157*
%
%ADD19ROUNDEDRECTD19*%
%ADD20R,0.1575X0.1811*%
G04:AMPARAMS|DCode=21|XSize=59.1mil|YSize=35.4mil|CornerRadius=8.9mil|HoleSize=0mil|Usage=FLASHONLY|Rotation=270.000|XOffset=0mil|YOffset=0mil|HoleType=Round|Shape=RoundedRectangle|*
%AMROUNDEDRECTD21*
21,1,0.0591,0.0177,0,0,270.0*
21,1,0.0413,0.0354,0,0,270.0*
1,1,0.0177,-0.0089,-0.0207*
1,1,0.0177,-0.0089,0.0207*
1,1,0.0177,0.0089,0.0207*
1,1,0.0177,0.0089,-0.0207*
%
%ADD21ROUNDEDRECTD21*%
G04:AMPARAMS|DCode=22|XSize=31.5mil|YSize=31.5mil|CornerRadius=3.9mil|HoleSize=0mil|Usage=FLASHONLY|Rotation=180.000|XOffset=0mil|YOffset=0mil|HoleType=Round|Shape=RoundedRectangle|*
%AMROUNDEDRECTD22*
21,1,0.0315,0.0236,0,0,180.0*
21,1,0.0236,0.0315,0,0,180.0*
1,1,0.0079,-0.0118,0.0118*
1,1,0.0079,0.0118,0.0118*
1,1,0.0079,0.0118,-0.0118*
1,1,0.0079,-0.0118,-0.0118*
%
%ADD22ROUNDEDRECTD22*%
%ADD23R,0.1181X0.1575*%
%ADD24R,0.1820X0.1780*%
%ADD25R,0.0650X0.0240*%
%ADD26O,0.0610X0.0236*%
%ADD27R,0.0610X0.0236*%
%ADD28O,0.0157X0.0591*%
%ADD29R,0.0157X0.0591*%
%ADD30R,0.0846X0.0394*%
%ADD31R,0.0846X0.1280*%
%ADD32O,0.0236X0.0610*%
%ADD33R,0.0236X0.0610*%
%ADD34C,0.0197*%
%ADD35C,0.0157*%
%ADD36C,0.0118*%
%ADD37C,0.1575*%
%ADD38C,0.0315*%
%ADD39C,0.0394*%
%ADD40C,0.0630*%
%ADD41C,0.0512*%
%ADD42R,0.0532X0.0532*%
%ADD43C,0.0532*%
%ADD44C,0.0354*%
%ADD45C,0.0394*%
%ADD46C,0.0315*%
%ADD47C,0.0276*%
%ADD48C,0.0551*%
G36*
X21530Y6666D02*
X21540Y6658D01*
X21553Y6559D01*
X21593Y6463D01*
X21656Y6381D01*
X21738Y6318D01*
X21776Y6302D01*
Y4641D01*
X21193Y4058D01*
X18158D01*
X18113Y4167D01*
X18991Y5045D01*
X19005Y5049D01*
X19129Y5034D01*
X19170Y5007D01*
X19218Y4998D01*
X19291D01*
Y5276D01*
X19409D01*
Y4998D01*
X19483D01*
X19522Y5005D01*
X19528Y5000D01*
X19721D01*
X19735Y4990D01*
X19795Y4882D01*
X19790Y4870D01*
X19781Y4803D01*
X19790Y4736D01*
X19816Y4674D01*
X19857Y4621D01*
X19910Y4580D01*
X19973Y4554D01*
X20039Y4545D01*
X20106Y4554D01*
X20168Y4580D01*
X20222Y4621D01*
X20263Y4674D01*
X20289Y4736D01*
X20297Y4803D01*
X20289Y4870D01*
X20263Y4932D01*
X20241Y5034D01*
X20268Y5075D01*
X20278Y5123D01*
Y5428D01*
X20268Y5476D01*
X20241Y5517D01*
X20201Y5544D01*
X20180Y5548D01*
Y5734D01*
X20188Y5746D01*
X20200Y5807D01*
Y6240D01*
X20305Y6316D01*
X20965D01*
X20965Y6316D01*
X21026Y6328D01*
X21078Y6363D01*
X21427Y6712D01*
X21530Y6666D01*
D02*
G37*
G36*
X18467Y7627D02*
X19239Y6855D01*
X19239Y6855D01*
X19291Y6820D01*
X19352Y6808D01*
X19558D01*
X19603Y6699D01*
X19414Y6510D01*
X19379Y6458D01*
X19331Y6431D01*
Y6024D01*
X19213D01*
Y6389D01*
X19210Y6388D01*
X19144Y6360D01*
X19077Y6388D01*
X19016Y6401D01*
X18954Y6388D01*
X18888Y6360D01*
X18821Y6388D01*
X18760Y6401D01*
X18698Y6388D01*
X18632Y6360D01*
X18565Y6388D01*
X18504Y6401D01*
X18442Y6388D01*
X18376Y6360D01*
X18309Y6388D01*
X18248Y6401D01*
X18187Y6388D01*
X18120Y6360D01*
X18054Y6388D01*
X17992Y6401D01*
X17931Y6388D01*
X17864Y6360D01*
X17798Y6388D01*
X17736Y6401D01*
X17675Y6388D01*
X17601Y6481D01*
X17594Y6491D01*
X17594Y6492D01*
X17428Y6657D01*
X17429Y6694D01*
X17460Y6792D01*
X17495Y6816D01*
X18307Y7628D01*
X18365Y7680D01*
X18467Y7627D01*
D02*
G37*
G36*
X23864Y8116D02*
X23864Y8107D01*
X23856Y8066D01*
Y7972D01*
X24114D01*
Y7854D01*
X23856D01*
Y7761D01*
X23865Y7713D01*
X23887Y7680D01*
X23878Y7638D01*
X23845Y7562D01*
X21764D01*
X21718Y7671D01*
X22016Y7969D01*
X23327D01*
X23327Y7969D01*
X23388Y7982D01*
X23440Y8016D01*
X23649Y8225D01*
X23802D01*
X23864Y8116D01*
D02*
G37*
G36*
X35433Y8661D02*
Y6788D01*
X35321Y6764D01*
X35281Y6860D01*
X35218Y6942D01*
X35136Y7005D01*
X35040Y7045D01*
X34937Y7059D01*
X34834Y7045D01*
X34738Y7005D01*
X34656Y6942D01*
X34593Y6860D01*
X34553Y6764D01*
X34540Y6661D01*
X34553Y6559D01*
X34593Y6463D01*
X34656Y6381D01*
X34738Y6318D01*
X34834Y6278D01*
X34937Y6264D01*
X35040Y6278D01*
X35136Y6318D01*
X35218Y6381D01*
X35281Y6463D01*
X35321Y6559D01*
X35433Y6535D01*
Y6102D01*
X34158D01*
X34134Y6134D01*
X34088Y6170D01*
X34082Y6222D01*
X34092Y6300D01*
X34136Y6318D01*
X34218Y6381D01*
X34281Y6463D01*
X34321Y6559D01*
X34334Y6661D01*
X34321Y6764D01*
X34281Y6860D01*
X34218Y6942D01*
X34136Y7005D01*
X34040Y7045D01*
X33937Y7059D01*
X33834Y7045D01*
X33738Y7005D01*
X33656Y6942D01*
X33593Y6860D01*
X33553Y6764D01*
X33540Y6661D01*
X33553Y6559D01*
X33593Y6463D01*
X33656Y6381D01*
X33738Y6318D01*
X33782Y6300D01*
X33792Y6222D01*
X33787Y6170D01*
X33740Y6134D01*
X33696Y6077D01*
X33669Y6010D01*
X33659Y5938D01*
X33669Y5866D01*
X33696Y5799D01*
X33705Y5787D01*
X33647Y5669D01*
X33041D01*
Y5653D01*
X32890D01*
X32876Y5666D01*
Y5822D01*
X32867Y5870D01*
X32840Y5911D01*
X32799Y5938D01*
X32751Y5947D01*
X32446D01*
X32398Y5938D01*
X32357Y5911D01*
X32330Y5870D01*
X32320Y5822D01*
Y5556D01*
X32328Y5517D01*
X32323Y5512D01*
Y5197D01*
X32328Y5192D01*
X32320Y5153D01*
Y5079D01*
X32876D01*
Y5153D01*
X32872Y5174D01*
X32924Y5292D01*
X33041D01*
Y5276D01*
X33148D01*
X33161Y5158D01*
X33096Y5114D01*
X33053Y5049D01*
X33049Y5031D01*
X33425D01*
Y4913D01*
X33049D01*
X33053Y4896D01*
X33096Y4831D01*
X33114Y4818D01*
X33131Y4688D01*
X33128Y4678D01*
X33077Y4633D01*
X32287D01*
X31853Y5067D01*
Y6191D01*
X31937Y6264D01*
X32040Y6278D01*
X32136Y6318D01*
X32218Y6381D01*
X32281Y6463D01*
X32321Y6559D01*
X32334Y6661D01*
X32321Y6764D01*
X32281Y6860D01*
X32218Y6942D01*
X32136Y7005D01*
X32040Y7045D01*
X31937Y7059D01*
X31834Y7045D01*
X31738Y7005D01*
X31656Y6942D01*
X31593Y6860D01*
X31553Y6764D01*
X31540Y6661D01*
X31553Y6559D01*
X31570Y6518D01*
X31545Y6479D01*
X31539Y6453D01*
X31441Y6409D01*
X31419Y6407D01*
X31305Y6521D01*
X31321Y6559D01*
X31334Y6661D01*
X31321Y6764D01*
X31281Y6860D01*
X31218Y6942D01*
X31136Y7005D01*
X31040Y7045D01*
X30937Y7059D01*
X30834Y7045D01*
X30738Y7005D01*
X30656Y6942D01*
X30593Y6860D01*
X30553Y6764D01*
X30540Y6661D01*
X30553Y6559D01*
X30593Y6463D01*
X30656Y6381D01*
X30738Y6318D01*
X30834Y6278D01*
X30937Y6264D01*
X31040Y6278D01*
X31078Y6294D01*
X31287Y6084D01*
X31278Y5996D01*
X31165Y5952D01*
X31098Y6019D01*
X31046Y6054D01*
X30984Y6066D01*
X30984Y6066D01*
X29736D01*
X29687Y6184D01*
X29796Y6294D01*
X29834Y6278D01*
X29937Y6264D01*
X30040Y6278D01*
X30136Y6318D01*
X30218Y6381D01*
X30281Y6463D01*
X30321Y6559D01*
X30334Y6661D01*
X30321Y6764D01*
X30281Y6860D01*
X30218Y6942D01*
X30136Y7005D01*
X30040Y7045D01*
X29937Y7059D01*
X29834Y7045D01*
X29738Y7005D01*
X29656Y6942D01*
X29593Y6860D01*
X29553Y6764D01*
X29540Y6661D01*
X29553Y6559D01*
X29569Y6521D01*
X29447Y6399D01*
X29379Y6407D01*
X29308Y6529D01*
X29321Y6559D01*
X29334Y6661D01*
X29321Y6764D01*
X29281Y6860D01*
X29218Y6942D01*
X29136Y7005D01*
X29040Y7045D01*
X28937Y7059D01*
X28834Y7045D01*
X28798Y7030D01*
X28411Y7417D01*
X28426Y7511D01*
X28445Y7550D01*
X28496Y7584D01*
X28540Y7650D01*
X28544Y7671D01*
X28665D01*
X28669Y7650D01*
X28712Y7584D01*
X28778Y7541D01*
X28795Y7537D01*
Y7913D01*
Y8289D01*
X28778Y8286D01*
X28712Y8242D01*
X28669Y8177D01*
X28665Y8155D01*
X28544D01*
X28540Y8177D01*
X28496Y8242D01*
X28431Y8286D01*
X28390Y8294D01*
X28194Y8490D01*
X28142Y8524D01*
X28081Y8537D01*
X28081Y8537D01*
X27563D01*
X27559Y8543D01*
X27622Y8661D01*
X35433D01*
D02*
G37*
G36*
X19429Y3147D02*
X19358Y3137D01*
X19276Y3103D01*
X19206Y3050D01*
X19153Y2980D01*
X19119Y2898D01*
X19107Y2811D01*
X19119Y2724D01*
X19153Y2642D01*
X19206Y2572D01*
X19276Y2519D01*
X19358Y2485D01*
X19445Y2473D01*
X19532Y2485D01*
X19600Y2513D01*
X19857Y2256D01*
X19857Y2218D01*
X19823Y2123D01*
X19776Y2103D01*
X19706Y2050D01*
X19653Y1980D01*
X19619Y1898D01*
X19607Y1811D01*
X19619Y1724D01*
X19653Y1642D01*
X19702Y1578D01*
X19698Y1553D01*
X19659Y1460D01*
X17845D01*
X17806Y1553D01*
X17802Y1578D01*
X17851Y1642D01*
X17885Y1724D01*
X17889Y1752D01*
X17229D01*
X17233Y1724D01*
X17267Y1642D01*
X17316Y1578D01*
X17312Y1553D01*
X17273Y1460D01*
X16845D01*
X16806Y1553D01*
X16802Y1578D01*
X16851Y1642D01*
X16885Y1724D01*
X16897Y1811D01*
X16885Y1898D01*
X16851Y1980D01*
X16798Y2050D01*
X16728Y2103D01*
X16657Y2133D01*
Y2599D01*
X16740Y2632D01*
X16775Y2632D01*
X16820Y2572D01*
X16890Y2519D01*
X16972Y2485D01*
X17059Y2473D01*
X17146Y2485D01*
X17228Y2519D01*
X17298Y2572D01*
X17351Y2642D01*
X17385Y2724D01*
X17397Y2811D01*
X17385Y2898D01*
X17351Y2980D01*
X17298Y3050D01*
X17228Y3103D01*
X17199Y3243D01*
X17215Y3265D01*
X19422D01*
X19429Y3147D01*
D02*
G37*
G36*
X6496Y4331D02*
Y120D01*
X3937D01*
Y1610D01*
X3989Y1650D01*
X4055Y1682D01*
X4122Y1669D01*
X4539D01*
X4625Y1686D01*
X4698Y1735D01*
X4747Y1808D01*
X4764Y1894D01*
X4747Y1980D01*
X4698Y2053D01*
X4625Y2101D01*
X4539Y2118D01*
X4362D01*
Y2410D01*
X4376Y2413D01*
X4413Y2437D01*
X4653D01*
X4653Y2437D01*
X4680Y2397D01*
X4721Y2369D01*
X4769Y2360D01*
X5074D01*
X5122Y2369D01*
X5163Y2397D01*
X5190Y2437D01*
X5199Y2485D01*
Y2751D01*
X5192Y2790D01*
X5197Y2795D01*
Y3110D01*
X5118Y3189D01*
X4724D01*
X4646Y3110D01*
Y2883D01*
X4581Y2858D01*
X4496Y2952D01*
X4500Y2972D01*
X4485Y3049D01*
X4441Y3114D01*
X4376Y3158D01*
X4299Y3173D01*
X4063D01*
X4039Y3168D01*
X3937Y3256D01*
Y5059D01*
X3996Y5118D01*
X5709D01*
X6496Y4331D01*
D02*
G37*
G36*
X3543Y3740D02*
X1969D01*
Y4331D01*
X204D01*
X120Y4414D01*
X120Y5709D01*
X3543D01*
Y3740D01*
D02*
G37*
G36*
X506Y8661D02*
X527Y8644D01*
X589Y8543D01*
X588Y8538D01*
Y8445D01*
X846D01*
Y8386D01*
X906D01*
Y8108D01*
X979D01*
X1018Y8116D01*
X1024Y8110D01*
X1339D01*
X1344Y8116D01*
X1383Y8108D01*
X1649D01*
X1697Y8117D01*
X1737Y8145D01*
X1765Y8185D01*
X1768Y8205D01*
X1969D01*
Y8002D01*
X2362D01*
Y8108D01*
X2480Y8122D01*
X2523Y8057D01*
X2582Y8018D01*
X2879Y7721D01*
X2931Y7686D01*
X2992Y7674D01*
X2992Y7674D01*
X3576D01*
X4198Y7052D01*
X4198Y7052D01*
X4250Y7017D01*
X4312Y7005D01*
X9620D01*
X10281Y6343D01*
X10281Y6343D01*
X10333Y6308D01*
X10395Y6296D01*
X10395Y6296D01*
X10484D01*
X10587Y6211D01*
Y5797D01*
X10600Y5732D01*
X10637Y5677D01*
X10693Y5640D01*
X10758Y5627D01*
X10879D01*
X11111Y5394D01*
X11107Y5350D01*
X10918Y5161D01*
X10758D01*
X10693Y5148D01*
X10637Y5111D01*
X10600Y5055D01*
X10587Y4990D01*
Y4577D01*
X10600Y4511D01*
X10637Y4456D01*
X10693Y4419D01*
X10758Y4406D01*
X10935D01*
X11000Y4419D01*
X11056Y4456D01*
X11093Y4511D01*
X11106Y4577D01*
Y4813D01*
X11138Y4835D01*
X11257Y4772D01*
Y4577D01*
X11270Y4511D01*
X11307Y4456D01*
X11312Y4381D01*
X11286Y4319D01*
X11277Y4252D01*
X11286Y4185D01*
X11312Y4123D01*
X11353Y4069D01*
X11406Y4028D01*
X11469Y4003D01*
X11535Y3994D01*
X11602Y4003D01*
X11664Y4028D01*
X11718Y4069D01*
X11759Y4123D01*
X11785Y4185D01*
X11794Y4252D01*
X11785Y4319D01*
X11759Y4381D01*
X11725Y4456D01*
X11762Y4511D01*
X11775Y4577D01*
Y4937D01*
X11893Y4986D01*
X12045Y4834D01*
Y4651D01*
X12054Y4603D01*
X12082Y4562D01*
X12122Y4535D01*
X12170Y4525D01*
X12436D01*
X12475Y4533D01*
X12480Y4528D01*
X12795D01*
X12812Y4416D01*
Y4350D01*
X12812Y4350D01*
X12824Y4289D01*
X12859Y4237D01*
X13243Y3852D01*
X13198Y3743D01*
X11059D01*
X10998Y3731D01*
X10946Y3696D01*
X10383Y3134D01*
X10375Y3137D01*
X10287Y3149D01*
X10200Y3137D01*
X10119Y3103D01*
X10049Y3050D01*
X9995Y2980D01*
X9961Y2898D01*
X9950Y2811D01*
X9961Y2724D01*
X9995Y2642D01*
X10049Y2572D01*
X10119Y2519D01*
X10200Y2485D01*
X10287Y2473D01*
X10375Y2485D01*
X10456Y2519D01*
X10526Y2572D01*
X10580Y2642D01*
X10613Y2724D01*
X10625Y2811D01*
X10613Y2898D01*
X10610Y2907D01*
X11126Y3422D01*
X13318D01*
X13364Y3313D01*
X13075Y3024D01*
X13057Y3017D01*
X13018Y3015D01*
X12929Y3027D01*
X12912Y3050D01*
X12842Y3103D01*
X12761Y3137D01*
X12732Y3141D01*
Y2811D01*
Y2481D01*
X12761Y2485D01*
X12842Y2519D01*
X12895Y2559D01*
X12961Y2542D01*
X13013Y2510D01*
Y2107D01*
X13004Y2103D01*
X12935Y2050D01*
X12881Y1980D01*
X12847Y1898D01*
X12836Y1811D01*
X12847Y1724D01*
X12881Y1642D01*
X12935Y1572D01*
X13004Y1519D01*
X13086Y1485D01*
X13173Y1473D01*
X13261Y1485D01*
X13342Y1519D01*
X13412Y1572D01*
X13466Y1642D01*
X13499Y1724D01*
X13511Y1811D01*
X13499Y1898D01*
X13466Y1980D01*
X13412Y2050D01*
X13342Y2103D01*
X13334Y2107D01*
Y2510D01*
X13386Y2542D01*
X13452Y2559D01*
X13504Y2519D01*
X13586Y2485D01*
X13673Y2473D01*
X13761Y2485D01*
X13842Y2519D01*
X13912Y2572D01*
X13966Y2642D01*
X13999Y2724D01*
X14011Y2811D01*
X13999Y2898D01*
X13966Y2980D01*
X13912Y3050D01*
X13888Y3068D01*
X13928Y3186D01*
X15804D01*
X15844Y3068D01*
X15820Y3050D01*
X15767Y2980D01*
X15733Y2898D01*
X15722Y2811D01*
X15733Y2724D01*
X15767Y2642D01*
X15820Y2572D01*
X15890Y2519D01*
X15972Y2485D01*
X15981Y2484D01*
Y1644D01*
X15981Y1644D01*
X15993Y1582D01*
X16028Y1530D01*
X16373Y1186D01*
X16373Y1186D01*
X16425Y1151D01*
X16486Y1139D01*
X20052D01*
X20438Y753D01*
X20490Y718D01*
X20551Y706D01*
X20551Y706D01*
X21501D01*
X21540Y661D01*
X21553Y559D01*
X21593Y463D01*
X21656Y381D01*
X21738Y318D01*
X21834Y278D01*
X21937Y264D01*
X22040Y278D01*
X22136Y318D01*
X22218Y381D01*
X22281Y463D01*
X22321Y559D01*
X22334Y661D01*
X22321Y764D01*
X22281Y860D01*
X22343Y973D01*
X22531D01*
X22593Y860D01*
X22553Y764D01*
X22540Y661D01*
X22553Y559D01*
X22593Y463D01*
X22656Y381D01*
X22738Y318D01*
X22834Y278D01*
X22937Y264D01*
X23040Y278D01*
X23136Y318D01*
X23218Y381D01*
X23281Y463D01*
X23321Y559D01*
X23334Y661D01*
X23321Y764D01*
X23281Y860D01*
X23343Y973D01*
X23531D01*
X23593Y860D01*
X23553Y764D01*
X23540Y661D01*
X23553Y559D01*
X23593Y463D01*
X23656Y381D01*
X23738Y318D01*
X23834Y278D01*
X23937Y264D01*
X24040Y278D01*
X24136Y318D01*
X24218Y381D01*
X24281Y463D01*
X24321Y559D01*
X24334Y661D01*
X24321Y764D01*
X24308Y794D01*
X24379Y916D01*
X24447Y924D01*
X24569Y802D01*
X24553Y764D01*
X24540Y661D01*
X24553Y559D01*
X24593Y463D01*
X24656Y381D01*
X24738Y318D01*
X24834Y278D01*
X24937Y264D01*
X25040Y278D01*
X25136Y318D01*
X25218Y381D01*
X25281Y463D01*
X25321Y559D01*
X25325Y593D01*
X25396Y681D01*
X25435Y692D01*
X25544Y633D01*
X25553Y559D01*
X25593Y463D01*
X25656Y381D01*
X25738Y318D01*
X25834Y278D01*
X25937Y264D01*
X26040Y278D01*
X26136Y318D01*
X26218Y381D01*
X26281Y463D01*
X26321Y559D01*
X26334Y661D01*
X26321Y764D01*
X26308Y794D01*
X26379Y916D01*
X26447Y924D01*
X26569Y802D01*
X26553Y764D01*
X26540Y661D01*
X26553Y559D01*
X26593Y463D01*
X26656Y381D01*
X26738Y318D01*
X26834Y278D01*
X26937Y264D01*
X27040Y278D01*
X27136Y318D01*
X27218Y381D01*
X27281Y463D01*
X27321Y559D01*
X27334Y661D01*
X27437Y762D01*
X27540Y661D01*
X27553Y559D01*
X27593Y463D01*
X27656Y381D01*
X27738Y318D01*
X27834Y278D01*
X27937Y264D01*
X28040Y278D01*
X28136Y318D01*
X28218Y381D01*
X28281Y463D01*
X28321Y559D01*
X28334Y661D01*
X28321Y764D01*
X28303Y808D01*
X28354Y923D01*
X28371Y937D01*
X28426Y945D01*
X28569Y802D01*
X28553Y764D01*
X28540Y661D01*
X28553Y559D01*
X28593Y463D01*
X28656Y381D01*
X28738Y318D01*
X28834Y278D01*
X28937Y264D01*
X29040Y278D01*
X29136Y318D01*
X29218Y381D01*
X29281Y463D01*
X29321Y559D01*
X29334Y661D01*
X29321Y764D01*
X29281Y860D01*
X29218Y942D01*
X29136Y1005D01*
X29040Y1045D01*
X28937Y1059D01*
X28834Y1045D01*
X28796Y1029D01*
X28698Y1128D01*
X28743Y1237D01*
X29134D01*
X29569Y802D01*
X29553Y764D01*
X29540Y661D01*
X29553Y559D01*
X29593Y463D01*
X29656Y381D01*
X29738Y318D01*
X29834Y278D01*
X29937Y264D01*
X30040Y278D01*
X30136Y318D01*
X30218Y381D01*
X30281Y463D01*
X30321Y559D01*
X30334Y661D01*
X30321Y764D01*
X30281Y860D01*
X30218Y942D01*
X30136Y1005D01*
X30040Y1045D01*
X29937Y1059D01*
X29834Y1045D01*
X29796Y1029D01*
X29314Y1511D01*
X29262Y1546D01*
X29201Y1558D01*
X29201Y1558D01*
X28093D01*
X28066Y1585D01*
X28023Y1676D01*
X28043Y1724D01*
X28046Y1752D01*
X27717D01*
Y1811D01*
X27657D01*
Y2141D01*
X27629Y2137D01*
X27548Y2103D01*
X27478Y2050D01*
X27424Y1980D01*
X27409Y1942D01*
X27290Y1966D01*
Y1982D01*
X27278Y2044D01*
X27243Y2096D01*
X27243Y2096D01*
X27001Y2338D01*
X26949Y2373D01*
X26888Y2385D01*
X26888Y2385D01*
X26785D01*
X26514Y2656D01*
X26543Y2724D01*
X26554Y2811D01*
X26543Y2898D01*
X26509Y2980D01*
X26455Y3050D01*
X26385Y3103D01*
X26304Y3137D01*
X26217Y3149D01*
X26129Y3137D01*
X26048Y3103D01*
X25978Y3050D01*
X25924Y2980D01*
X25891Y2898D01*
X25879Y2811D01*
X25891Y2724D01*
X25924Y2642D01*
X25978Y2572D01*
X26048Y2519D01*
X26129Y2485D01*
X26217Y2473D01*
X26239Y2476D01*
X26510Y2206D01*
X26490Y2059D01*
X26478Y2050D01*
X26424Y1980D01*
X26391Y1898D01*
X26379Y1811D01*
X26391Y1724D01*
X26424Y1642D01*
X26361Y1531D01*
X25631D01*
X25253Y1909D01*
Y2023D01*
X25448Y2219D01*
X25448Y2219D01*
X25483Y2271D01*
X25495Y2332D01*
Y2815D01*
X25495Y2815D01*
X25483Y2876D01*
X25448Y2928D01*
X25448Y2928D01*
X25039Y3338D01*
X24987Y3373D01*
X24925Y3385D01*
X24925Y3385D01*
X23244D01*
X23244Y3385D01*
X23183Y3373D01*
X23131Y3338D01*
X22926Y3134D01*
X22918Y3137D01*
X22831Y3149D01*
X22743Y3137D01*
X22662Y3103D01*
X22592Y3050D01*
X22538Y2980D01*
X22505Y2898D01*
X22493Y2811D01*
X22505Y2724D01*
X22538Y2642D01*
X22592Y2572D01*
X22662Y2519D01*
X22743Y2485D01*
X22831Y2473D01*
X22918Y2485D01*
X22999Y2519D01*
X23069Y2572D01*
X23123Y2642D01*
X23157Y2724D01*
X23168Y2811D01*
X23157Y2898D01*
X23153Y2907D01*
X23311Y3064D01*
X23454D01*
X23481Y3037D01*
X23524Y2946D01*
X23505Y2898D01*
X23493Y2811D01*
X23505Y2724D01*
X23538Y2642D01*
X23592Y2572D01*
X23662Y2519D01*
X23743Y2485D01*
X23831Y2473D01*
X23918Y2485D01*
X23999Y2519D01*
X24069Y2572D01*
X24123Y2642D01*
X24157Y2724D01*
X24168Y2811D01*
X24157Y2898D01*
X24137Y2946D01*
X24181Y3037D01*
X24207Y3064D01*
X24813D01*
X24860Y3008D01*
X24807Y2887D01*
X24784Y2884D01*
X24693Y2846D01*
X24615Y2786D01*
X24555Y2708D01*
X24518Y2617D01*
X24505Y2520D01*
X24507Y2501D01*
X24415Y2387D01*
X24408Y2385D01*
X24159D01*
X24159Y2385D01*
X24098Y2373D01*
X24046Y2338D01*
X23732Y2024D01*
X23718Y2018D01*
X23585Y2029D01*
X23569Y2050D01*
X23499Y2103D01*
X23418Y2137D01*
X23331Y2149D01*
X23243Y2137D01*
X23162Y2103D01*
X23092Y2050D01*
X23038Y1980D01*
X23005Y1898D01*
X22993Y1811D01*
X23005Y1724D01*
X23038Y1642D01*
X22975Y1531D01*
X21300D01*
X21237Y1642D01*
X21271Y1724D01*
X21275Y1752D01*
X20945D01*
Y1811D01*
X20886D01*
Y2141D01*
X20858Y2137D01*
X20776Y2103D01*
X20706Y2050D01*
X20653Y1980D01*
X20637Y1942D01*
X20625Y1944D01*
X20519Y1982D01*
X20507Y2044D01*
X20472Y2096D01*
X20472Y2096D01*
X19779Y2788D01*
X19782Y2811D01*
X19771Y2898D01*
X19737Y2980D01*
X19684Y3050D01*
X19614Y3103D01*
X19532Y3137D01*
X19460Y3147D01*
X19468Y3265D01*
X20352D01*
X20378Y3147D01*
X20358Y3137D01*
X20349Y3134D01*
X20276Y3103D01*
X20206Y3050D01*
X20153Y2980D01*
X20119Y2898D01*
X20107Y2811D01*
X20119Y2724D01*
X20153Y2642D01*
X20206Y2572D01*
X20276Y2519D01*
X20358Y2485D01*
X20445Y2473D01*
X20532Y2485D01*
X20614Y2519D01*
X20684Y2572D01*
X20737Y2642D01*
X20771Y2724D01*
X20782Y2811D01*
X20771Y2898D01*
X20737Y2980D01*
X20684Y3050D01*
X20614Y3103D01*
X20540Y3134D01*
X20532Y3137D01*
X20512Y3147D01*
X20538Y3265D01*
X21456D01*
X21456Y3265D01*
X21517Y3277D01*
X21569Y3312D01*
X22523Y4266D01*
X22523Y4266D01*
X22558Y4318D01*
X22570Y4379D01*
Y5592D01*
X22716Y5737D01*
X25898D01*
X25898Y5737D01*
X25959Y5749D01*
X26011Y5784D01*
X26611Y6384D01*
X26656Y6381D01*
X26738Y6318D01*
X26834Y6278D01*
X26937Y6264D01*
X27040Y6278D01*
X27136Y6318D01*
X27218Y6381D01*
X27281Y6463D01*
X27321Y6559D01*
X27334Y6661D01*
X27321Y6764D01*
X27281Y6860D01*
X27343Y6973D01*
X27531D01*
X27593Y6860D01*
X27553Y6764D01*
X27540Y6661D01*
X27553Y6559D01*
X27593Y6463D01*
X27656Y6381D01*
X27738Y6318D01*
X27834Y6278D01*
X27937Y6264D01*
X28040Y6278D01*
X28076Y6293D01*
X28577Y5792D01*
X28577Y5792D01*
X28629Y5757D01*
X28691Y5745D01*
X30918D01*
X31060Y5603D01*
Y4804D01*
X31060Y4804D01*
X31072Y4743D01*
X31107Y4691D01*
X31951Y3847D01*
X31951Y3847D01*
X32003Y3812D01*
X32064Y3800D01*
X32064Y3800D01*
X32548D01*
X32792Y3556D01*
Y3150D01*
X32792Y3150D01*
X32804Y3089D01*
X32839Y3036D01*
X33017Y2859D01*
X33017Y2859D01*
X33069Y2824D01*
X33078Y2822D01*
X33111Y2732D01*
X33105Y2687D01*
X33069Y2653D01*
X32872D01*
X32867Y2681D01*
X32840Y2722D01*
X32799Y2749D01*
X32751Y2758D01*
X32446D01*
X32398Y2749D01*
X32357Y2722D01*
X32330Y2681D01*
X32320Y2633D01*
Y2367D01*
X32328Y2328D01*
X32323Y2323D01*
Y2008D01*
X32328Y2003D01*
X32320Y1964D01*
Y1890D01*
X32876D01*
Y1964D01*
X32869Y2003D01*
X32874Y2008D01*
Y2292D01*
X33154D01*
X33161Y2287D01*
X33183Y2283D01*
Y2162D01*
X33161Y2158D01*
X33096Y2114D01*
X33053Y2049D01*
X33049Y2031D01*
X33425D01*
Y1972D01*
X33484D01*
Y1772D01*
X33612D01*
X33628Y1775D01*
X33686Y1666D01*
X33058Y1038D01*
X33040Y1045D01*
X32937Y1059D01*
X32834Y1045D01*
X32738Y1005D01*
X32656Y942D01*
X32593Y860D01*
X32553Y764D01*
X32540Y661D01*
X32553Y559D01*
X32593Y463D01*
X32656Y381D01*
X32738Y318D01*
X32834Y278D01*
X32937Y264D01*
X33040Y278D01*
X33136Y318D01*
X33218Y381D01*
X33281Y463D01*
X33321Y559D01*
X33334Y661D01*
X33321Y764D01*
X33313Y782D01*
X33909Y1378D01*
X35433D01*
Y120D01*
X31496D01*
X6576D01*
Y4331D01*
X6576Y4331D01*
X6570Y4361D01*
X6553Y4387D01*
X6553Y4387D01*
X5765Y5175D01*
X5739Y5192D01*
X5709Y5198D01*
X4776D01*
X4775Y5200D01*
X4724Y5317D01*
X4747Y5351D01*
X4764Y5437D01*
X4747Y5523D01*
X4698Y5596D01*
X4625Y5645D01*
X4539Y5662D01*
X4122D01*
X4036Y5645D01*
X3963Y5596D01*
X3951Y5578D01*
X3931Y5565D01*
X3733Y5366D01*
X3624Y5411D01*
Y5709D01*
X3617Y5739D01*
X3600Y5765D01*
X3574Y5783D01*
X3543Y5789D01*
X120D01*
X120Y5907D01*
Y8661D01*
X506D01*
D02*
G37*
G36*
X21432Y8661D02*
X21477Y8552D01*
X20526Y7602D01*
X19614D01*
X19346Y7870D01*
X19373Y7993D01*
X19461Y8025D01*
X19466Y8021D01*
X19468Y8020D01*
Y8386D01*
X19587D01*
Y8020D01*
X19589Y8021D01*
X19641Y8056D01*
X19670D01*
X19722Y8021D01*
X19724Y8020D01*
Y8386D01*
X19843D01*
Y8011D01*
X19882Y8012D01*
X19882Y8012D01*
X20197D01*
Y8578D01*
X20280Y8661D01*
X21432D01*
D02*
G37*
G36*
X8431Y8661D02*
X8432Y8654D01*
X8458Y8591D01*
X8499Y8538D01*
X8500Y8537D01*
Y8189D01*
X8189D01*
X8184Y8184D01*
X8145Y8191D01*
X8071D01*
Y7913D01*
X8012D01*
Y7854D01*
X7753D01*
Y7761D01*
X7763Y7713D01*
X7785Y7680D01*
X7775Y7638D01*
X7742Y7562D01*
X4476D01*
X4154Y7885D01*
X4156Y7909D01*
X4200Y8005D01*
X4242Y8013D01*
X4307Y8057D01*
X4351Y8122D01*
X4355Y8144D01*
X4476D01*
X4480Y8122D01*
X4523Y8057D01*
X4589Y8013D01*
X4665Y7998D01*
X4742Y8013D01*
X4807Y8057D01*
X4851Y8122D01*
X4855Y8144D01*
X4976D01*
X4980Y8122D01*
X5023Y8057D01*
X5089Y8013D01*
X5165Y7998D01*
X5242Y8013D01*
X5307Y8057D01*
X5351Y8122D01*
X5355Y8144D01*
X5476D01*
X5480Y8122D01*
X5523Y8057D01*
X5589Y8013D01*
X5606Y8010D01*
Y8386D01*
X5665D01*
Y8445D01*
X5866D01*
Y8543D01*
X5903Y8605D01*
X5969Y8661D01*
X8431D01*
D02*
G37*
G36*
X1888Y3740D02*
X1894Y3709D01*
X1912Y3683D01*
X1938Y3666D01*
X1969Y3660D01*
X2178D01*
X2190Y3542D01*
X2162Y3536D01*
X2121Y3509D01*
X2094Y3468D01*
X2084Y3420D01*
Y3155D01*
X2092Y3116D01*
X2087Y3110D01*
Y2795D01*
X2092Y2790D01*
X2084Y2751D01*
Y2677D01*
X2640D01*
Y2751D01*
X2632Y2790D01*
X2638Y2795D01*
Y3110D01*
X2733Y3166D01*
X2782D01*
X2840Y3069D01*
X2843Y3031D01*
Y3031D01*
X3498D01*
X3523Y3051D01*
X3590Y3055D01*
X3612Y3022D01*
X3790Y2845D01*
X3835Y2814D01*
X3853Y2785D01*
X3880Y2679D01*
X3878Y2675D01*
X3862Y2598D01*
X3878Y2522D01*
X3921Y2456D01*
X3986Y2413D01*
X4000Y2410D01*
Y2078D01*
X3963Y2053D01*
X3914Y1980D01*
X3897Y1894D01*
X3914Y1808D01*
X3933Y1741D01*
X3880Y1667D01*
X3874Y1658D01*
X3868Y1650D01*
X3866Y1645D01*
X3863Y1641D01*
X3861Y1631D01*
X3857Y1621D01*
X3858Y1615D01*
X3857Y1610D01*
Y120D01*
X3624D01*
Y2165D01*
X3617Y2196D01*
X3600Y2222D01*
X3574Y2240D01*
X3543Y2246D01*
X2546D01*
X2535Y2364D01*
X2563Y2369D01*
X2603Y2397D01*
X2631Y2437D01*
X2640Y2485D01*
Y2559D01*
X2084D01*
Y2485D01*
X2094Y2437D01*
X2121Y2397D01*
X2162Y2369D01*
X2190Y2364D01*
X2178Y2246D01*
X1969D01*
X1938Y2240D01*
X1912Y2222D01*
X1894Y2196D01*
X1888Y2165D01*
Y1458D01*
X204D01*
X120Y1542D01*
Y4171D01*
X204Y4250D01*
X1888D01*
Y3740D01*
D02*
G37*
G36*
X39250Y18370D02*
X37306D01*
Y16868D01*
X37195Y16850D01*
Y16850D01*
X36388D01*
Y16453D01*
X36394D01*
Y16301D01*
X36372Y16286D01*
X36345Y16247D01*
X36336Y16201D01*
Y15886D01*
X36345Y15840D01*
X36372Y15801D01*
X36411Y15775D01*
X36457Y15765D01*
X36693D01*
X36739Y15775D01*
X36778Y15801D01*
X36804Y15840D01*
X36809Y15863D01*
X36969D01*
Y15591D01*
X36974Y15585D01*
X36966Y15546D01*
Y15281D01*
X36976Y15233D01*
X37003Y15192D01*
X37044Y15165D01*
X37063Y15161D01*
Y14567D01*
X37077Y14498D01*
X37116Y14439D01*
X37412Y14144D01*
X37470Y14105D01*
X37539Y14091D01*
X37695D01*
X37726Y14039D01*
X37744Y13973D01*
X37703Y13911D01*
X37685Y13819D01*
X37703Y13727D01*
X37755Y13649D01*
X37784Y13629D01*
X37790Y13494D01*
X37765Y13477D01*
X37713Y13399D01*
X37695Y13307D01*
X37713Y13215D01*
X37765Y13137D01*
X37843Y13085D01*
X37935Y13066D01*
X38028Y13085D01*
X38032Y13088D01*
X38053Y13086D01*
X38150Y13024D01*
Y12832D01*
X37809D01*
X37740Y12818D01*
X37681Y12779D01*
X37405Y12503D01*
X36413D01*
X36269Y12647D01*
X36211Y12687D01*
X36142Y12700D01*
X34409D01*
X34340Y12687D01*
X34282Y12647D01*
X34138Y12503D01*
X33140D01*
X33035Y12579D01*
Y12973D01*
X33021Y13042D01*
X32982Y13101D01*
X32766Y13317D01*
X32708Y13356D01*
X32639Y13370D01*
X31144D01*
Y13420D01*
X31135Y13468D01*
X31118Y13493D01*
X31107Y13513D01*
Y13613D01*
X31118Y13633D01*
X31135Y13658D01*
X31144Y13706D01*
Y14011D01*
X31135Y14059D01*
X31107Y14100D01*
X31067Y14127D01*
X31019Y14136D01*
X30753D01*
X30714Y14129D01*
X30709Y14134D01*
X30394D01*
X30388Y14129D01*
X30349Y14136D01*
X30084D01*
X30036Y14127D01*
X29995Y14100D01*
X29968Y14059D01*
X29958Y14011D01*
Y13706D01*
X29968Y13658D01*
X29984Y13633D01*
X29995Y13613D01*
Y13513D01*
X29984Y13493D01*
X29968Y13468D01*
X29958Y13420D01*
Y13115D01*
X29968Y13067D01*
X29995Y13026D01*
X30013Y13015D01*
X30031Y12914D01*
X30029Y12884D01*
X29314Y12169D01*
X25313D01*
X25177Y12305D01*
X25246Y12374D01*
X25285Y12432D01*
X25299Y12502D01*
Y12997D01*
X25285Y13066D01*
X25246Y13125D01*
X25091Y13279D01*
X25033Y13318D01*
X24963Y13332D01*
X23349D01*
Y13420D01*
X23339Y13468D01*
X23323Y13493D01*
X23312Y13513D01*
Y13613D01*
X23323Y13633D01*
X23339Y13658D01*
X23349Y13706D01*
Y14011D01*
X23339Y14059D01*
X23312Y14100D01*
X23271Y14127D01*
X23223Y14136D01*
X22958D01*
X22919Y14129D01*
X22913Y14134D01*
X22598D01*
X22593Y14129D01*
X22554Y14136D01*
X22288D01*
X22240Y14127D01*
X22200Y14100D01*
X22172Y14059D01*
X22163Y14011D01*
Y13706D01*
X22172Y13658D01*
X22189Y13633D01*
X22200Y13613D01*
Y13513D01*
X22189Y13493D01*
X22172Y13468D01*
X22163Y13420D01*
Y13115D01*
X22172Y13067D01*
X22200Y13026D01*
X22240Y12999D01*
X22288Y12990D01*
X22392D01*
X22453Y12872D01*
X22426Y12832D01*
X22296D01*
X22227Y12818D01*
X22169Y12779D01*
X21676Y12287D01*
X17505D01*
X17483Y12305D01*
X17422Y12405D01*
X17427Y12431D01*
Y12956D01*
X17413Y13025D01*
X17374Y13083D01*
X17178Y13279D01*
X17119Y13318D01*
X17050Y13332D01*
X15585D01*
X15514Y13403D01*
Y13460D01*
X15505Y13508D01*
X15488Y13532D01*
X15477Y13553D01*
Y13652D01*
X15488Y13672D01*
X15505Y13697D01*
X15514Y13745D01*
Y14050D01*
X15505Y14098D01*
X15477Y14139D01*
X15437Y14166D01*
X15389Y14176D01*
X15123D01*
X15084Y14168D01*
X15079Y14173D01*
X14764D01*
X14758Y14168D01*
X14719Y14176D01*
X14454D01*
X14406Y14166D01*
X14365Y14139D01*
X14338Y14098D01*
X14328Y14050D01*
Y13745D01*
X14338Y13697D01*
X14354Y13672D01*
X14365Y13652D01*
Y13553D01*
X14354Y13532D01*
X14338Y13508D01*
X14328Y13460D01*
Y13155D01*
X14338Y13107D01*
X14365Y13066D01*
X14406Y13039D01*
X14454Y13029D01*
X14654D01*
X14703Y12911D01*
X14624Y12832D01*
X14344D01*
X14275Y12818D01*
X14216Y12779D01*
X13605Y12169D01*
X10370D01*
X10088Y12451D01*
X10030Y12490D01*
X9961Y12503D01*
X9689D01*
X9625Y12598D01*
X9620Y12622D01*
X9631Y12678D01*
Y12956D01*
X9618Y13025D01*
X9579Y13083D01*
X9382Y13279D01*
X9324Y13318D01*
X9255Y13332D01*
X7848D01*
X7798Y13383D01*
Y13460D01*
X7788Y13508D01*
X7761Y13548D01*
X7749Y13556D01*
X7741Y13586D01*
Y13658D01*
X7749Y13688D01*
X7761Y13696D01*
X7788Y13736D01*
X7798Y13784D01*
Y14090D01*
X7788Y14138D01*
X7761Y14178D01*
X7720Y14205D01*
X7672Y14215D01*
X7406D01*
X7368Y14207D01*
X7362Y14213D01*
X7047D01*
X7042Y14207D01*
X7003Y14215D01*
X6737D01*
X6689Y14205D01*
X6649Y14178D01*
X6621Y14138D01*
X6612Y14090D01*
Y13838D01*
X6608Y13817D01*
X6612Y13796D01*
Y13784D01*
X6621Y13736D01*
X6625Y13732D01*
X6626Y13725D01*
X6654Y13683D01*
X6656Y13678D01*
X6649Y13548D01*
X6621Y13508D01*
X6612Y13460D01*
Y13378D01*
X6600Y13317D01*
X6612Y13256D01*
Y13155D01*
X6621Y13107D01*
X6649Y13066D01*
X6689Y13039D01*
X6737Y13029D01*
X6977D01*
X7017Y12966D01*
X7028Y12914D01*
X6947Y12832D01*
X6589D01*
X6519Y12818D01*
X6461Y12779D01*
X5870Y12189D01*
X1794D01*
X1698Y12305D01*
X1679Y12397D01*
X1627Y12475D01*
X1549Y12527D01*
X1531Y12531D01*
X1508Y12597D01*
X1499Y12658D01*
X1543Y12725D01*
X1562Y12817D01*
X1543Y12909D01*
X1491Y12987D01*
X1413Y13039D01*
X1321Y13058D01*
X1229Y13039D01*
X1151Y12987D01*
X1144Y12977D01*
X941D01*
X938Y12996D01*
X911Y13037D01*
X870Y13064D01*
X822Y13073D01*
X517D01*
X469Y13064D01*
X428Y13037D01*
X401Y12996D01*
X391Y12948D01*
Y12682D01*
X399Y12643D01*
X394Y12638D01*
Y12323D01*
X399Y12317D01*
X391Y12279D01*
Y12013D01*
X401Y11965D01*
X428Y11924D01*
X446Y11912D01*
X429Y11800D01*
X427Y11794D01*
X204D01*
X120Y11877D01*
Y13671D01*
X231Y13698D01*
X239Y13697D01*
X287Y13634D01*
X353Y13583D01*
X430Y13551D01*
X512Y13541D01*
X1614D01*
X1696Y13551D01*
X1773Y13583D01*
X1839Y13634D01*
X1889Y13699D01*
X1921Y13776D01*
X1932Y13858D01*
Y14331D01*
X1921Y14413D01*
X1889Y14490D01*
X1839Y14555D01*
X1773Y14606D01*
X1696Y14638D01*
X1614Y14648D01*
X512D01*
X430Y14638D01*
X353Y14606D01*
X287Y14555D01*
X239Y14492D01*
X231Y14491D01*
X120Y14517D01*
X120Y19565D01*
X39250D01*
Y18370D01*
D02*
G37*
G36*
X17064Y8394D02*
Y8169D01*
X17076Y8108D01*
X17111Y8056D01*
X17163Y8021D01*
X17165Y8020D01*
Y8386D01*
X17283D01*
Y8020D01*
X17286Y8021D01*
X17292Y8025D01*
X17380Y7993D01*
X17407Y7870D01*
X17099Y7562D01*
X13060D01*
X13034Y7590D01*
X12983Y7680D01*
X12992Y7726D01*
Y7854D01*
X12791D01*
Y7972D01*
X12992D01*
Y8100D01*
X12991Y8107D01*
X13076Y8225D01*
X16674D01*
X16674Y8225D01*
X16735Y8237D01*
X16787Y8272D01*
X16955Y8440D01*
X17064Y8394D01*
D02*
G37*
G36*
X3543Y120D02*
X204D01*
X120Y204D01*
Y1378D01*
X1969D01*
Y2165D01*
X3543D01*
Y120D01*
D02*
G37*
%LPC*%
G36*
X14114Y2141D02*
X14086Y2137D01*
X14004Y2103D01*
X13935Y2050D01*
X13881Y1980D01*
X13847Y1898D01*
X13843Y1870D01*
X14114D01*
Y2141D01*
D02*
G37*
G36*
X10728D02*
X10700Y2137D01*
X10619Y2103D01*
X10549Y2050D01*
X10495Y1980D01*
X10461Y1898D01*
X10458Y1870D01*
X10728D01*
Y2141D01*
D02*
G37*
G36*
X10846D02*
Y1870D01*
X11117D01*
X11113Y1898D01*
X11080Y1980D01*
X11026Y2050D01*
X10956Y2103D01*
X10875Y2137D01*
X10846Y2141D01*
D02*
G37*
G36*
X29602Y3149D02*
X29515Y3137D01*
X29434Y3103D01*
X29364Y3050D01*
X29310Y2980D01*
X29276Y2898D01*
X29265Y2811D01*
X29276Y2724D01*
X29310Y2642D01*
X29364Y2572D01*
X29434Y2519D01*
X29515Y2485D01*
X29602Y2473D01*
X29690Y2485D01*
X29758Y2513D01*
X30015Y2256D01*
X30015Y2218D01*
X29981Y2123D01*
X29934Y2103D01*
X29864Y2050D01*
X29810Y1980D01*
X29776Y1898D01*
X29765Y1811D01*
X29776Y1724D01*
X29810Y1642D01*
X29864Y1572D01*
X29934Y1519D01*
X30015Y1485D01*
X30102Y1473D01*
X30190Y1485D01*
X30198Y1488D01*
X30662Y1025D01*
X30656Y942D01*
X30593Y860D01*
X30553Y764D01*
X30540Y661D01*
X30553Y559D01*
X30593Y463D01*
X30656Y381D01*
X30738Y318D01*
X30834Y278D01*
X30937Y264D01*
X31040Y278D01*
X31136Y318D01*
X31218Y381D01*
X31281Y463D01*
X31321Y559D01*
X31327Y608D01*
X31450Y652D01*
X31554Y548D01*
X31554Y548D01*
X31559Y544D01*
X31593Y463D01*
X31656Y381D01*
X31738Y318D01*
X31834Y278D01*
X31937Y264D01*
X32040Y278D01*
X32136Y318D01*
X32218Y381D01*
X32281Y463D01*
X32321Y559D01*
X32334Y661D01*
X32321Y764D01*
X32281Y860D01*
X32218Y942D01*
X32136Y1005D01*
X32040Y1045D01*
X31937Y1059D01*
X31834Y1045D01*
X31738Y1005D01*
X31656Y942D01*
X31616Y940D01*
X31190Y1366D01*
X31190Y1404D01*
X31224Y1499D01*
X31271Y1519D01*
X31341Y1572D01*
X31395Y1642D01*
X31428Y1724D01*
X31432Y1752D01*
X31102D01*
Y1811D01*
X31043D01*
Y2141D01*
X31015Y2137D01*
X30934Y2103D01*
X30864Y2050D01*
X30810Y1980D01*
X30794Y1942D01*
X30782Y1944D01*
X30676Y1982D01*
X30664Y2044D01*
X30629Y2096D01*
X30629Y2096D01*
X29937Y2788D01*
X29940Y2811D01*
X29928Y2898D01*
X29895Y2980D01*
X29841Y3050D01*
X29771Y3103D01*
X29690Y3137D01*
X29602Y3149D01*
D02*
G37*
G36*
X14232Y2141D02*
Y1870D01*
X14503D01*
X14499Y1898D01*
X14466Y1980D01*
X14412Y2050D01*
X14342Y2103D01*
X14261Y2137D01*
X14232Y2141D01*
D02*
G37*
G36*
X28268Y2897D02*
X28170Y2884D01*
X28079Y2846D01*
X28001Y2786D01*
X27941Y2708D01*
X27903Y2617D01*
X27890Y2520D01*
X27903Y2422D01*
X27941Y2331D01*
X28001Y2253D01*
X28079Y2193D01*
X28170Y2155D01*
X28268Y2142D01*
X28365Y2155D01*
X28456Y2193D01*
X28534Y2253D01*
X28594Y2331D01*
X28632Y2422D01*
X28645Y2520D01*
X28632Y2617D01*
X28594Y2708D01*
X28534Y2786D01*
X28456Y2846D01*
X28365Y2884D01*
X28268Y2897D01*
D02*
G37*
G36*
X31654D02*
X31556Y2884D01*
X31465Y2846D01*
X31387Y2786D01*
X31327Y2708D01*
X31289Y2617D01*
X31276Y2520D01*
X31289Y2422D01*
X31327Y2331D01*
X31387Y2253D01*
X31465Y2193D01*
X31556Y2155D01*
X31654Y2142D01*
X31751Y2155D01*
X31842Y2193D01*
X31920Y2253D01*
X31980Y2331D01*
X32018Y2422D01*
X32031Y2520D01*
X32018Y2617D01*
X31980Y2708D01*
X31920Y2786D01*
X31842Y2846D01*
X31751Y2884D01*
X31654Y2897D01*
D02*
G37*
G36*
X21496D02*
X21398Y2884D01*
X21307Y2846D01*
X21229Y2786D01*
X21169Y2708D01*
X21132Y2617D01*
X21119Y2520D01*
X21132Y2422D01*
X21169Y2331D01*
X21229Y2253D01*
X21307Y2193D01*
X21398Y2155D01*
X21496Y2142D01*
X21594Y2155D01*
X21685Y2193D01*
X21763Y2253D01*
X21823Y2331D01*
X21860Y2422D01*
X21873Y2520D01*
X21860Y2617D01*
X21823Y2708D01*
X21763Y2786D01*
X21685Y2846D01*
X21594Y2884D01*
X21496Y2897D01*
D02*
G37*
G36*
X17500Y2141D02*
X17472Y2137D01*
X17390Y2103D01*
X17320Y2050D01*
X17267Y1980D01*
X17233Y1898D01*
X17229Y1870D01*
X17500D01*
Y2141D01*
D02*
G37*
G36*
X17618D02*
Y1870D01*
X17889D01*
X17885Y1898D01*
X17851Y1980D01*
X17798Y2050D01*
X17728Y2103D01*
X17646Y2137D01*
X17618Y2141D01*
D02*
G37*
G36*
X9787Y2149D02*
X9700Y2137D01*
X9619Y2103D01*
X9549Y2050D01*
X9495Y1980D01*
X9461Y1898D01*
X9450Y1811D01*
X9461Y1724D01*
X9495Y1642D01*
X9549Y1572D01*
X9619Y1519D01*
X9700Y1485D01*
X9787Y1473D01*
X9875Y1485D01*
X9956Y1519D01*
X10026Y1572D01*
X10080Y1642D01*
X10113Y1724D01*
X10125Y1811D01*
X10113Y1898D01*
X10080Y1980D01*
X10026Y2050D01*
X9956Y2103D01*
X9875Y2137D01*
X9787Y2149D01*
D02*
G37*
G36*
X14503Y1752D02*
X14232D01*
Y1481D01*
X14261Y1485D01*
X14342Y1519D01*
X14412Y1572D01*
X14466Y1642D01*
X14499Y1724D01*
X14503Y1752D01*
D02*
G37*
G36*
X32539Y1772D02*
X32320D01*
Y1698D01*
X32330Y1650D01*
X32357Y1609D01*
X32398Y1582D01*
X32446Y1572D01*
X32539D01*
Y1772D01*
D02*
G37*
G36*
X10728Y1752D02*
X10458D01*
X10461Y1724D01*
X10495Y1642D01*
X10549Y1572D01*
X10619Y1519D01*
X10700Y1485D01*
X10728Y1481D01*
Y1752D01*
D02*
G37*
G36*
X11117D02*
X10846D01*
Y1481D01*
X10875Y1485D01*
X10956Y1519D01*
X11026Y1572D01*
X11080Y1642D01*
X11113Y1724D01*
X11117Y1752D01*
D02*
G37*
G36*
X14114D02*
X13843D01*
X13847Y1724D01*
X13881Y1642D01*
X13935Y1572D01*
X14004Y1519D01*
X14086Y1485D01*
X14114Y1481D01*
Y1752D01*
D02*
G37*
G36*
X27776Y2141D02*
Y1870D01*
X28046D01*
X28043Y1898D01*
X28009Y1980D01*
X27955Y2050D01*
X27885Y2103D01*
X27804Y2137D01*
X27776Y2141D01*
D02*
G37*
G36*
X33937Y1059D02*
X33834Y1045D01*
X33738Y1005D01*
X33656Y942D01*
X33593Y860D01*
X33553Y764D01*
X33540Y661D01*
X33553Y559D01*
X33593Y463D01*
X33656Y381D01*
X33738Y318D01*
X33834Y278D01*
X33937Y264D01*
X34040Y278D01*
X34136Y318D01*
X34218Y381D01*
X34281Y463D01*
X34321Y559D01*
X34334Y661D01*
X34321Y764D01*
X34281Y860D01*
X34218Y942D01*
X34136Y1005D01*
X34040Y1045D01*
X33937Y1059D01*
D02*
G37*
G36*
X31161Y2141D02*
Y1870D01*
X31432D01*
X31428Y1898D01*
X31395Y1980D01*
X31341Y2050D01*
X31271Y2103D01*
X31190Y2137D01*
X31161Y2141D01*
D02*
G37*
G36*
X32876Y1772D02*
X32657D01*
Y1572D01*
X32751D01*
X32799Y1582D01*
X32840Y1609D01*
X32867Y1650D01*
X32876Y1698D01*
Y1772D01*
D02*
G37*
G36*
X33366Y1913D02*
X33049D01*
X33053Y1896D01*
X33096Y1831D01*
X33161Y1787D01*
X33238Y1772D01*
X33366D01*
Y1913D01*
D02*
G37*
G36*
X21004Y2141D02*
Y1870D01*
X21275D01*
X21271Y1898D01*
X21237Y1980D01*
X21184Y2050D01*
X21114Y2103D01*
X21032Y2137D01*
X21004Y2141D01*
D02*
G37*
G36*
X11339Y2897D02*
X11241Y2884D01*
X11150Y2846D01*
X11072Y2786D01*
X11012Y2708D01*
X10974Y2617D01*
X10961Y2520D01*
X10974Y2422D01*
X11012Y2331D01*
X11072Y2253D01*
X11150Y2193D01*
X11241Y2155D01*
X11339Y2142D01*
X11436Y2155D01*
X11527Y2193D01*
X11605Y2253D01*
X11665Y2331D01*
X11703Y2422D01*
X11716Y2520D01*
X11703Y2617D01*
X11665Y2708D01*
X11605Y2786D01*
X11527Y2846D01*
X11436Y2884D01*
X11339Y2897D01*
D02*
G37*
G36*
X29055Y7854D02*
X28913D01*
Y7537D01*
X28931Y7541D01*
X28996Y7584D01*
X29040Y7650D01*
X29055Y7726D01*
Y7854D01*
D02*
G37*
G36*
X28913Y8289D02*
Y7972D01*
X29055D01*
Y8100D01*
X29040Y8177D01*
X28996Y8242D01*
X28931Y8286D01*
X28913Y8289D01*
D02*
G37*
G36*
X7953Y8191D02*
X7879D01*
X7831Y8182D01*
X7790Y8155D01*
X7763Y8114D01*
X7753Y8066D01*
Y7972D01*
X7953D01*
Y8191D01*
D02*
G37*
G36*
X32539Y4961D02*
X32320D01*
Y4887D01*
X32330Y4839D01*
X32357Y4798D01*
X32398Y4771D01*
X32446Y4761D01*
X32539D01*
Y4961D01*
D02*
G37*
G36*
X32876D02*
X32657D01*
Y4761D01*
X32751D01*
X32799Y4771D01*
X32840Y4798D01*
X32867Y4839D01*
X32876Y4887D01*
Y4961D01*
D02*
G37*
G36*
X1181Y7562D02*
X1050Y7549D01*
X924Y7511D01*
X807Y7449D01*
X706Y7365D01*
X622Y7263D01*
X560Y7147D01*
X521Y7021D01*
X509Y6890D01*
X521Y6759D01*
X560Y6632D01*
X622Y6516D01*
X706Y6414D01*
X807Y6331D01*
X924Y6268D01*
X1050Y6230D01*
X1181Y6217D01*
X1312Y6230D01*
X1438Y6268D01*
X1555Y6331D01*
X1657Y6414D01*
X1740Y6516D01*
X1802Y6632D01*
X1841Y6759D01*
X1854Y6890D01*
X1841Y7021D01*
X1802Y7147D01*
X1740Y7263D01*
X1657Y7365D01*
X1555Y7449D01*
X1438Y7511D01*
X1312Y7549D01*
X1181Y7562D01*
D02*
G37*
G36*
X17165Y14648D02*
X16063D01*
X15981Y14638D01*
X15904Y14606D01*
X15838Y14555D01*
X15788Y14490D01*
X15756Y14413D01*
X15745Y14331D01*
Y13858D01*
X15756Y13776D01*
X15788Y13699D01*
X15838Y13634D01*
X15904Y13583D01*
X15981Y13551D01*
X16063Y13541D01*
X17165D01*
X17248Y13551D01*
X17324Y13583D01*
X17390Y13634D01*
X17440Y13699D01*
X17472Y13776D01*
X17483Y13858D01*
Y14331D01*
X17472Y14413D01*
X17440Y14490D01*
X17390Y14555D01*
X17324Y14606D01*
X17248Y14638D01*
X17165Y14648D01*
D02*
G37*
G36*
X24961D02*
X23858D01*
X23776Y14638D01*
X23699Y14606D01*
X23634Y14555D01*
X23583Y14490D01*
X23551Y14413D01*
X23541Y14331D01*
Y13858D01*
X23551Y13776D01*
X23583Y13699D01*
X23634Y13634D01*
X23699Y13583D01*
X23776Y13551D01*
X23858Y13541D01*
X24961D01*
X25043Y13551D01*
X25119Y13583D01*
X25185Y13634D01*
X25236Y13699D01*
X25267Y13776D01*
X25278Y13858D01*
Y14331D01*
X25267Y14413D01*
X25236Y14490D01*
X25185Y14555D01*
X25119Y14606D01*
X25043Y14638D01*
X24961Y14648D01*
D02*
G37*
G36*
X32874D02*
X31772D01*
X31689Y14638D01*
X31613Y14606D01*
X31547Y14555D01*
X31497Y14490D01*
X31465Y14413D01*
X31454Y14331D01*
Y13858D01*
X31465Y13776D01*
X31497Y13699D01*
X31547Y13634D01*
X31613Y13583D01*
X31689Y13551D01*
X31772Y13541D01*
X32874D01*
X32956Y13551D01*
X33033Y13583D01*
X33099Y13634D01*
X33149Y13699D01*
X33181Y13776D01*
X33192Y13858D01*
Y14331D01*
X33181Y14413D01*
X33149Y14490D01*
X33099Y14555D01*
X33033Y14606D01*
X32956Y14638D01*
X32874Y14648D01*
D02*
G37*
G36*
X5866Y8327D02*
X5724D01*
Y8010D01*
X5742Y8013D01*
X5807Y8057D01*
X5851Y8122D01*
X5866Y8199D01*
Y8327D01*
D02*
G37*
G36*
X787Y8327D02*
X588D01*
Y8233D01*
X598Y8185D01*
X625Y8145D01*
X666Y8117D01*
X714Y8108D01*
X787D01*
Y8327D01*
D02*
G37*
G36*
X9409Y14648D02*
X8307D01*
X8225Y14638D01*
X8148Y14606D01*
X8082Y14555D01*
X8032Y14490D01*
X8000Y14413D01*
X7989Y14331D01*
Y13858D01*
X8000Y13776D01*
X8032Y13699D01*
X8082Y13634D01*
X8148Y13583D01*
X8225Y13551D01*
X8307Y13541D01*
X9409D01*
X9492Y13551D01*
X9568Y13583D01*
X9634Y13634D01*
X9685Y13699D01*
X9716Y13776D01*
X9727Y13858D01*
Y14331D01*
X9716Y14413D01*
X9685Y14490D01*
X9634Y14555D01*
X9568Y14606D01*
X9492Y14638D01*
X9409Y14648D01*
D02*
G37*
G36*
X3457Y2539D02*
X3209D01*
Y2398D01*
X3268D01*
X3345Y2413D01*
X3410Y2456D01*
X3453Y2522D01*
X3457Y2539D01*
D02*
G37*
G36*
X27217Y3149D02*
X27129Y3137D01*
X27048Y3103D01*
X26978Y3050D01*
X26924Y2980D01*
X26890Y2898D01*
X26879Y2811D01*
X26890Y2724D01*
X26924Y2642D01*
X26978Y2572D01*
X27048Y2519D01*
X27129Y2485D01*
X27217Y2473D01*
X27304Y2485D01*
X27385Y2519D01*
X27455Y2572D01*
X27509Y2642D01*
X27543Y2724D01*
X27554Y2811D01*
X27543Y2898D01*
X27509Y2980D01*
X27455Y3050D01*
X27385Y3103D01*
X27304Y3137D01*
X27217Y3149D01*
D02*
G37*
G36*
X30602D02*
X30515Y3137D01*
X30434Y3103D01*
X30364Y3050D01*
X30310Y2980D01*
X30276Y2898D01*
X30265Y2811D01*
X30276Y2724D01*
X30310Y2642D01*
X30364Y2572D01*
X30434Y2519D01*
X30515Y2485D01*
X30602Y2473D01*
X30690Y2485D01*
X30771Y2519D01*
X30841Y2572D01*
X30895Y2642D01*
X30928Y2724D01*
X30940Y2811D01*
X30928Y2898D01*
X30895Y2980D01*
X30841Y3050D01*
X30771Y3103D01*
X30690Y3137D01*
X30602Y3149D01*
D02*
G37*
G36*
X14724Y2897D02*
X14627Y2884D01*
X14536Y2846D01*
X14458Y2786D01*
X14398Y2708D01*
X14360Y2617D01*
X14347Y2520D01*
X14360Y2422D01*
X14398Y2331D01*
X14458Y2253D01*
X14536Y2193D01*
X14627Y2155D01*
X14724Y2142D01*
X14822Y2155D01*
X14913Y2193D01*
X14991Y2253D01*
X15051Y2331D01*
X15089Y2422D01*
X15102Y2520D01*
X15089Y2617D01*
X15051Y2708D01*
X14991Y2786D01*
X14913Y2846D01*
X14822Y2884D01*
X14724Y2897D01*
D02*
G37*
G36*
X18110D02*
X18013Y2884D01*
X17922Y2846D01*
X17843Y2786D01*
X17784Y2708D01*
X17746Y2617D01*
X17733Y2520D01*
X17746Y2422D01*
X17784Y2331D01*
X17843Y2253D01*
X17922Y2193D01*
X18013Y2155D01*
X18110Y2142D01*
X18208Y2155D01*
X18299Y2193D01*
X18377Y2253D01*
X18437Y2331D01*
X18475Y2422D01*
X18487Y2520D01*
X18475Y2617D01*
X18437Y2708D01*
X18377Y2786D01*
X18299Y2846D01*
X18208Y2884D01*
X18110Y2897D01*
D02*
G37*
G36*
X3091Y2539D02*
X2843D01*
X2846Y2522D01*
X2890Y2456D01*
X2955Y2413D01*
X3031Y2398D01*
X3091D01*
Y2539D01*
D02*
G37*
G36*
X12614Y3141D02*
X12586Y3137D01*
X12504Y3103D01*
X12435Y3050D01*
X12381Y2980D01*
X12347Y2898D01*
X12343Y2870D01*
X12614D01*
Y3141D01*
D02*
G37*
G36*
X8661Y5397D02*
X8530Y5384D01*
X8404Y5346D01*
X8288Y5284D01*
X8186Y5200D01*
X8102Y5098D01*
X8040Y4982D01*
X8002Y4856D01*
X7989Y4724D01*
X8002Y4593D01*
X8040Y4467D01*
X8102Y4351D01*
X8186Y4249D01*
X8288Y4165D01*
X8404Y4103D01*
X8530Y4065D01*
X8661Y4052D01*
X8793Y4065D01*
X8919Y4103D01*
X9035Y4165D01*
X9137Y4249D01*
X9221Y4351D01*
X9283Y4467D01*
X9321Y4593D01*
X9334Y4724D01*
X9321Y4856D01*
X9283Y4982D01*
X9221Y5098D01*
X9137Y5200D01*
X9035Y5284D01*
X8919Y5346D01*
X8793Y5384D01*
X8661Y5397D01*
D02*
G37*
G36*
X27559D02*
X27428Y5384D01*
X27302Y5346D01*
X27185Y5284D01*
X27084Y5200D01*
X27000Y5098D01*
X26938Y4982D01*
X26899Y4856D01*
X26887Y4724D01*
X26899Y4593D01*
X26938Y4467D01*
X27000Y4351D01*
X27084Y4249D01*
X27185Y4165D01*
X27302Y4103D01*
X27428Y4065D01*
X27559Y4052D01*
X27690Y4065D01*
X27816Y4103D01*
X27933Y4165D01*
X28035Y4249D01*
X28118Y4351D01*
X28180Y4467D01*
X28219Y4593D01*
X28232Y4724D01*
X28219Y4856D01*
X28180Y4982D01*
X28118Y5098D01*
X28035Y5200D01*
X27933Y5284D01*
X27816Y5346D01*
X27690Y5384D01*
X27559Y5397D01*
D02*
G37*
G36*
X9287Y3149D02*
X9200Y3137D01*
X9119Y3103D01*
X9049Y3050D01*
X8995Y2980D01*
X8961Y2898D01*
X8950Y2811D01*
X8961Y2724D01*
X8995Y2642D01*
X9049Y2572D01*
X9119Y2519D01*
X9200Y2485D01*
X9287Y2473D01*
X9375Y2485D01*
X9456Y2519D01*
X9526Y2572D01*
X9580Y2642D01*
X9613Y2724D01*
X9625Y2811D01*
X9613Y2898D01*
X9580Y2980D01*
X9526Y3050D01*
X9456Y3103D01*
X9375Y3137D01*
X9287Y3149D01*
D02*
G37*
G36*
X12614Y2752D02*
X12343D01*
X12347Y2724D01*
X12381Y2642D01*
X12435Y2572D01*
X12504Y2519D01*
X12586Y2485D01*
X12614Y2481D01*
Y2752D01*
D02*
G37*
G36*
X3457Y2913D02*
X2843D01*
X2846Y2896D01*
X2890Y2831D01*
X2890Y2740D01*
X2871Y2712D01*
X2846Y2675D01*
X2843Y2657D01*
X3457D01*
X3453Y2675D01*
X3410Y2740D01*
X3410Y2831D01*
X3429Y2859D01*
X3453Y2896D01*
X3457Y2913D01*
D02*
G37*
%LPD*%
D10*
X32323Y14094D02*
D03*
Y16063D02*
D03*
X16614Y14094D02*
D03*
Y16063D02*
D03*
X8858Y14094D02*
D03*
Y16063D02*
D03*
X1063Y14094D02*
D03*
Y16063D02*
D03*
X24409Y14094D02*
D03*
Y16063D02*
D03*
D11*
X4921Y3287D02*
D03*
Y2618D02*
D03*
X2362Y3287D02*
D03*
Y2618D02*
D03*
X36417Y2539D02*
D03*
Y1870D02*
D03*
Y5571D02*
D03*
Y4902D02*
D03*
X32598Y1831D02*
D03*
Y2500D02*
D03*
X32598Y5689D02*
D03*
Y5020D02*
D03*
X38976Y13248D02*
D03*
Y12579D02*
D03*
X24764Y10295D02*
D03*
Y9626D02*
D03*
X8701Y10177D02*
D03*
Y9508D02*
D03*
X1575Y10610D02*
D03*
Y9941D02*
D03*
X37244Y15413D02*
D03*
Y16083D02*
D03*
X38425Y11358D02*
D03*
Y12028D02*
D03*
X38425Y12579D02*
D03*
Y13248D02*
D03*
X669Y12146D02*
D03*
Y12815D02*
D03*
D12*
X4181Y2598D02*
D03*
Y2972D02*
D03*
Y3346D02*
D03*
X3150Y2598D02*
D03*
Y2972D02*
D03*
D13*
Y3346D02*
D03*
D14*
X4331Y3937D02*
D03*
Y394D02*
D03*
D15*
Y4437D02*
D03*
Y4937D02*
D03*
Y5437D02*
D03*
X2488Y3937D02*
D03*
Y4437D02*
D03*
Y4937D02*
D03*
Y5437D02*
D03*
X4331Y894D02*
D03*
Y1394D02*
D03*
Y1894D02*
D03*
X2488Y394D02*
D03*
Y894D02*
D03*
Y1394D02*
D03*
Y1894D02*
D03*
D16*
X15256Y13898D02*
D03*
X14587D02*
D03*
X20020Y5276D02*
D03*
X19350D02*
D03*
X30886Y13858D02*
D03*
X30217D02*
D03*
X23091D02*
D03*
X22421D02*
D03*
X7539Y13937D02*
D03*
X6870D02*
D03*
X24114Y7913D02*
D03*
X24783D02*
D03*
X8012D02*
D03*
X8681D02*
D03*
X846Y8386D02*
D03*
X1516D02*
D03*
X12303Y4803D02*
D03*
X12972D02*
D03*
X12303Y5984D02*
D03*
X12972D02*
D03*
X12303Y5394D02*
D03*
X12972D02*
D03*
X15532Y4843D02*
D03*
X16201D02*
D03*
X15532Y6024D02*
D03*
X16201D02*
D03*
X15532Y5433D02*
D03*
X16201D02*
D03*
X19626Y11732D02*
D03*
X18957D02*
D03*
X31988Y12756D02*
D03*
X31319D02*
D03*
X24193D02*
D03*
X23524D02*
D03*
X31398Y12165D02*
D03*
X30728D02*
D03*
X30886Y13268D02*
D03*
X30217D02*
D03*
X16398Y12756D02*
D03*
X15728D02*
D03*
X23642Y12165D02*
D03*
X22972D02*
D03*
X23091Y13268D02*
D03*
X22421D02*
D03*
X8602Y12756D02*
D03*
X7933D02*
D03*
X15846Y12165D02*
D03*
X15177D02*
D03*
X15256Y13307D02*
D03*
X14587D02*
D03*
X8051Y12165D02*
D03*
X7382D02*
D03*
X7539Y13307D02*
D03*
X6870D02*
D03*
D17*
X984Y2165D02*
D03*
Y4921D02*
D03*
Y3543D02*
D03*
Y787D02*
D03*
D18*
X37874Y9685D02*
D03*
Y10866D02*
D03*
X38740Y9094D02*
D03*
Y10276D02*
D03*
D19*
X36575Y16043D02*
D03*
Y14587D02*
D03*
D20*
X38425Y15354D02*
D03*
D21*
X14193Y6004D02*
D03*
X14862D02*
D03*
X14193Y4783D02*
D03*
X14862D02*
D03*
X10846Y6004D02*
D03*
X11516D02*
D03*
X10846Y4783D02*
D03*
X11516D02*
D03*
D22*
X21043Y11732D02*
D03*
X20374D02*
D03*
D23*
X7283Y984D02*
D03*
X5906D02*
D03*
D24*
X38295Y17402D02*
D03*
D25*
X36791Y18152D02*
D03*
Y17152D02*
D03*
Y17652D02*
D03*
Y16652D02*
D03*
D26*
X35551Y1972D02*
D03*
Y2472D02*
D03*
Y2972D02*
D03*
Y3472D02*
D03*
Y3972D02*
D03*
Y4472D02*
D03*
Y4972D02*
D03*
Y5472D02*
D03*
X33425Y1972D02*
D03*
Y2472D02*
D03*
Y2972D02*
D03*
Y3472D02*
D03*
Y3972D02*
D03*
Y4472D02*
D03*
Y4972D02*
D03*
D27*
Y5472D02*
D03*
D28*
X19783Y6024D02*
D03*
X20039D02*
D03*
X19528D02*
D03*
X19272D02*
D03*
X19016D02*
D03*
X19783Y8386D02*
D03*
X19528D02*
D03*
X19272D02*
D03*
X18248Y6024D02*
D03*
X17992D02*
D03*
X18760D02*
D03*
X18504D02*
D03*
X17736D02*
D03*
X17480D02*
D03*
X17224D02*
D03*
X18504Y8386D02*
D03*
X18248D02*
D03*
X19016D02*
D03*
X18760D02*
D03*
X17480D02*
D03*
X17224D02*
D03*
X17992D02*
D03*
X17736D02*
D03*
D29*
X20039D02*
D03*
D30*
X36900Y9094D02*
D03*
Y10000D02*
D03*
Y10906D02*
D03*
D31*
X34596Y10000D02*
D03*
D32*
X28354Y7913D02*
D03*
X28854D02*
D03*
X27854D02*
D03*
X27354D02*
D03*
X28854Y10039D02*
D03*
X28354D02*
D03*
X27854D02*
D03*
X25854Y7913D02*
D03*
X26854D02*
D03*
X26354D02*
D03*
Y10039D02*
D03*
X27354D02*
D03*
X26854D02*
D03*
X25854D02*
D03*
X25354D02*
D03*
X12291Y7913D02*
D03*
X12791D02*
D03*
X11791D02*
D03*
X11291D02*
D03*
X12791Y10039D02*
D03*
X12291D02*
D03*
X11791D02*
D03*
X9791Y7913D02*
D03*
X10791D02*
D03*
X10291D02*
D03*
Y10039D02*
D03*
X11291D02*
D03*
X10791D02*
D03*
X9791D02*
D03*
X9291D02*
D03*
X5165Y8386D02*
D03*
X5665D02*
D03*
X4665D02*
D03*
X4165D02*
D03*
X5665Y10512D02*
D03*
X5165D02*
D03*
X4665D02*
D03*
X2665Y8386D02*
D03*
X3665D02*
D03*
X3165D02*
D03*
Y10512D02*
D03*
X4165D02*
D03*
X3665D02*
D03*
X2665D02*
D03*
X2165D02*
D03*
D33*
X25354Y7913D02*
D03*
X9291Y7913D02*
D03*
X2165Y8386D02*
D03*
D34*
X32937Y661D02*
X33937Y1661D01*
X24764Y9557D02*
Y9557D01*
X24729Y9592D02*
X24764Y9557D01*
X24729Y9592D02*
Y9621D01*
X24390Y9961D02*
X24729Y9621D01*
X24685Y10827D02*
Y11339D01*
X24390Y10532D02*
X24685Y10827D01*
X24390Y9961D02*
Y10532D01*
X7539Y13169D02*
Y13307D01*
X7022Y12652D02*
X7539Y13169D01*
X6589Y12652D02*
X7022D01*
X7539Y13307D02*
Y13937D01*
X7774Y13152D02*
X9255D01*
X7618Y13307D02*
X7774Y13152D01*
X7539Y13307D02*
X7618D01*
X15510Y13152D02*
X17050D01*
X15354Y13307D02*
X15510Y13152D01*
X15256Y13307D02*
X15354D01*
X15256Y13209D02*
Y13307D01*
X14699Y12652D02*
X15256Y13209D01*
X14344Y12652D02*
X14699D01*
X15256Y13307D02*
X15256Y13307D01*
X15256Y13307D02*
Y13898D01*
X23091Y13169D02*
Y13268D01*
X22573Y12652D02*
X23091Y13169D01*
X22296Y12652D02*
X22573D01*
X23091Y13268D02*
Y13858D01*
Y13268D02*
X23207Y13152D01*
X30886Y13268D02*
Y13858D01*
Y13169D02*
Y13268D01*
X30472Y12756D02*
X30886Y13169D01*
X30157Y12756D02*
X30472D01*
X30886Y13268D02*
X30965Y13189D01*
X32639D02*
X32854Y12973D01*
X30965Y13189D02*
X32639D01*
X39154Y2880D02*
Y4547D01*
X36634Y2087D02*
X36929D01*
X36417Y1870D02*
X36634Y2087D01*
X37701Y4776D02*
X38925D01*
X39154Y4547D01*
X36575Y16575D02*
X36652Y16652D01*
X36575Y16043D02*
Y16575D01*
Y16043D02*
X37205D01*
X24744Y7874D02*
X24783Y7913D01*
X20020Y5276D02*
X20039Y5256D01*
Y4803D02*
Y5256D01*
X11516Y4272D02*
Y4783D01*
Y4272D02*
X11535Y4252D01*
X14862Y4783D02*
X14882Y4764D01*
X8681Y7913D02*
Y8720D01*
X33937Y5197D02*
Y5938D01*
X1516Y8386D02*
Y8720D01*
X33937Y1661D02*
Y2677D01*
X33425Y2472D02*
X33732D01*
X33937Y2677D01*
Y5197D01*
X33661Y5472D02*
X33937Y5197D01*
X33425Y5472D02*
X33661D01*
X36315Y1972D02*
X36417Y1870D01*
X35551Y1972D02*
X36315D01*
X36350Y2472D02*
X36417Y2539D01*
X35551Y2472D02*
X36350D01*
X35069Y2136D02*
X35232Y1972D01*
X35551D01*
X35069Y2136D02*
Y4715D01*
X35327Y4972D01*
X35551D01*
X36346D01*
X36417Y4902D01*
X36319Y5472D02*
X36417Y5571D01*
X35551Y5472D02*
X36319D01*
X32598Y2500D02*
X32626Y2472D01*
X33425D01*
X32598Y5689D02*
X32815Y5472D01*
X33425D01*
X24783Y7913D02*
X25354D01*
X24783D02*
Y7913D01*
X8681D02*
X9291D01*
X2165Y8386D02*
Y8386D01*
X1516Y8386D02*
X2165D01*
X2362Y2598D02*
X3150D01*
X984Y2618D02*
X2362D01*
X984Y2165D02*
Y2618D01*
X2362Y2598D02*
Y2618D01*
X3150Y2598D02*
Y2972D01*
X3917D02*
X4181D01*
X3740Y3150D02*
X3917Y2972D01*
X3740Y3150D02*
Y5118D01*
X4059Y5437D01*
X4331D01*
X2421Y3346D02*
X2488Y3413D01*
X2362Y3287D02*
X2421Y3346D01*
X2488Y3413D02*
Y3937D01*
X2421Y3346D02*
X3150D01*
X4862D02*
X4921Y3287D01*
X4181Y3346D02*
X4862D01*
X4181Y2043D02*
X4331Y1894D01*
X4181Y2043D02*
Y2598D01*
X4201Y2618D01*
X4921D01*
X38366Y14272D02*
X38543Y14094D01*
X37539Y14272D02*
X38366D01*
X37244Y14567D02*
X37539Y14272D01*
X37244Y14567D02*
Y15413D01*
X36652Y16652D02*
X36791D01*
X37205Y16043D02*
X37244Y16083D01*
X32854Y12579D02*
Y12973D01*
X32717Y12441D02*
X32854Y12579D01*
X32717Y12323D02*
Y12441D01*
X21063Y11339D02*
X21373D01*
X17720D02*
X21063D01*
X21043Y11358D02*
X21063Y11339D01*
X21043Y11358D02*
Y11732D01*
X19626D02*
X20374D01*
X18976Y12106D02*
X21751D01*
X17343D02*
X18976D01*
X18957Y12087D02*
X18976Y12106D01*
X18957Y11732D02*
Y12087D01*
X17132Y12317D02*
X17343Y12106D01*
X21751D02*
X22296Y12652D01*
X17346Y11713D02*
X17720Y11339D01*
X21373D02*
X21747Y11713D01*
X25238Y11988D02*
X29389D01*
X30157Y12756D01*
X24921Y12305D02*
X25238Y11988D01*
X33213Y11713D02*
X33548Y12047D01*
X32657Y11713D02*
X33213D01*
X32578Y11634D02*
X32657Y11713D01*
X31496Y11634D02*
X32578D01*
X31398Y11732D02*
X31496Y11634D01*
X9291Y10039D02*
Y10433D01*
X9528Y10669D01*
X8843Y10531D02*
X9173Y10862D01*
X8457Y10531D02*
X8843D01*
X8307Y10382D02*
X8457Y10531D01*
X2126Y10551D02*
X2165Y10512D01*
X1744Y11378D02*
X1772D01*
X1201Y10835D02*
X1744Y11378D01*
X1201Y10315D02*
Y10835D01*
X9528Y11713D02*
X14509D01*
X13680Y11988D02*
X14344Y12652D01*
X10295Y11988D02*
X13680D01*
X2099Y11713D02*
X8031D01*
X5945Y12008D02*
X6589Y12652D01*
X1614Y12008D02*
X5945D01*
X1926Y11725D02*
X2087D01*
X1918Y11732D02*
X1926Y11725D01*
X1625Y11732D02*
X1918D01*
X1617Y11725D02*
X1625Y11732D01*
X2099Y11713D02*
X2126Y11685D01*
X9961Y12323D02*
X10295Y11988D01*
X25039Y11024D02*
X25354Y10709D01*
Y10039D02*
Y10709D01*
X24980Y10039D02*
X25354D01*
X24764Y10256D02*
X24980Y10039D01*
X24764Y9557D02*
X28652D01*
X28854Y9760D02*
Y10039D01*
X28652Y9557D02*
X28854Y9760D01*
X25039Y11024D02*
Y11654D01*
X23622Y11713D02*
X31378D01*
X31319Y12244D02*
X31398Y12165D01*
X30532Y12362D02*
X30728Y12165D01*
X24921Y12305D02*
X25118Y12502D01*
X24963Y13152D02*
X25118Y12997D01*
X23622Y11713D02*
X23642Y11732D01*
X23524Y12283D02*
X23642Y12165D01*
X17132Y12317D02*
X17246Y12431D01*
X17050Y13152D02*
X17246Y12956D01*
X8031Y11713D02*
X8051Y11732D01*
X7933Y12283D02*
X8051Y12165D01*
X31398Y11732D02*
Y12165D01*
X24685Y12756D02*
X24746Y12817D01*
X25118Y12502D02*
Y12997D01*
X23642Y11732D02*
Y12165D01*
X17246Y12431D02*
Y12956D01*
X8051Y11732D02*
Y12165D01*
X669Y12146D02*
X1090Y11725D01*
X31319Y12244D02*
Y12756D01*
X23524Y12283D02*
Y12756D01*
X7933Y12283D02*
Y12756D01*
X30236Y12362D02*
X30532D01*
X23207Y13152D02*
X24963D01*
X15866Y11713D02*
X16791D01*
X15846Y11732D02*
X15866Y11713D01*
X15728Y12283D02*
X15846Y12165D01*
X9370Y12323D02*
Y12598D01*
X9255Y13152D02*
X9451Y12956D01*
X8663Y12817D02*
X9116D01*
X1457Y12165D02*
Y12305D01*
X24193Y12756D02*
X24685D01*
X15846Y11732D02*
Y12165D01*
X9451Y12678D02*
Y12956D01*
X9370Y12598D02*
X9451Y12678D01*
X8602Y12756D02*
X8663Y12817D01*
X15728Y12283D02*
Y12756D01*
X16791Y11713D02*
X17346D01*
X21747D02*
X23622D01*
X38352Y12652D02*
X38425Y12579D01*
X37809Y12652D02*
X38352D01*
X37480Y12323D02*
X37809Y12652D01*
X14509Y11713D02*
X14509Y11713D01*
X15866D01*
X8701Y10177D02*
X8839Y10039D01*
X9291D01*
X1575Y10610D02*
X1673Y10512D01*
X2165D01*
X9370Y12323D02*
X9961D01*
X8031Y11713D02*
X9528D01*
Y10669D02*
Y11713D01*
X9173Y10862D02*
Y11339D01*
X8307Y9902D02*
Y10382D01*
Y9902D02*
X8701Y9508D01*
X12382D01*
X12791Y9917D01*
Y10039D01*
X1457Y12165D02*
X1614Y12008D01*
X1090Y11725D02*
X1617D01*
X2126Y10551D02*
Y11685D01*
X1201Y10315D02*
X1575Y9941D01*
X5453D01*
X5665Y10154D01*
Y10512D01*
X32717Y12323D02*
X34213D01*
X34409Y12520D01*
X36142D01*
X36339Y12323D01*
X37480D01*
X33548Y12047D02*
X34327D01*
X34524Y12244D01*
X36028D01*
X37736Y12047D02*
X38425Y11358D01*
X36028Y12244D02*
X36224Y12047D01*
X37736D01*
X38616Y2343D02*
X39154Y2880D01*
X37521Y2343D02*
X38616D01*
X37325Y2539D02*
X37521Y2343D01*
X36417Y2539D02*
X37325D01*
X36906Y5571D02*
X37701Y4776D01*
X36417Y5571D02*
X36906D01*
D35*
X23583Y7913D02*
X24114D01*
X23386Y7717D02*
X23583Y7913D01*
X22480Y7717D02*
X23386D01*
X33232Y3972D02*
X33425D01*
X33008Y4197D02*
X33232Y3972D01*
X32162Y4197D02*
X33008D01*
X19331Y4685D02*
X19350Y4705D01*
Y5276D01*
X17480Y8386D02*
Y8681D01*
X17322Y8839D02*
X17480Y8681D01*
X16674Y8386D02*
X17127Y8839D01*
X12687Y8386D02*
X16674D01*
X17127Y8839D02*
X17322D01*
X12291Y7990D02*
X12687Y8386D01*
X24465Y1134D02*
X24937Y661D01*
X20622Y1134D02*
X24465D01*
X22831Y2811D02*
X23244Y3224D01*
X24925D01*
X25335Y2815D01*
X23746Y1811D02*
X24159Y2224D01*
X24502D01*
X20801Y1370D02*
X24896D01*
X25335Y2332D02*
Y2815D01*
X25092Y2090D02*
X25335Y2332D01*
X25092Y1843D02*
Y2090D01*
X24502Y2224D02*
X24744Y1982D01*
Y1857D02*
Y1982D01*
Y1857D02*
X25467Y1134D01*
X23331Y1811D02*
X23746D01*
X16059Y2811D02*
X16142Y2728D01*
Y1644D02*
Y2728D01*
Y1644D02*
X16486Y1299D01*
X16496Y2897D02*
X17025Y3425D01*
X16496Y1874D02*
Y2897D01*
Y1874D02*
X16559Y1811D01*
X16927Y3661D02*
X21358D01*
X16612Y3346D02*
X16927Y3661D01*
X16514Y3583D02*
X16829Y3898D01*
X16416Y3819D02*
X16731Y4134D01*
X13504Y3819D02*
X16416D01*
X16318Y4055D02*
X16633Y4370D01*
X13622Y4055D02*
X16318D01*
X16220Y4291D02*
X16535Y4606D01*
X13720Y4291D02*
X16220D01*
X16535Y4606D02*
X17657D01*
X16633Y4370D02*
X17755D01*
X16731Y4134D02*
X17853D01*
X16829Y3898D02*
X21260D01*
X13624Y3346D02*
X16612D01*
X11059Y3583D02*
X16514D01*
X13173Y1811D02*
Y2896D01*
X13624Y3346D01*
X10287Y2811D02*
X11059Y3583D01*
X26661Y6661D02*
X26937D01*
X25898Y5898D02*
X26661Y6661D01*
X22649Y5898D02*
X25898D01*
X25465Y6189D02*
X25937Y6661D01*
X22606Y6189D02*
X25465D01*
X22409Y5658D02*
X22649Y5898D01*
X22409Y4379D02*
Y5658D01*
X21456Y3425D02*
X22409Y4379D01*
X17025Y3425D02*
X21456D01*
X21358Y3661D02*
X22173Y4477D01*
Y5756D02*
X22606Y6189D01*
X22173Y4477D02*
Y5756D01*
X21622Y7134D02*
X28133D01*
X21556Y7402D02*
X28199D01*
X23327Y8130D02*
X23583Y8386D01*
X21950Y8130D02*
X23327D01*
X20789Y6969D02*
X21950Y8130D01*
X23229Y8366D02*
X23485Y8622D01*
X21852Y8366D02*
X23229D01*
X20691Y7205D02*
X21852Y8366D01*
X23131Y8602D02*
X23387Y8858D01*
X21754Y8602D02*
X23131D01*
X20593Y7441D02*
X21754Y8602D01*
X23033Y8839D02*
X23289Y9094D01*
X19430Y8839D02*
X23033D01*
X31693Y6417D02*
X31937Y6661D01*
X31693Y5000D02*
Y6417D01*
Y5000D02*
X32220Y4472D01*
X30937Y6661D02*
X31457Y6142D01*
Y4902D02*
Y6142D01*
Y4902D02*
X32162Y4197D01*
X30984Y5906D02*
X31220Y5669D01*
Y4804D02*
Y5669D01*
Y4804D02*
X32064Y3961D01*
X28691Y5906D02*
X30984D01*
X32598Y5020D02*
X32646Y4972D01*
X33425D01*
X33130Y2972D02*
X33425D01*
X32953Y3150D02*
X33130Y2972D01*
X32953Y3150D02*
Y3622D01*
X32614Y3961D02*
X32953Y3622D01*
X32064Y3961D02*
X32614D01*
X27937Y6659D02*
X28691Y5906D01*
X27937Y6659D02*
Y6661D01*
X32220Y4472D02*
X33425D01*
X17165Y7402D02*
X17736Y7972D01*
X11614Y7402D02*
X17165D01*
X17283Y7165D02*
X17992Y7874D01*
X11299Y7165D02*
X17283D01*
X17381Y6929D02*
X18248Y7796D01*
X10591Y6929D02*
X17381D01*
X17165Y6693D02*
X17480Y6378D01*
X10493Y6693D02*
X17165D01*
X17224Y6024D02*
Y6240D01*
X17008Y6457D02*
X17224Y6240D01*
X10395Y6457D02*
X17008D01*
X16968Y7717D02*
X17224Y7972D01*
Y8386D01*
X19272Y8681D02*
X19430Y8839D01*
X19272Y8386D02*
Y8681D01*
X19685Y7756D02*
X19783Y7854D01*
Y8386D01*
X19528Y7913D02*
X19685Y7756D01*
X19528Y7913D02*
Y8386D01*
X19548Y7441D02*
X20593D01*
X19016Y7973D02*
X19548Y7441D01*
X19450Y7205D02*
X20691D01*
X18760Y7895D02*
X19450Y7205D01*
X19352Y6969D02*
X20789D01*
X18504Y7817D02*
X19352Y6969D01*
X11870Y5236D02*
X12303Y4803D01*
X11220Y5236D02*
X11870D01*
X10846Y4862D02*
X11220Y5236D01*
X11260Y5472D02*
X12224D01*
X10846Y5886D02*
X11260Y5472D01*
X12972Y4350D02*
X13504Y3819D01*
X13307Y4370D02*
X13622Y4055D01*
X13307Y4370D02*
Y5039D01*
X13543Y4468D02*
X13720Y4291D01*
X13543Y4468D02*
Y5137D01*
X15013Y5276D02*
X15446Y4843D01*
X14567Y5276D02*
X15013D01*
X14606Y5512D02*
X15453D01*
X14193Y5925D02*
X14606Y5512D01*
X15453D02*
X15532Y5433D01*
X14193Y4902D02*
X14567Y5276D01*
X12972Y4350D02*
Y4803D01*
X3150Y8268D02*
Y8370D01*
X3165Y8386D01*
X37926Y13819D02*
X38162Y13583D01*
X37935Y13307D02*
X38366D01*
X2480Y11378D02*
X2665Y11193D01*
Y10512D02*
Y11193D01*
X16654Y5571D02*
X17618D01*
X16201Y6024D02*
X16654Y5571D01*
X16201Y5433D02*
X16299Y5335D01*
X19016Y5297D02*
Y6024D01*
X17853Y4134D02*
X19016Y5297D01*
X18760Y5375D02*
Y6024D01*
X17755Y4370D02*
X18760Y5375D01*
X18504Y5453D02*
Y6024D01*
X17657Y4606D02*
X18504Y5453D01*
X16201Y4843D02*
X17559D01*
X13307Y5373D02*
X13543Y5137D01*
X13307Y5373D02*
Y5650D01*
X12972Y5984D02*
X13307Y5650D01*
X12972Y5374D02*
X13307Y5039D01*
X12972Y5374D02*
Y5394D01*
X12283Y6004D02*
X12303Y5984D01*
X11516Y6004D02*
X12283D01*
X12224Y5472D02*
X12303Y5394D01*
X10846Y5886D02*
Y6004D01*
Y4783D02*
Y4862D01*
X15446Y4843D02*
X15532D01*
X14193Y4783D02*
Y4902D01*
Y5925D02*
Y6004D01*
X15512D02*
X15532Y6024D01*
X14862Y6004D02*
X15512D01*
X18248Y5531D02*
Y6024D01*
X17559Y4843D02*
X18248Y5531D01*
X16201Y4843D02*
X16220Y4823D01*
X17992Y5611D02*
Y6024D01*
X17716Y5335D02*
X17992Y5611D01*
X16299Y5335D02*
X17716D01*
X17736Y5689D02*
Y6024D01*
X17618Y5571D02*
X17736Y5689D01*
X17114Y11024D02*
X21420D01*
X17055Y11083D02*
X17114Y11024D01*
X21420D02*
X21735Y11339D01*
X33031Y10827D02*
X33760Y11555D01*
X32567Y10827D02*
X33031D01*
X32926Y11063D02*
X33654Y11791D01*
X11496Y11457D02*
X13743D01*
X10291Y10252D02*
X11496Y11457D01*
X10291Y10039D02*
Y10252D01*
X11772Y11220D02*
X13645D01*
X10791Y10240D02*
X11772Y11220D01*
X10791Y10039D02*
Y10240D01*
X12047Y10984D02*
X13547D01*
X11291Y10228D02*
X12047Y10984D01*
X11291Y10039D02*
Y10228D01*
X12559Y10512D02*
X13351D01*
X12291Y10244D02*
X12559Y10512D01*
X12291Y10039D02*
Y10244D01*
X12283Y10748D02*
X13449D01*
X11791Y10256D02*
X12283Y10748D01*
X11791Y10039D02*
Y10256D01*
X9791Y10039D02*
Y11130D01*
X3165Y10512D02*
Y10764D01*
X3858Y11457D01*
X5988D01*
X3665Y10512D02*
Y10791D01*
X4094Y11220D01*
X5890D01*
X11791Y7913D02*
Y8012D01*
X10291Y7913D02*
Y8016D01*
X10791Y7673D02*
Y7913D01*
Y7673D02*
X11299Y7165D01*
X21937Y4575D02*
Y6661D01*
X21260Y3898D02*
X21937Y4575D01*
X28741Y6189D02*
X29465D01*
X28409Y6521D02*
X28741Y6189D01*
X29465D02*
X29937Y6661D01*
X23289Y9094D02*
X26673D01*
X23387Y8858D02*
X26575D01*
X23485Y8622D02*
X26378D01*
X26575Y8858D02*
X27354Y8079D01*
X26673Y9094D02*
X27391Y8376D01*
X23583Y8386D02*
X25591D01*
X20867Y6713D02*
X21556Y7402D01*
X19844Y6713D02*
X20867D01*
X20965Y6476D02*
X21622Y7134D01*
X19942Y6476D02*
X20965D01*
X18504Y7817D02*
Y8386D01*
X18760Y7895D02*
Y8386D01*
X19016Y7973D02*
Y8386D01*
X19783Y6318D02*
X19942Y6476D01*
X19783Y6024D02*
Y6318D01*
X19528Y6396D02*
X19844Y6713D01*
X19528Y6024D02*
Y6396D01*
X27391Y8376D02*
X28081D01*
X27354Y7913D02*
Y8079D01*
X26854Y7913D02*
Y8146D01*
X26378Y8622D02*
X26854Y8146D01*
X28354Y7913D02*
Y8102D01*
X28081Y8376D02*
X28354Y8102D01*
X25591Y8386D02*
X25854Y8122D01*
Y7913D02*
Y8122D01*
X28133Y7134D02*
X28409Y6857D01*
Y6521D02*
Y6857D01*
X28199Y7402D02*
X28937Y6664D01*
Y6661D02*
Y6664D01*
X21732Y866D02*
X21937Y661D01*
X20551Y866D02*
X21732D01*
X20118Y1299D02*
X20551Y866D01*
X16486Y1299D02*
X20118D01*
X19945Y1811D02*
X20622Y1134D01*
X20358Y1813D02*
X20801Y1370D01*
X25741Y857D02*
X25937Y661D01*
X25409Y857D02*
X25741D01*
X30937Y661D02*
Y976D01*
X30102Y1811D02*
X30937Y976D01*
X25565Y1370D02*
X26896D01*
X25092Y1843D02*
X25565Y1370D01*
X27341Y925D02*
X27673D01*
X26896Y1370D02*
X27341Y925D01*
X27673D02*
X27937Y661D01*
X26465Y1134D02*
X26937Y661D01*
X25467Y1134D02*
X26465D01*
X24896Y1370D02*
X25409Y857D01*
X19445Y2811D02*
X19530D01*
X20358Y1982D01*
Y1813D02*
Y1982D01*
X27447Y1161D02*
X28437D01*
X26894Y1715D02*
X27447Y1161D01*
X26894Y1715D02*
Y1768D01*
X26850Y1811D02*
X26894Y1768D01*
X26717Y1811D02*
X26850D01*
X28437Y1161D02*
X28937Y661D01*
X26217Y2726D02*
Y2811D01*
Y2726D02*
X26719Y2224D01*
X26888D01*
X27130Y1982D01*
Y1813D02*
Y1982D01*
Y1813D02*
X27545Y1398D01*
X29201D01*
X29937Y661D01*
X29602Y2811D02*
X29687D01*
X30516Y1982D01*
Y1813D02*
Y1982D01*
Y1813D02*
X31667Y661D01*
X31937D01*
X3642Y7835D02*
X4312Y7165D01*
X2992Y7835D02*
X3642D01*
X2665Y8161D02*
X2992Y7835D01*
X9686Y7165D02*
X10395Y6457D01*
X4312Y7165D02*
X9686D01*
X9784Y7402D02*
X10493Y6693D01*
X9791Y7728D02*
X10591Y6929D01*
X11291Y7724D02*
X11614Y7402D01*
X4409D02*
X9784D01*
X3665Y8146D02*
X4409Y7402D01*
X2665Y8161D02*
Y8386D01*
X3665Y8146D02*
Y8386D01*
X17480Y6024D02*
Y6378D01*
X9791Y7728D02*
Y7913D01*
X18248Y7796D02*
Y8386D01*
X17992Y7874D02*
Y8386D01*
X11291Y7724D02*
Y7913D01*
X17736Y7972D02*
Y8386D01*
X12291Y7913D02*
Y7990D01*
X14460Y10354D02*
X14854Y10748D01*
X13509Y10354D02*
X14460D01*
X13351Y10512D02*
X13509Y10354D01*
X14362Y10590D02*
X14854Y11083D01*
X13607Y10590D02*
X14362D01*
X13449Y10748D02*
X13607Y10590D01*
X14264Y10827D02*
X14776Y11339D01*
X13705Y10827D02*
X14264D01*
X13547Y10984D02*
X13705Y10827D01*
X14068Y11063D02*
X14370Y11365D01*
X13803Y11063D02*
X14068D01*
X13645Y11220D02*
X13803Y11063D01*
X13937Y11366D02*
Y11378D01*
X13822D02*
X13937D01*
X13743Y11457D02*
X13822Y11378D01*
X6051Y11063D02*
X6312D01*
X5972Y11142D02*
X6051Y11063D01*
X5969Y11142D02*
X5972D01*
X5890Y11220D02*
X5969Y11142D01*
X6312Y11063D02*
X6614Y11366D01*
X6067Y11378D02*
X6181D01*
X5988Y11457D02*
X6067Y11378D01*
X6181Y11366D02*
Y11378D01*
X27559Y11457D02*
X29567D01*
X26354Y10252D02*
X27559Y11457D01*
X26354Y10039D02*
Y10252D01*
X27835Y11220D02*
X29358D01*
X26854Y10240D02*
X27835Y11220D01*
X26854Y10039D02*
Y10240D01*
X28071Y10984D02*
X29260D01*
X27354Y10268D02*
X28071Y10984D01*
X27354Y10039D02*
Y10268D01*
X28346Y10748D02*
X29162D01*
X27854Y10256D02*
X28346Y10748D01*
X27854Y10039D02*
Y10256D01*
X25854Y10039D02*
X25866Y10051D01*
Y10906D01*
X28354Y10039D02*
Y10283D01*
X28583Y10512D01*
X29064D01*
X30471Y10551D02*
X30826Y10906D01*
X30267Y10551D02*
X30471D01*
X30070Y10354D02*
X30267Y10551D01*
X29222Y10354D02*
X30070D01*
X29064Y10512D02*
X29222Y10354D01*
X30373Y10787D02*
X30728Y11142D01*
X30169Y10787D02*
X30373D01*
X29972Y10591D02*
X30169Y10787D01*
X29320Y10591D02*
X29972D01*
X29162Y10748D02*
X29320Y10591D01*
X30276Y11024D02*
X30630Y11378D01*
X30071Y11024D02*
X30276D01*
X29874Y10827D02*
X30071Y11024D01*
X29417Y10827D02*
X29874D01*
X29260Y10984D02*
X29417Y10827D01*
X29776Y11063D02*
X30079Y11366D01*
X29515Y11063D02*
X29776D01*
X29358Y11220D02*
X29515Y11063D01*
X29567Y11457D02*
X29646Y11378D01*
X31929Y12815D02*
X31949Y12835D01*
X22435Y12317D02*
X22821D01*
X7230D02*
X7382Y12165D01*
X669Y12815D02*
X671Y12817D01*
X16850Y12756D02*
X16911Y12817D01*
X32028Y12835D02*
X32520D01*
X22821Y12317D02*
X22972Y12165D01*
X15026Y12317D02*
X15177Y12165D01*
X14600Y12317D02*
X15026D01*
X6856D02*
X7230D01*
X16398Y12756D02*
X16850D01*
X671Y12817D02*
X1321D01*
X38366Y13307D02*
X38425Y13248D01*
X38162Y13583D02*
X38661D01*
X38976Y13268D01*
Y13248D02*
Y13268D01*
X38248Y12028D02*
X38425D01*
X37959Y12317D02*
X38248Y12028D01*
X37283Y11339D02*
X37874D01*
X6614Y11366D02*
Y11378D01*
X21735Y11339D02*
X21850D01*
X14854Y11083D02*
X17055D01*
X22283Y11326D02*
Y11339D01*
X21705Y10748D02*
X22283Y11326D01*
X14854Y10748D02*
X21705D01*
X14370Y11365D02*
Y11378D01*
X14776Y11339D02*
X17244D01*
X30079Y11366D02*
Y11378D01*
X32665Y11063D02*
X32926D01*
X32586Y11142D02*
X32665Y11063D01*
X30728Y11142D02*
X32586D01*
X32488Y10906D02*
X32567Y10827D01*
X30826Y10906D02*
X32488D01*
X30630Y11378D02*
X32795D01*
X25394D02*
X25866Y10906D01*
X9791Y11130D02*
X10000Y11339D01*
X33654Y11791D02*
X34433D01*
X33760Y11555D02*
X34531D01*
X34433Y11791D02*
X34630Y11988D01*
X34531Y11555D02*
X34727Y11752D01*
X34630Y11988D02*
X35922D01*
X34727Y11752D02*
X35824D01*
X37284Y11693D02*
X37480D01*
X37185Y11791D02*
X37284Y11693D01*
X35922Y11988D02*
X36118Y11791D01*
X37185D01*
X37067Y11555D02*
X37283Y11339D01*
X35824Y11752D02*
X36021Y11555D01*
X37067D01*
X35551Y3972D02*
X37504D01*
X37701Y3776D01*
X35551Y2972D02*
X37106D01*
X37409Y3276D01*
X38701D01*
X35551Y4472D02*
X37102D01*
X37299Y4276D01*
X38701D01*
D36*
X20039Y5276D02*
Y6024D01*
X20020Y5276D02*
X20039D01*
X20020Y6024D02*
X20039D01*
D37*
X38425Y15354D02*
Y17402D01*
X38295D02*
X38425D01*
D38*
X38976Y10512D02*
Y12579D01*
X38425D02*
X38976D01*
X38740Y10276D02*
X38976Y10512D01*
X38583Y10276D02*
X38740D01*
X37992Y9685D02*
X38583Y10276D01*
X37874Y9685D02*
X37992D01*
D39*
X36900Y10906D02*
X37835D01*
X37874Y10866D01*
X36900Y9094D02*
X38740D01*
X38740Y9094D01*
X36900Y10000D02*
X37362D01*
X37677Y9685D01*
X37874D01*
X35945Y9370D02*
X36220Y9094D01*
X36900D01*
X34596Y10000D02*
X35276Y10679D01*
Y11122D01*
Y11142D01*
X35030Y11388D02*
X35276Y11142D01*
Y11122D02*
X35541Y11388D01*
X37874Y10866D02*
X38228D01*
X38425Y11063D01*
Y11358D01*
D40*
X35937Y661D02*
D03*
X34937D02*
D03*
X33937D02*
D03*
X32937D02*
D03*
X31937D02*
D03*
X30937D02*
D03*
X29937D02*
D03*
X28937D02*
D03*
X27937D02*
D03*
X26937D02*
D03*
X25937D02*
D03*
X24937D02*
D03*
X23937D02*
D03*
X22937D02*
D03*
X21937D02*
D03*
Y6661D02*
D03*
X22937D02*
D03*
X23937D02*
D03*
X24937D02*
D03*
X25937D02*
D03*
X26937D02*
D03*
X27937D02*
D03*
X28937D02*
D03*
X29937D02*
D03*
X30937D02*
D03*
X31937D02*
D03*
X32937D02*
D03*
X33937D02*
D03*
X34937D02*
D03*
X35937D02*
D03*
D41*
X9287Y2811D02*
D03*
X9787Y1811D02*
D03*
X10287Y2811D02*
D03*
X10787Y1811D02*
D03*
X12673Y2811D02*
D03*
X13173Y1811D02*
D03*
X13673Y2811D02*
D03*
X14173Y1811D02*
D03*
X16059Y2811D02*
D03*
X16559Y1811D02*
D03*
X17059Y2811D02*
D03*
X17559Y1811D02*
D03*
X22831Y2811D02*
D03*
X23331Y1811D02*
D03*
X23831Y2811D02*
D03*
X24331Y1811D02*
D03*
X38701Y5276D02*
D03*
X37701Y4776D02*
D03*
X38701Y4276D02*
D03*
X37701Y3776D02*
D03*
X38701Y3276D02*
D03*
X37701Y2776D02*
D03*
X26217Y2811D02*
D03*
X26717Y1811D02*
D03*
X27217Y2811D02*
D03*
X27717Y1811D02*
D03*
X29602Y2811D02*
D03*
X30102Y1811D02*
D03*
X30602Y2811D02*
D03*
X31102Y1811D02*
D03*
X19445Y2811D02*
D03*
X19945Y1811D02*
D03*
X20445Y2811D02*
D03*
X20945Y1811D02*
D03*
D42*
X5512Y2362D02*
D03*
D43*
X7480Y2362D02*
D03*
D44*
X29331Y8504D02*
D03*
X29291Y7283D02*
D03*
X6142Y7913D02*
D03*
X4685Y7756D02*
D03*
X36929Y2087D02*
D03*
X15591Y7756D02*
D03*
X13858D02*
D03*
X20472Y5906D02*
D03*
X35039Y8268D02*
D03*
X32087Y3346D02*
D03*
X25787Y1969D02*
D03*
X25394Y4921D02*
D03*
X27362Y5906D02*
D03*
X23228Y4331D02*
D03*
X22244Y1969D02*
D03*
X19685Y394D02*
D03*
X17717D02*
D03*
X15748D02*
D03*
X10236Y5315D02*
D03*
X9449Y6693D02*
D03*
X7874D02*
D03*
X6102D02*
D03*
X3740Y7087D02*
D03*
X13780Y394D02*
D03*
X11811D02*
D03*
X9843D02*
D03*
X8465D02*
D03*
X6890Y3346D02*
D03*
Y4528D02*
D03*
X5315Y5512D02*
D03*
X3740Y6102D02*
D03*
X1969D02*
D03*
X2362Y7480D02*
D03*
X394Y6102D02*
D03*
X24744Y7874D02*
D03*
X20039Y4803D02*
D03*
X11535Y4252D02*
D03*
X14882Y4764D02*
D03*
X3150Y8268D02*
D03*
X8681Y8720D02*
D03*
X1516D02*
D03*
X38543Y14094D02*
D03*
X11791Y8012D02*
D03*
X10291Y8016D02*
D03*
X26378Y8031D02*
D03*
X27874D02*
D03*
X35030Y11388D02*
D03*
X35541D02*
D03*
X24685Y11339D02*
D03*
X9173Y11339D02*
D03*
X1772Y11378D02*
D03*
X30512Y5315D02*
D03*
D45*
X24961Y14331D02*
D03*
X24409D02*
D03*
X32323D02*
D03*
X32874D02*
D03*
X32323Y13858D02*
D03*
X31772Y14331D02*
D03*
Y13858D02*
D03*
X32874D02*
D03*
X24409D02*
D03*
X24961D02*
D03*
X23858D02*
D03*
Y14331D02*
D03*
X16614Y13858D02*
D03*
X16063Y14331D02*
D03*
Y13858D02*
D03*
X17165D02*
D03*
X8858D02*
D03*
X9409D02*
D03*
X8307Y14331D02*
D03*
Y13858D02*
D03*
X512Y14331D02*
D03*
Y13858D02*
D03*
X1063D02*
D03*
X1614D02*
D03*
X1063Y14331D02*
D03*
X1614D02*
D03*
X1575Y2559D02*
D03*
X18583Y6654D02*
D03*
X19331Y4685D02*
D03*
X21063Y5118D02*
D03*
X394Y7874D02*
D03*
X7480D02*
D03*
X33937Y5938D02*
D03*
X394Y3937D02*
D03*
Y3150D02*
D03*
X1575D02*
D03*
Y3937D02*
D03*
X984Y3543D02*
D03*
X394Y2559D02*
D03*
Y1772D02*
D03*
X1575D02*
D03*
X984Y2165D02*
D03*
X7677Y394D02*
D03*
X6890D02*
D03*
Y1575D02*
D03*
X7677D02*
D03*
X7283Y984D02*
D03*
X16614Y14331D02*
D03*
X17165D02*
D03*
X8858Y14331D02*
D03*
X9409Y14331D02*
D03*
D46*
X6848Y13817D02*
D03*
X24213Y8031D02*
D03*
X36063Y16142D02*
D03*
X5276Y14961D02*
D03*
X4488Y12598D02*
D03*
X35276Y14567D02*
D03*
X35669Y14961D02*
D03*
X35276Y15354D02*
D03*
X36063D02*
D03*
Y14567D02*
D03*
X36457Y14961D02*
D03*
X35669Y14173D02*
D03*
X34882D02*
D03*
Y14961D02*
D03*
X34488Y14567D02*
D03*
Y15354D02*
D03*
X34094Y14961D02*
D03*
Y14173D02*
D03*
X34488Y13780D02*
D03*
X35276D02*
D03*
X36063D02*
D03*
X36457Y14173D02*
D03*
X35669Y15748D02*
D03*
X34882D02*
D03*
X34094D02*
D03*
Y16535D02*
D03*
X34488Y16142D02*
D03*
Y16929D02*
D03*
X34882Y16535D02*
D03*
X35276Y16142D02*
D03*
Y16929D02*
D03*
X35669Y16535D02*
D03*
X36063Y16929D02*
D03*
X34094Y13386D02*
D03*
X34882D02*
D03*
X35669D02*
D03*
X36457D02*
D03*
X36063Y12992D02*
D03*
X35276D02*
D03*
X34488D02*
D03*
X27480Y14567D02*
D03*
X27874Y14961D02*
D03*
X27480Y15354D02*
D03*
X28268D02*
D03*
Y14567D02*
D03*
X28661Y14961D02*
D03*
X27874Y14173D02*
D03*
X27087D02*
D03*
Y14961D02*
D03*
X26693Y14567D02*
D03*
Y15354D02*
D03*
X26299Y14961D02*
D03*
Y14173D02*
D03*
X26693Y13780D02*
D03*
X27480D02*
D03*
X28268D02*
D03*
X28661Y14173D02*
D03*
Y15748D02*
D03*
X27874D02*
D03*
X27087D02*
D03*
X26299D02*
D03*
Y16535D02*
D03*
X26693Y16142D02*
D03*
Y16929D02*
D03*
X27087Y16535D02*
D03*
X27480Y16142D02*
D03*
Y16929D02*
D03*
X28268Y16142D02*
D03*
X27874Y16535D02*
D03*
X28268Y16929D02*
D03*
X28661Y16535D02*
D03*
X26299Y13386D02*
D03*
X27087D02*
D03*
X27874D02*
D03*
X28661D02*
D03*
X28268Y12992D02*
D03*
X27480D02*
D03*
X26693D02*
D03*
X26299Y12598D02*
D03*
X27087D02*
D03*
X27874D02*
D03*
X28661D02*
D03*
X19685Y14567D02*
D03*
X20079Y14961D02*
D03*
X19685Y15354D02*
D03*
X20472D02*
D03*
Y14567D02*
D03*
X20866Y14961D02*
D03*
X20079Y14173D02*
D03*
X19291D02*
D03*
Y14961D02*
D03*
X18898Y14567D02*
D03*
Y15354D02*
D03*
X18504Y14961D02*
D03*
Y14173D02*
D03*
X18898Y13780D02*
D03*
X19685D02*
D03*
X20472D02*
D03*
X20866Y14173D02*
D03*
Y15748D02*
D03*
X20079D02*
D03*
X19291D02*
D03*
X18504D02*
D03*
Y16535D02*
D03*
X18898Y16142D02*
D03*
Y16929D02*
D03*
X19291Y16535D02*
D03*
X19685Y16142D02*
D03*
Y16929D02*
D03*
X20472Y16142D02*
D03*
X20079Y16535D02*
D03*
X20472Y16929D02*
D03*
X20866Y16535D02*
D03*
X18504Y13386D02*
D03*
X19291D02*
D03*
X20079D02*
D03*
X20866D02*
D03*
X20472Y12992D02*
D03*
X19685D02*
D03*
X18898D02*
D03*
X18504Y12598D02*
D03*
X19291D02*
D03*
X20079D02*
D03*
X20866D02*
D03*
X11890Y14567D02*
D03*
X12283Y14961D02*
D03*
X11890Y15354D02*
D03*
X12677D02*
D03*
Y14567D02*
D03*
X13071Y14961D02*
D03*
X12283Y14173D02*
D03*
X11496D02*
D03*
Y14961D02*
D03*
X11102Y14567D02*
D03*
Y15354D02*
D03*
X10709Y14961D02*
D03*
Y14173D02*
D03*
X11102Y13780D02*
D03*
X11890D02*
D03*
X12677D02*
D03*
X13071Y14173D02*
D03*
Y15748D02*
D03*
X12283D02*
D03*
X11496D02*
D03*
X10709D02*
D03*
Y16535D02*
D03*
X11102Y16142D02*
D03*
Y16929D02*
D03*
X11496Y16535D02*
D03*
X11890Y16142D02*
D03*
Y16929D02*
D03*
X12677Y16142D02*
D03*
X12283Y16535D02*
D03*
X12677Y16929D02*
D03*
X13071Y16535D02*
D03*
X10709Y13386D02*
D03*
X11496D02*
D03*
X12283D02*
D03*
X13071D02*
D03*
X12677Y12992D02*
D03*
X11890D02*
D03*
X11102D02*
D03*
X10709Y12598D02*
D03*
X11496D02*
D03*
X12283D02*
D03*
X13071D02*
D03*
X5276D02*
D03*
X3701D02*
D03*
X2913D02*
D03*
X3307Y12992D02*
D03*
X4094D02*
D03*
X4882D02*
D03*
X5276Y13386D02*
D03*
X4488D02*
D03*
X3701D02*
D03*
X2913D02*
D03*
X5276Y16535D02*
D03*
X4882Y16929D02*
D03*
X4488Y16535D02*
D03*
X4882Y16142D02*
D03*
X4094Y16929D02*
D03*
Y16142D02*
D03*
X3701Y16535D02*
D03*
X3307Y16929D02*
D03*
Y16142D02*
D03*
X2913Y16535D02*
D03*
Y15748D02*
D03*
X3701D02*
D03*
X4488D02*
D03*
X5276D02*
D03*
Y14173D02*
D03*
X4882Y13780D02*
D03*
X4094D02*
D03*
X3307D02*
D03*
X2913Y14173D02*
D03*
Y14961D02*
D03*
X3307Y15354D02*
D03*
Y14567D02*
D03*
X3701Y14961D02*
D03*
Y14173D02*
D03*
X4488D02*
D03*
X4882Y14567D02*
D03*
Y15354D02*
D03*
X4094D02*
D03*
X4488Y14961D02*
D03*
X4094Y14567D02*
D03*
X22480Y7717D02*
D03*
X16968D02*
D03*
X20157Y7756D02*
D03*
X19685D02*
D03*
X37926Y13819D02*
D03*
X37935Y13307D02*
D03*
X13937Y11378D02*
D03*
X6181Y11378D02*
D03*
X6614D02*
D03*
X17132Y12317D02*
D03*
X17244Y11339D02*
D03*
X16911Y12817D02*
D03*
X21850Y11339D02*
D03*
X22283D02*
D03*
X29646Y11378D02*
D03*
X30079D02*
D03*
X32717Y12323D02*
D03*
X32795Y11378D02*
D03*
X9370Y12323D02*
D03*
X30234Y13817D02*
D03*
X32520Y12835D02*
D03*
X30246Y13317D02*
D03*
X30236Y12362D02*
D03*
X24746Y12817D02*
D03*
X24921Y12305D02*
D03*
X1457Y12305D02*
D03*
X22435Y12317D02*
D03*
X6841Y13317D02*
D03*
X9116Y12817D02*
D03*
X6856Y12317D02*
D03*
X1321Y12817D02*
D03*
X14608Y13817D02*
D03*
X14596Y13317D02*
D03*
X14600Y12317D02*
D03*
X22443Y13817D02*
D03*
X22431Y13317D02*
D03*
X37959Y12317D02*
D03*
X37874Y11339D02*
D03*
X37480Y11693D02*
D03*
X14370Y11378D02*
D03*
X25394D02*
D03*
X10000Y11339D02*
D03*
X2480Y11378D02*
D03*
D47*
X12756Y7717D02*
D03*
D48*
X35945Y9370D02*
D03*
M02*
