G04 Layer_Physical_Order=2*
G04 Layer_Color=16711680*
%FSLAX24Y24*%
%MOIN*%
G70*
G01*
G75*
G04:AMPARAMS|DCode=11|XSize=39.4mil|YSize=35.4mil|CornerRadius=4.4mil|HoleSize=0mil|Usage=FLASHONLY|Rotation=0.000|XOffset=0mil|YOffset=0mil|HoleType=Round|Shape=RoundedRectangle|*
%AMROUNDEDRECTD11*
21,1,0.0394,0.0266,0,0,0.0*
21,1,0.0305,0.0354,0,0,0.0*
1,1,0.0089,0.0153,-0.0133*
1,1,0.0089,-0.0153,-0.0133*
1,1,0.0089,-0.0153,0.0133*
1,1,0.0089,0.0153,0.0133*
%
%ADD11ROUNDEDRECTD11*%
%ADD17R,0.1575X0.1181*%
%ADD20R,0.1575X0.1811*%
%ADD34C,0.0197*%
%ADD35C,0.0157*%
%ADD40C,0.0630*%
%ADD41C,0.0512*%
%ADD42R,0.0532X0.0532*%
%ADD43C,0.0532*%
%ADD44C,0.0354*%
%ADD45C,0.0394*%
%ADD46C,0.0315*%
%ADD47C,0.0276*%
%ADD48C,0.0551*%
%ADD49R,0.0551X0.0276*%
G36*
X19644Y18391D02*
X19644Y18391D01*
X19560Y18313D01*
X19549Y18307D01*
X17008Y18307D01*
X16654Y17953D01*
Y15472D01*
X17323D01*
Y14647D01*
X15827D01*
Y19565D01*
X19644D01*
Y18391D01*
D02*
G37*
G36*
X15746Y14647D02*
X14252D01*
Y15472D01*
X14921D01*
Y17953D01*
X14567Y18307D01*
X12013Y18307D01*
X11929Y18391D01*
Y19565D01*
X15746D01*
Y14647D01*
D02*
G37*
G36*
X11849Y18391D02*
X11849Y18391D01*
X11765Y18313D01*
X11754Y18307D01*
X9213Y18307D01*
X8858Y17953D01*
Y15472D01*
X9528D01*
Y14685D01*
X8031D01*
Y19565D01*
X11849D01*
Y18391D01*
D02*
G37*
G36*
X7951Y14685D02*
X6472D01*
Y15453D01*
X6530Y15512D01*
X7126D01*
X7126Y17953D01*
X6772Y18307D01*
X4217Y18307D01*
X4134Y18391D01*
Y19565D01*
X7951D01*
Y14685D01*
D02*
G37*
G36*
X4054Y18391D02*
X4054Y18391D01*
X3970Y18313D01*
X3959Y18307D01*
X1378Y18307D01*
X1024Y17953D01*
Y15472D01*
X1732D01*
Y14647D01*
X204D01*
X120Y14731D01*
X120Y19565D01*
X4054D01*
Y18391D01*
D02*
G37*
G36*
X35433Y8661D02*
Y7547D01*
X35324Y7502D01*
X34543Y8283D01*
X34491Y8318D01*
X34429Y8330D01*
X34429Y8330D01*
X28276D01*
X28126Y8480D01*
X28074Y8514D01*
X28013Y8527D01*
X28013Y8527D01*
X27735D01*
X27735Y8527D01*
X27674Y8514D01*
X27622Y8480D01*
X27622Y8480D01*
X27413Y8271D01*
X26469D01*
X26445Y8281D01*
X26378Y8290D01*
X26311Y8281D01*
X26249Y8255D01*
X26195Y8214D01*
X26154Y8161D01*
X26129Y8098D01*
X26120Y8031D01*
X26127Y7976D01*
X26124Y7959D01*
X26045Y7858D01*
X25016D01*
X25002Y7874D01*
X24993Y7941D01*
X24968Y8003D01*
X24927Y8057D01*
X24873Y8098D01*
X24811Y8123D01*
X24744Y8132D01*
X24677Y8123D01*
X24615Y8098D01*
X24562Y8057D01*
X24521Y8003D01*
X24495Y7941D01*
X24486Y7874D01*
X24472Y7858D01*
X24138D01*
X23443Y8552D01*
X23488Y8661D01*
X35433D01*
D02*
G37*
G36*
X1265Y8661D02*
X1266Y8654D01*
X1292Y8591D01*
X1333Y8538D01*
X1387Y8497D01*
X1449Y8471D01*
X1516Y8462D01*
X1583Y8471D01*
X1645Y8497D01*
X1698Y8538D01*
X1700Y8540D01*
X2893D01*
X2912Y8516D01*
X2945Y8422D01*
X2926Y8397D01*
X2900Y8335D01*
X2891Y8268D01*
X2900Y8201D01*
X2926Y8139D01*
X2967Y8085D01*
X3021Y8044D01*
X3083Y8018D01*
X3150Y8010D01*
X3216Y8018D01*
X3279Y8044D01*
X3332Y8085D01*
X3373Y8139D01*
X3399Y8201D01*
X3402Y8225D01*
X8820D01*
X8820Y8225D01*
X8881Y8237D01*
X8933Y8272D01*
X8981Y8320D01*
X10073D01*
X10113Y8202D01*
X10109Y8198D01*
X10068Y8145D01*
X10042Y8083D01*
X10033Y8016D01*
X10042Y7949D01*
X10068Y7887D01*
X10109Y7833D01*
X10162Y7792D01*
X10225Y7766D01*
X10291Y7758D01*
X10358Y7766D01*
X10420Y7792D01*
X10474Y7833D01*
X10515Y7887D01*
X10541Y7949D01*
X10549Y8016D01*
X10649Y8084D01*
X11424D01*
X11533Y8012D01*
X11542Y7945D01*
X11568Y7883D01*
X11609Y7829D01*
X11662Y7788D01*
X11725Y7762D01*
X11791Y7754D01*
X11858Y7762D01*
X11920Y7788D01*
X11974Y7829D01*
X12015Y7883D01*
X12041Y7945D01*
X12041Y7950D01*
X22533D01*
X22776Y7706D01*
Y7021D01*
X22738Y7005D01*
X22656Y6942D01*
X22593Y6860D01*
X22553Y6764D01*
X22540Y6661D01*
X22553Y6559D01*
X22593Y6463D01*
X22656Y6381D01*
X22738Y6318D01*
X22834Y6278D01*
X22937Y6264D01*
X23040Y6278D01*
X23078Y6294D01*
X23186Y6185D01*
Y6064D01*
X23146Y6056D01*
X23105Y6029D01*
X23078Y5988D01*
X23068Y5940D01*
Y5674D01*
X23076Y5635D01*
X23071Y5630D01*
Y5315D01*
X23076Y5310D01*
X23068Y5271D01*
Y5197D01*
X23346D01*
Y5138D01*
X23406D01*
Y4879D01*
X23499D01*
X23547Y4889D01*
X23572Y4906D01*
X23592Y4916D01*
X23692D01*
X23712Y4906D01*
X23736Y4889D01*
X23784Y4879D01*
X23878D01*
Y5138D01*
X23996D01*
Y4879D01*
X24090D01*
X24138Y4889D01*
X24162Y4906D01*
X24182Y4916D01*
X24282D01*
X24302Y4906D01*
X24327Y4889D01*
X24375Y4879D01*
X24469D01*
Y5138D01*
X24528D01*
Y5197D01*
X24806D01*
Y5271D01*
X24798Y5310D01*
X24803Y5315D01*
Y5630D01*
X24798Y5635D01*
X24806Y5674D01*
Y5940D01*
X24796Y5988D01*
X24769Y6029D01*
X24728Y6056D01*
X24688Y6064D01*
Y6185D01*
X24796Y6294D01*
X24834Y6278D01*
X24937Y6264D01*
X25040Y6278D01*
X25136Y6318D01*
X25218Y6381D01*
X25281Y6463D01*
X25321Y6559D01*
X25334Y6661D01*
X25321Y6764D01*
X25281Y6860D01*
X25218Y6942D01*
X25136Y7005D01*
X25040Y7045D01*
X24937Y7059D01*
X24834Y7045D01*
X24738Y7005D01*
X24660Y6945D01*
X24218Y7387D01*
X24263Y7497D01*
X33862D01*
X34202Y7157D01*
X34193Y7103D01*
X34193Y7102D01*
X34063Y7036D01*
X34040Y7045D01*
X33937Y7059D01*
X33834Y7045D01*
X33738Y7005D01*
X33656Y6942D01*
X33593Y6860D01*
X33553Y6764D01*
X33540Y6661D01*
X33553Y6559D01*
X33593Y6463D01*
X33656Y6381D01*
X33738Y6318D01*
X33782Y6300D01*
X33792Y6222D01*
X33787Y6170D01*
X33740Y6134D01*
X33696Y6077D01*
X33669Y6010D01*
X33659Y5938D01*
X33669Y5866D01*
X33696Y5799D01*
X33740Y5741D01*
X33798Y5697D01*
X33858Y5672D01*
X33858Y1378D01*
X35433D01*
X35433Y204D01*
X35350Y120D01*
X31496D01*
X204D01*
X120Y204D01*
X120Y8661D01*
X1265D01*
D02*
G37*
G36*
X35284Y18233D02*
X35315Y18227D01*
X37919Y18227D01*
X38227Y17919D01*
X38227Y16117D01*
X38143Y16033D01*
X37571D01*
Y15909D01*
X37327Y15665D01*
X37293Y15613D01*
X37280Y15551D01*
X37280Y15551D01*
Y12999D01*
X37131Y12849D01*
X37096Y12797D01*
X37084Y12736D01*
X37084Y12736D01*
Y11969D01*
X37084Y11968D01*
X37096Y11907D01*
X37131Y11855D01*
X37248Y11737D01*
X37239Y11693D01*
X37258Y11601D01*
X37310Y11523D01*
X37388Y11470D01*
X37480Y11452D01*
X37543Y11464D01*
X37618Y11406D01*
X37640Y11374D01*
X37633Y11339D01*
X37641Y11301D01*
X37563Y11183D01*
X33091Y11183D01*
X33032Y11266D01*
X33021Y11301D01*
X33036Y11378D01*
X33034Y11389D01*
X33172Y11528D01*
X33172Y11528D01*
X33207Y11580D01*
X33219Y11641D01*
Y13083D01*
X33219Y13083D01*
X33207Y13145D01*
X33172Y13197D01*
X33172Y13197D01*
X32985Y13384D01*
X32991Y13502D01*
X33071D01*
X33102Y13509D01*
X33128Y13526D01*
X33145Y13552D01*
X33151Y13583D01*
Y14567D01*
X33145Y14598D01*
X33128Y14624D01*
X33102Y14641D01*
X33071Y14647D01*
X33033Y14685D01*
Y15600D01*
X33027Y15631D01*
X33010Y15657D01*
X32983Y15675D01*
X32980Y15675D01*
Y16033D01*
X32324D01*
Y17919D01*
X32632Y18227D01*
X35235D01*
X35247Y18229D01*
X35260Y18231D01*
X35263Y18232D01*
X35265Y18233D01*
X35275Y18239D01*
X35284Y18233D01*
D02*
G37*
G36*
X39250Y9055D02*
X204D01*
X120Y9139D01*
Y14567D01*
X1866D01*
Y13583D01*
X1142D01*
Y13533D01*
X1090D01*
Y13100D01*
X1090D01*
Y13033D01*
X1090D01*
Y12868D01*
X1080Y12817D01*
X1090Y12766D01*
Y12600D01*
X1090D01*
Y12533D01*
X1090D01*
Y12100D01*
X1090D01*
X1142Y12049D01*
Y11102D01*
X7087Y11102D01*
Y12100D01*
X7099D01*
Y12533D01*
X7099D01*
Y12600D01*
X7099D01*
Y13033D01*
X7099D01*
Y13100D01*
X7099D01*
Y13533D01*
X7099D01*
Y13600D01*
X7099D01*
Y14033D01*
X7087D01*
Y14055D01*
X6862D01*
X6848Y14058D01*
X6835Y14055D01*
X6472D01*
Y14567D01*
X9646D01*
Y13583D01*
X8898D01*
Y13533D01*
X8885D01*
Y13100D01*
X8885D01*
Y13033D01*
X8885D01*
Y12868D01*
X8875Y12817D01*
X8885Y12766D01*
Y12600D01*
X8885D01*
Y12533D01*
X8885D01*
Y12100D01*
X8898D01*
Y11102D01*
X9075D01*
X9106Y11089D01*
X9173Y11080D01*
X9240Y11089D01*
X9272Y11102D01*
X9977D01*
X10000Y11098D01*
X10023Y11102D01*
X14921D01*
Y14055D01*
X14622D01*
X14608Y14058D01*
X14595Y14055D01*
X14173D01*
Y14567D01*
X17402D01*
Y13583D01*
X16732D01*
Y13533D01*
X16681D01*
Y13100D01*
X16681D01*
Y13033D01*
X16681D01*
Y12868D01*
X16671Y12817D01*
X16681Y12766D01*
Y12600D01*
X16681D01*
Y12533D01*
X16681D01*
Y12100D01*
X16732D01*
Y11102D01*
X17221D01*
X17244Y11098D01*
X17267Y11102D01*
X21827D01*
X21850Y11098D01*
X21874Y11102D01*
X22260D01*
X22283Y11098D01*
X22307Y11102D01*
X22677D01*
Y12100D01*
X22689D01*
Y12533D01*
X22689D01*
Y12600D01*
X22689D01*
Y13033D01*
X22689D01*
Y13100D01*
X22689D01*
Y13533D01*
X22689D01*
Y13600D01*
X22689D01*
Y14033D01*
X22677D01*
Y14094D01*
X22063D01*
Y14567D01*
X25197D01*
Y13583D01*
X24528D01*
Y13533D01*
X24476D01*
Y13100D01*
X24476D01*
Y13033D01*
X24476D01*
Y12600D01*
X24476D01*
Y12533D01*
X24476D01*
Y12100D01*
X24478D01*
X24504Y12068D01*
Y11522D01*
X24502Y11521D01*
X24461Y11468D01*
X24436Y11405D01*
X24427Y11339D01*
X24436Y11272D01*
X24461Y11209D01*
X24502Y11156D01*
X24528Y11137D01*
Y11102D01*
X24586D01*
X24618Y11089D01*
X24685Y11080D01*
X24752Y11089D01*
X24784Y11102D01*
X30472D01*
Y12100D01*
X30485D01*
Y12533D01*
X30485D01*
Y12600D01*
X30485D01*
Y13033D01*
X30485D01*
Y13100D01*
X30485D01*
Y13306D01*
X30487Y13317D01*
X30485Y13328D01*
Y13533D01*
X30485D01*
Y13600D01*
X30485D01*
Y14033D01*
X30472D01*
Y14055D01*
X30248D01*
X30234Y14058D01*
X30221Y14055D01*
X29858D01*
Y14567D01*
X33071D01*
Y13583D01*
X32283D01*
Y13533D01*
X32271D01*
Y13100D01*
X32271D01*
Y13033D01*
X32271D01*
Y12600D01*
X32271D01*
Y12533D01*
X32271D01*
Y12100D01*
X32283D01*
Y11102D01*
X37851Y11102D01*
X37874Y11098D01*
X37897Y11102D01*
X38307D01*
Y14173D01*
X37602D01*
Y14600D01*
X38280D01*
Y14605D01*
X39250D01*
Y9055D01*
D02*
G37*
G36*
X11956Y18250D02*
X11982Y18233D01*
X12013Y18227D01*
X14534Y18227D01*
X14841Y17919D01*
Y16033D01*
X14185D01*
Y15966D01*
X14181Y15965D01*
X14129Y15930D01*
X14129Y15930D01*
X13823Y15625D01*
X13789Y15573D01*
X13776Y15512D01*
X13776Y15512D01*
Y12960D01*
X13587Y12770D01*
X13552Y12718D01*
X13540Y12657D01*
X13540Y12657D01*
Y11614D01*
X13540Y11614D01*
X13552Y11553D01*
X13587Y11501D01*
X13698Y11389D01*
X13696Y11378D01*
X13712Y11301D01*
X13700Y11265D01*
X13641Y11183D01*
X10311D01*
X10233Y11301D01*
X10241Y11339D01*
X10223Y11431D01*
X10170Y11509D01*
X10092Y11561D01*
X10000Y11579D01*
X9989Y11577D01*
X9846Y11720D01*
Y13071D01*
X9846Y13071D01*
X9833Y13132D01*
X9799Y13184D01*
X9799Y13184D01*
X9599Y13384D01*
X9605Y13502D01*
X9646D01*
X9676Y13509D01*
X9702Y13526D01*
X9720Y13552D01*
X9726Y13583D01*
Y14567D01*
X9720Y14598D01*
X9702Y14624D01*
X9676Y14641D01*
X9646Y14647D01*
X9608Y14685D01*
Y15472D01*
X9605Y15487D01*
X9594Y15600D01*
X9594Y15600D01*
Y16033D01*
X8939D01*
Y17919D01*
X9246Y18227D01*
X11754Y18227D01*
X11758Y18228D01*
X11761Y18227D01*
X11773Y18231D01*
X11785Y18233D01*
X11788Y18235D01*
X11791Y18236D01*
X11802Y18242D01*
X11811Y18248D01*
X11820Y18254D01*
X11888Y18318D01*
X11956Y18250D01*
D02*
G37*
G36*
X4161D02*
X4187Y18233D01*
X4217Y18227D01*
X6738Y18227D01*
X7046Y17919D01*
X7046Y16117D01*
X6962Y16033D01*
X6390D01*
Y15826D01*
X6198Y15633D01*
X6163Y15581D01*
X6151Y15520D01*
X6151Y15520D01*
Y12932D01*
X5949Y12731D01*
X5915Y12679D01*
X5902Y12618D01*
X5902Y12618D01*
Y11496D01*
X5902Y11496D01*
X5915Y11435D01*
X5943Y11392D01*
X5940Y11378D01*
X5956Y11301D01*
X5944Y11266D01*
X5885Y11183D01*
X2776Y11183D01*
X2717Y11266D01*
X2706Y11301D01*
X2721Y11378D01*
X2703Y11470D01*
X2651Y11548D01*
X2572Y11600D01*
X2480Y11619D01*
X2469Y11617D01*
X2050Y12035D01*
Y13008D01*
X2050Y13008D01*
X2038Y13069D01*
X2003Y13121D01*
X1799Y13326D01*
Y13502D01*
X1866D01*
X1897Y13509D01*
X1923Y13526D01*
X1940Y13552D01*
X1946Y13583D01*
Y14567D01*
X1940Y14598D01*
X1923Y14624D01*
X1897Y14641D01*
X1866Y14647D01*
X1813D01*
Y15472D01*
X1810Y15487D01*
X1799Y15600D01*
X1799Y15600D01*
Y16033D01*
X1104D01*
Y17919D01*
X1411Y18227D01*
X3959Y18227D01*
X3963Y18228D01*
X3966Y18227D01*
X3978Y18231D01*
X3990Y18233D01*
X3993Y18235D01*
X3996Y18236D01*
X4007Y18242D01*
X4015Y18248D01*
X4025Y18254D01*
X4093Y18318D01*
X4161Y18250D01*
D02*
G37*
G36*
X27546D02*
X27572Y18233D01*
X27603Y18227D01*
X30124Y18227D01*
X30432Y17919D01*
X30432Y16117D01*
X30348Y16033D01*
X29776D01*
Y15826D01*
X29584Y15633D01*
X29549Y15581D01*
X29537Y15520D01*
X29537Y15520D01*
Y12921D01*
X29347Y12731D01*
X29313Y12679D01*
X29300Y12618D01*
X29300Y12618D01*
Y11563D01*
X29300Y11563D01*
X29313Y11501D01*
X29347Y11449D01*
X29407Y11389D01*
X29405Y11378D01*
X29420Y11301D01*
X29409Y11266D01*
X29350Y11183D01*
X25689D01*
X25630Y11266D01*
X25619Y11301D01*
X25635Y11378D01*
X25616Y11470D01*
X25564Y11548D01*
X25515Y11581D01*
Y13150D01*
X25515Y13150D01*
X25503Y13211D01*
X25468Y13263D01*
X25310Y13421D01*
X25261Y13513D01*
X25271Y13552D01*
X25271D01*
X25272Y13557D01*
X25277Y13583D01*
Y14567D01*
X25271Y14598D01*
X25254Y14624D01*
X25228Y14641D01*
X25197Y14653D01*
X25198Y14685D01*
Y15472D01*
X25196Y15487D01*
X25185Y15600D01*
X25185Y15600D01*
Y16033D01*
X24529D01*
Y17919D01*
X24836Y18227D01*
X27345Y18227D01*
X27348Y18228D01*
X27352Y18227D01*
X27364Y18231D01*
X27375Y18233D01*
X27379Y18235D01*
X27382Y18236D01*
X27393Y18242D01*
X27401Y18248D01*
X27410Y18254D01*
X27479Y18318D01*
X27546Y18250D01*
D02*
G37*
G36*
X19751D02*
X19777Y18233D01*
X19808Y18227D01*
X22329Y18227D01*
X22636Y17919D01*
X22636Y16117D01*
X22553Y16033D01*
X21981D01*
Y15826D01*
X21788Y15633D01*
X21754Y15581D01*
X21741Y15520D01*
X21741Y15520D01*
Y13011D01*
X21540Y12810D01*
X21505Y12758D01*
X21493Y12696D01*
X21493Y12696D01*
Y11535D01*
X21493Y11535D01*
X21505Y11474D01*
X21540Y11422D01*
X21612Y11350D01*
X21610Y11339D01*
X21617Y11301D01*
X21539Y11183D01*
X17555D01*
X17477Y11301D01*
X17485Y11339D01*
X17483Y11350D01*
X17594Y11461D01*
X17629Y11513D01*
X17641Y11575D01*
X17641Y11575D01*
Y13032D01*
X17629Y13093D01*
X17594Y13145D01*
X17594Y13145D01*
X17389Y13350D01*
Y13502D01*
X17402D01*
X17432Y13509D01*
X17458Y13526D01*
X17476Y13552D01*
X17482Y13583D01*
Y14128D01*
X17483Y14134D01*
X17482Y14140D01*
Y14567D01*
X17476Y14598D01*
X17458Y14624D01*
X17432Y14641D01*
X17403Y14647D01*
X17403Y14647D01*
Y15472D01*
X17400Y15487D01*
X17389Y15600D01*
X17389Y15600D01*
Y16033D01*
X16734D01*
Y17919D01*
X17041Y18227D01*
X19549Y18227D01*
X19553Y18228D01*
X19557Y18227D01*
X19568Y18231D01*
X19580Y18233D01*
X19583Y18235D01*
X19587Y18236D01*
X19598Y18242D01*
X19606Y18248D01*
X19615Y18254D01*
X19684Y18318D01*
X19751Y18250D01*
D02*
G37*
G36*
X39250Y14685D02*
X37638D01*
Y15515D01*
X37723Y15600D01*
X38280Y15600D01*
X38307Y15669D01*
X38307Y15707D01*
X38307Y17953D01*
X37953Y18307D01*
X35315Y18307D01*
Y19565D01*
X39250D01*
Y14685D01*
D02*
G37*
G36*
X27439Y18391D02*
X27439Y18391D01*
X27356Y18313D01*
X27345Y18307D01*
X24803Y18307D01*
X24449Y17953D01*
Y15472D01*
X25118D01*
Y14685D01*
X23622D01*
Y19565D01*
X27439D01*
Y18391D01*
D02*
G37*
G36*
X23542Y14685D02*
X22063D01*
Y15453D01*
X22160Y15551D01*
X22717D01*
X22717Y17953D01*
X22362Y18307D01*
X19808Y18307D01*
X19724Y18391D01*
Y19565D01*
X23542D01*
Y14685D01*
D02*
G37*
G36*
X35235Y18307D02*
X35235Y18307D01*
X32598D01*
X32244Y17953D01*
Y15669D01*
X32271D01*
Y15600D01*
X32953D01*
Y14685D01*
X31417D01*
Y19565D01*
X35235D01*
Y18307D01*
D02*
G37*
G36*
X31337Y14685D02*
X29858D01*
Y15453D01*
X29916Y15512D01*
X30512D01*
X30512Y17953D01*
X30157Y18307D01*
X27603Y18307D01*
X27520Y18391D01*
Y19565D01*
X31337D01*
Y14685D01*
D02*
G37*
%LPC*%
G36*
X31654Y2897D02*
X31556Y2884D01*
X31465Y2846D01*
X31387Y2786D01*
X31327Y2708D01*
X31289Y2617D01*
X31276Y2520D01*
X31289Y2422D01*
X31327Y2331D01*
X31387Y2253D01*
X31465Y2193D01*
X31556Y2155D01*
X31654Y2142D01*
X31751Y2155D01*
X31842Y2193D01*
X31920Y2253D01*
X31980Y2331D01*
X32018Y2422D01*
X32031Y2520D01*
X32018Y2617D01*
X31980Y2708D01*
X31920Y2786D01*
X31842Y2846D01*
X31751Y2884D01*
X31654Y2897D01*
D02*
G37*
G36*
X11339Y2897D02*
X11241Y2884D01*
X11150Y2846D01*
X11072Y2786D01*
X11012Y2708D01*
X10974Y2617D01*
X10961Y2520D01*
X10974Y2422D01*
X11012Y2331D01*
X11072Y2253D01*
X11150Y2193D01*
X11241Y2155D01*
X11339Y2142D01*
X11436Y2155D01*
X11527Y2193D01*
X11605Y2253D01*
X11665Y2331D01*
X11703Y2422D01*
X11716Y2520D01*
X11703Y2617D01*
X11665Y2708D01*
X11605Y2786D01*
X11527Y2846D01*
X11436Y2884D01*
X11339Y2897D01*
D02*
G37*
G36*
X28268Y2897D02*
X28170Y2884D01*
X28079Y2846D01*
X28001Y2786D01*
X27941Y2708D01*
X27903Y2617D01*
X27890Y2520D01*
X27903Y2422D01*
X27941Y2331D01*
X28001Y2253D01*
X28079Y2193D01*
X28170Y2155D01*
X28268Y2142D01*
X28365Y2155D01*
X28456Y2193D01*
X28534Y2253D01*
X28594Y2331D01*
X28632Y2422D01*
X28645Y2520D01*
X28632Y2617D01*
X28594Y2708D01*
X28534Y2786D01*
X28456Y2846D01*
X28365Y2884D01*
X28268Y2897D01*
D02*
G37*
G36*
X5856Y2707D02*
X5167D01*
Y2018D01*
X5856D01*
Y2707D01*
D02*
G37*
G36*
X21496Y2897D02*
X21398Y2884D01*
X21307Y2846D01*
X21229Y2786D01*
X21169Y2708D01*
X21132Y2617D01*
X21119Y2520D01*
X21132Y2422D01*
X21169Y2331D01*
X21229Y2253D01*
X21307Y2193D01*
X21398Y2155D01*
X21496Y2142D01*
X21594Y2155D01*
X21685Y2193D01*
X21763Y2253D01*
X21823Y2331D01*
X21860Y2422D01*
X21873Y2520D01*
X21860Y2617D01*
X21823Y2708D01*
X21763Y2786D01*
X21685Y2846D01*
X21594Y2884D01*
X21496Y2897D01*
D02*
G37*
G36*
X14724Y2897D02*
X14627Y2884D01*
X14536Y2846D01*
X14458Y2786D01*
X14398Y2708D01*
X14360Y2617D01*
X14347Y2520D01*
X14360Y2422D01*
X14398Y2331D01*
X14458Y2253D01*
X14536Y2193D01*
X14627Y2155D01*
X14724Y2142D01*
X14822Y2155D01*
X14913Y2193D01*
X14991Y2253D01*
X15051Y2331D01*
X15089Y2422D01*
X15102Y2520D01*
X15089Y2617D01*
X15051Y2708D01*
X14991Y2786D01*
X14913Y2846D01*
X14822Y2884D01*
X14724Y2897D01*
D02*
G37*
G36*
X26217Y3149D02*
X26129Y3137D01*
X26048Y3103D01*
X25978Y3050D01*
X25924Y2980D01*
X25891Y2898D01*
X25879Y2811D01*
X25891Y2724D01*
X25924Y2642D01*
X25978Y2572D01*
X26048Y2519D01*
X26129Y2485D01*
X26217Y2473D01*
X26304Y2485D01*
X26385Y2519D01*
X26455Y2572D01*
X26509Y2642D01*
X26543Y2724D01*
X26554Y2811D01*
X26543Y2898D01*
X26509Y2980D01*
X26455Y3050D01*
X26385Y3103D01*
X26304Y3137D01*
X26217Y3149D01*
D02*
G37*
G36*
X29602D02*
X29515Y3137D01*
X29434Y3103D01*
X29364Y3050D01*
X29310Y2980D01*
X29276Y2898D01*
X29265Y2811D01*
X29276Y2724D01*
X29310Y2642D01*
X29364Y2572D01*
X29434Y2519D01*
X29515Y2485D01*
X29602Y2473D01*
X29690Y2485D01*
X29771Y2519D01*
X29841Y2572D01*
X29895Y2642D01*
X29928Y2724D01*
X29940Y2811D01*
X29928Y2898D01*
X29895Y2980D01*
X29841Y3050D01*
X29771Y3103D01*
X29690Y3137D01*
X29602Y3149D01*
D02*
G37*
G36*
X19445D02*
X19358Y3137D01*
X19276Y3103D01*
X19206Y3050D01*
X19153Y2980D01*
X19119Y2898D01*
X19107Y2811D01*
X19119Y2724D01*
X19153Y2642D01*
X19206Y2572D01*
X19276Y2519D01*
X19358Y2485D01*
X19445Y2473D01*
X19532Y2485D01*
X19614Y2519D01*
X19684Y2572D01*
X19737Y2642D01*
X19771Y2724D01*
X19782Y2811D01*
X19771Y2898D01*
X19737Y2980D01*
X19684Y3050D01*
X19614Y3103D01*
X19532Y3137D01*
X19445Y3149D01*
D02*
G37*
G36*
X18110Y2897D02*
X18013Y2884D01*
X17922Y2846D01*
X17843Y2786D01*
X17784Y2708D01*
X17746Y2617D01*
X17733Y2520D01*
X17746Y2422D01*
X17784Y2331D01*
X17843Y2253D01*
X17922Y2193D01*
X18013Y2155D01*
X18110Y2142D01*
X18208Y2155D01*
X18299Y2193D01*
X18377Y2253D01*
X18437Y2331D01*
X18475Y2422D01*
X18487Y2520D01*
X18475Y2617D01*
X18437Y2708D01*
X18377Y2786D01*
X18299Y2846D01*
X18208Y2884D01*
X18110Y2897D01*
D02*
G37*
G36*
X24882D02*
X24784Y2884D01*
X24693Y2846D01*
X24615Y2786D01*
X24555Y2708D01*
X24518Y2617D01*
X24505Y2520D01*
X24518Y2422D01*
X24555Y2331D01*
X24615Y2253D01*
X24693Y2193D01*
X24784Y2155D01*
X24882Y2142D01*
X24980Y2155D01*
X25071Y2193D01*
X25149Y2253D01*
X25209Y2331D01*
X25246Y2422D01*
X25259Y2520D01*
X25246Y2617D01*
X25209Y2708D01*
X25149Y2786D01*
X25071Y2846D01*
X24980Y2884D01*
X24882Y2897D01*
D02*
G37*
G36*
X24390Y2141D02*
Y1870D01*
X24660D01*
X24657Y1898D01*
X24623Y1980D01*
X24569Y2050D01*
X24499Y2103D01*
X24418Y2137D01*
X24390Y2141D01*
D02*
G37*
G36*
X11117Y1752D02*
X10846D01*
Y1481D01*
X10875Y1485D01*
X10956Y1519D01*
X11026Y1572D01*
X11080Y1642D01*
X11113Y1724D01*
X11117Y1752D01*
D02*
G37*
G36*
X21004Y2141D02*
Y1870D01*
X21275D01*
X21271Y1898D01*
X21237Y1980D01*
X21184Y2050D01*
X21114Y2103D01*
X21032Y2137D01*
X21004Y2141D01*
D02*
G37*
G36*
X10728Y1752D02*
X10458D01*
X10461Y1724D01*
X10495Y1642D01*
X10549Y1572D01*
X10619Y1519D01*
X10700Y1485D01*
X10728Y1481D01*
Y1752D01*
D02*
G37*
G36*
X33937Y1059D02*
X33834Y1045D01*
X33738Y1005D01*
X33656Y942D01*
X33593Y860D01*
X33553Y764D01*
X33540Y661D01*
X33553Y559D01*
X33593Y463D01*
X33656Y381D01*
X33738Y318D01*
X33834Y278D01*
X33937Y264D01*
X34040Y278D01*
X34136Y318D01*
X34218Y381D01*
X34281Y463D01*
X34321Y559D01*
X34334Y661D01*
X34321Y764D01*
X34281Y860D01*
X34218Y942D01*
X34136Y1005D01*
X34040Y1045D01*
X33937Y1059D01*
D02*
G37*
G36*
X9787Y2149D02*
X9700Y2137D01*
X9619Y2103D01*
X9549Y2050D01*
X9495Y1980D01*
X9461Y1898D01*
X9450Y1811D01*
X9461Y1724D01*
X9495Y1642D01*
X9549Y1572D01*
X9619Y1519D01*
X9700Y1485D01*
X9787Y1473D01*
X9875Y1485D01*
X9956Y1519D01*
X10026Y1572D01*
X10080Y1642D01*
X10113Y1724D01*
X10125Y1811D01*
X10113Y1898D01*
X10080Y1980D01*
X10026Y2050D01*
X9956Y2103D01*
X9875Y2137D01*
X9787Y2149D01*
D02*
G37*
G36*
X27776Y2141D02*
Y1870D01*
X28046D01*
X28043Y1898D01*
X28009Y1980D01*
X27955Y2050D01*
X27885Y2103D01*
X27804Y2137D01*
X27776Y2141D01*
D02*
G37*
G36*
X14232Y2141D02*
Y1870D01*
X14503D01*
X14499Y1898D01*
X14466Y1980D01*
X14412Y2050D01*
X14342Y2103D01*
X14261Y2137D01*
X14232Y2141D01*
D02*
G37*
G36*
X17618D02*
Y1870D01*
X17889D01*
X17885Y1898D01*
X17851Y1980D01*
X17798Y2050D01*
X17728Y2103D01*
X17646Y2137D01*
X17618Y2141D01*
D02*
G37*
G36*
X10846D02*
Y1870D01*
X11117D01*
X11113Y1898D01*
X11080Y1980D01*
X11026Y2050D01*
X10956Y2103D01*
X10875Y2137D01*
X10846Y2141D01*
D02*
G37*
G36*
X31161Y2141D02*
Y1870D01*
X31432D01*
X31428Y1898D01*
X31395Y1980D01*
X31341Y2050D01*
X31271Y2103D01*
X31190Y2137D01*
X31161Y2141D01*
D02*
G37*
G36*
X10728Y2141D02*
X10700Y2137D01*
X10619Y2103D01*
X10549Y2050D01*
X10495Y1980D01*
X10461Y1898D01*
X10458Y1870D01*
X10728D01*
Y2141D01*
D02*
G37*
G36*
X9287Y3149D02*
X9200Y3137D01*
X9119Y3103D01*
X9049Y3050D01*
X8995Y2980D01*
X8961Y2898D01*
X8950Y2811D01*
X8961Y2724D01*
X8995Y2642D01*
X9049Y2572D01*
X9119Y2519D01*
X9200Y2485D01*
X9287Y2473D01*
X9375Y2485D01*
X9456Y2519D01*
X9526Y2572D01*
X9580Y2642D01*
X9613Y2724D01*
X9625Y2811D01*
X9613Y2898D01*
X9580Y2980D01*
X9526Y3050D01*
X9456Y3103D01*
X9375Y3137D01*
X9287Y3149D01*
D02*
G37*
G36*
X31122Y5079D02*
X30903D01*
Y5005D01*
X30913Y4957D01*
X30940Y4916D01*
X30981Y4889D01*
X31029Y4879D01*
X31122D01*
Y5079D01*
D02*
G37*
G36*
X32050D02*
X31831D01*
Y4879D01*
X31924D01*
X31972Y4889D01*
X32013Y4916D01*
X32040Y4957D01*
X32050Y5005D01*
Y5079D01*
D02*
G37*
G36*
X30002D02*
X29783D01*
Y4879D01*
X29877D01*
X29925Y4889D01*
X29966Y4916D01*
X29993Y4957D01*
X30002Y5005D01*
Y5079D01*
D02*
G37*
G36*
X24806D02*
X24587D01*
Y4879D01*
X24680D01*
X24728Y4889D01*
X24769Y4916D01*
X24796Y4957D01*
X24806Y5005D01*
Y5079D01*
D02*
G37*
G36*
X29075D02*
X28856D01*
Y5005D01*
X28865Y4957D01*
X28893Y4916D01*
X28933Y4889D01*
X28981Y4879D01*
X29075D01*
Y5079D01*
D02*
G37*
G36*
X31937Y7059D02*
X31834Y7045D01*
X31738Y7005D01*
X31656Y6942D01*
X31593Y6860D01*
X31553Y6764D01*
X31540Y6661D01*
X31553Y6559D01*
X31593Y6463D01*
X31611Y6439D01*
Y6064D01*
X31571Y6056D01*
X31550Y6042D01*
X31526Y6029D01*
X31445D01*
X31342Y6107D01*
Y6417D01*
X31342Y6417D01*
X31329Y6479D01*
X31304Y6518D01*
X31321Y6559D01*
X31334Y6661D01*
X31321Y6764D01*
X31281Y6860D01*
X31218Y6942D01*
X31136Y7005D01*
X31040Y7045D01*
X30937Y7059D01*
X30834Y7045D01*
X30738Y7005D01*
X30656Y6942D01*
X30593Y6860D01*
X30553Y6764D01*
X30540Y6661D01*
X30553Y6559D01*
X30593Y6463D01*
X30656Y6381D01*
X30738Y6318D01*
X30834Y6278D01*
X30937Y6264D01*
X31021Y6191D01*
Y6064D01*
X30981Y6056D01*
X30940Y6029D01*
X30913Y5988D01*
X30903Y5940D01*
Y5674D01*
X30911Y5635D01*
X30906Y5630D01*
Y5315D01*
X30911Y5310D01*
X30903Y5271D01*
Y5197D01*
X31181D01*
Y5138D01*
X31240D01*
Y4879D01*
X31334D01*
X31382Y4889D01*
X31403Y4903D01*
X31427Y4916D01*
X31526D01*
X31550Y4903D01*
X31571Y4889D01*
X31619Y4879D01*
X31713D01*
Y5138D01*
X31772D01*
Y5197D01*
X32050D01*
Y5271D01*
X32042Y5310D01*
X32047Y5315D01*
Y5630D01*
X32042Y5635D01*
X32050Y5674D01*
Y5940D01*
X32040Y5988D01*
X32013Y6029D01*
X31972Y6056D01*
X31932Y6064D01*
Y6260D01*
X31937Y6264D01*
X32040Y6278D01*
X32136Y6318D01*
X32218Y6381D01*
X32281Y6463D01*
X32321Y6559D01*
X32334Y6661D01*
X32321Y6764D01*
X32281Y6860D01*
X32218Y6942D01*
X32136Y7005D01*
X32040Y7045D01*
X31937Y7059D01*
D02*
G37*
G36*
X26937D02*
X26834Y7045D01*
X26738Y7005D01*
X26656Y6942D01*
X26593Y6860D01*
X26553Y6764D01*
X26540Y6661D01*
X26553Y6559D01*
X26593Y6463D01*
X26656Y6381D01*
X26738Y6318D01*
X26834Y6278D01*
X26937Y6264D01*
X27040Y6278D01*
X27136Y6318D01*
X27218Y6381D01*
X27281Y6463D01*
X27321Y6559D01*
X27334Y6661D01*
X27321Y6764D01*
X27281Y6860D01*
X27218Y6942D01*
X27136Y7005D01*
X27040Y7045D01*
X26937Y7059D01*
D02*
G37*
G36*
X27937D02*
X27834Y7045D01*
X27738Y7005D01*
X27656Y6942D01*
X27593Y6860D01*
X27553Y6764D01*
X27540Y6661D01*
X27553Y6559D01*
X27593Y6463D01*
X27656Y6381D01*
X27738Y6318D01*
X27834Y6278D01*
X27937Y6264D01*
X28040Y6278D01*
X28136Y6318D01*
X28218Y6381D01*
X28281Y6463D01*
X28321Y6559D01*
X28334Y6661D01*
X28321Y6764D01*
X28281Y6860D01*
X28218Y6942D01*
X28136Y7005D01*
X28040Y7045D01*
X27937Y7059D01*
D02*
G37*
G36*
X25937D02*
X25834Y7045D01*
X25738Y7005D01*
X25656Y6942D01*
X25593Y6860D01*
X25553Y6764D01*
X25540Y6661D01*
X25553Y6559D01*
X25593Y6463D01*
X25656Y6381D01*
X25738Y6318D01*
X25834Y6278D01*
X25937Y6264D01*
X26040Y6278D01*
X26136Y6318D01*
X26218Y6381D01*
X26281Y6463D01*
X26321Y6559D01*
X26334Y6661D01*
X26321Y6764D01*
X26281Y6860D01*
X26218Y6942D01*
X26136Y7005D01*
X26040Y7045D01*
X25937Y7059D01*
D02*
G37*
G36*
X29937D02*
X29834Y7045D01*
X29738Y7005D01*
X29656Y6942D01*
X29593Y6860D01*
X29553Y6764D01*
X29540Y6661D01*
X29553Y6559D01*
X29575Y6506D01*
X29564Y6449D01*
X29564Y6449D01*
Y6064D01*
X29524Y6056D01*
X29503Y6042D01*
X29478Y6029D01*
X29398D01*
X29294Y6107D01*
Y6465D01*
X29294Y6465D01*
X29290Y6485D01*
X29321Y6559D01*
X29334Y6661D01*
X29321Y6764D01*
X29281Y6860D01*
X29218Y6942D01*
X29136Y7005D01*
X29040Y7045D01*
X28937Y7059D01*
X28834Y7045D01*
X28738Y7005D01*
X28656Y6942D01*
X28593Y6860D01*
X28553Y6764D01*
X28540Y6661D01*
X28553Y6559D01*
X28593Y6463D01*
X28656Y6381D01*
X28738Y6318D01*
X28834Y6278D01*
X28937Y6264D01*
X28973Y6233D01*
Y6064D01*
X28933Y6056D01*
X28893Y6029D01*
X28865Y5988D01*
X28856Y5940D01*
Y5674D01*
X28864Y5635D01*
X28858Y5630D01*
Y5315D01*
X28864Y5310D01*
X28856Y5271D01*
Y5197D01*
X29134D01*
Y5138D01*
X29193D01*
Y4879D01*
X29286D01*
X29334Y4889D01*
X29355Y4903D01*
X29380Y4916D01*
X29478D01*
X29503Y4903D01*
X29524Y4889D01*
X29572Y4879D01*
X29665D01*
Y5138D01*
X29724D01*
Y5197D01*
X30002D01*
Y5271D01*
X29995Y5310D01*
X30000Y5315D01*
Y5630D01*
X29995Y5635D01*
X30002Y5674D01*
Y5940D01*
X29993Y5988D01*
X29966Y6029D01*
X29925Y6056D01*
X29885Y6064D01*
Y6219D01*
X29937Y6264D01*
X30040Y6278D01*
X30136Y6318D01*
X30218Y6381D01*
X30281Y6463D01*
X30321Y6559D01*
X30334Y6661D01*
X30321Y6764D01*
X30281Y6860D01*
X30218Y6942D01*
X30136Y7005D01*
X30040Y7045D01*
X29937Y7059D01*
D02*
G37*
G36*
X1181Y7562D02*
X1050Y7549D01*
X924Y7511D01*
X807Y7449D01*
X706Y7365D01*
X622Y7263D01*
X560Y7147D01*
X521Y7021D01*
X509Y6890D01*
X521Y6759D01*
X560Y6632D01*
X622Y6516D01*
X706Y6414D01*
X807Y6331D01*
X924Y6268D01*
X1050Y6230D01*
X1181Y6217D01*
X1312Y6230D01*
X1438Y6268D01*
X1555Y6331D01*
X1657Y6414D01*
X1740Y6516D01*
X1802Y6632D01*
X1841Y6759D01*
X1854Y6890D01*
X1841Y7021D01*
X1802Y7147D01*
X1740Y7263D01*
X1657Y7365D01*
X1555Y7449D01*
X1438Y7511D01*
X1312Y7549D01*
X1181Y7562D01*
D02*
G37*
G36*
X23287Y5079D02*
X23068D01*
Y5005D01*
X23078Y4957D01*
X23105Y4916D01*
X23146Y4889D01*
X23194Y4879D01*
X23287D01*
Y5079D01*
D02*
G37*
G36*
X12614Y2752D02*
X12343D01*
X12347Y2724D01*
X12381Y2642D01*
X12435Y2572D01*
X12504Y2519D01*
X12586Y2485D01*
X12614Y2481D01*
Y2752D01*
D02*
G37*
G36*
X13003D02*
X12732D01*
Y2481D01*
X12761Y2485D01*
X12842Y2519D01*
X12912Y2572D01*
X12966Y2642D01*
X12999Y2724D01*
X13003Y2752D01*
D02*
G37*
G36*
X22831Y3149D02*
X22743Y3137D01*
X22662Y3103D01*
X22592Y3050D01*
X22538Y2980D01*
X22505Y2898D01*
X22493Y2811D01*
X22505Y2724D01*
X22538Y2642D01*
X22592Y2572D01*
X22662Y2519D01*
X22743Y2485D01*
X22831Y2473D01*
X22918Y2485D01*
X22999Y2519D01*
X23069Y2572D01*
X23123Y2642D01*
X23157Y2724D01*
X23168Y2811D01*
X23157Y2898D01*
X23123Y2980D01*
X23069Y3050D01*
X22999Y3103D01*
X22918Y3137D01*
X22831Y3149D01*
D02*
G37*
G36*
X10287D02*
X10200Y3137D01*
X10119Y3103D01*
X10049Y3050D01*
X9995Y2980D01*
X9961Y2898D01*
X9950Y2811D01*
X9961Y2724D01*
X9995Y2642D01*
X10049Y2572D01*
X10119Y2519D01*
X10200Y2485D01*
X10287Y2473D01*
X10375Y2485D01*
X10456Y2519D01*
X10526Y2572D01*
X10580Y2642D01*
X10613Y2724D01*
X10625Y2811D01*
X10613Y2898D01*
X10580Y2980D01*
X10526Y3050D01*
X10456Y3103D01*
X10375Y3137D01*
X10287Y3149D01*
D02*
G37*
G36*
X16059D02*
X15972Y3137D01*
X15890Y3103D01*
X15820Y3050D01*
X15767Y2980D01*
X15733Y2898D01*
X15722Y2811D01*
X15733Y2724D01*
X15767Y2642D01*
X15820Y2572D01*
X15890Y2519D01*
X15972Y2485D01*
X16059Y2473D01*
X16146Y2485D01*
X16228Y2519D01*
X16298Y2572D01*
X16351Y2642D01*
X16385Y2724D01*
X16397Y2811D01*
X16385Y2898D01*
X16351Y2980D01*
X16298Y3050D01*
X16228Y3103D01*
X16146Y3137D01*
X16059Y3149D01*
D02*
G37*
G36*
X12614Y3141D02*
X12586Y3137D01*
X12504Y3103D01*
X12435Y3050D01*
X12381Y2980D01*
X12347Y2898D01*
X12343Y2870D01*
X12614D01*
Y3141D01*
D02*
G37*
G36*
X21937Y7059D02*
X21834Y7045D01*
X21738Y7005D01*
X21656Y6942D01*
X21593Y6860D01*
X21553Y6764D01*
X21540Y6661D01*
X21553Y6559D01*
X21593Y6463D01*
X21656Y6381D01*
X21738Y6318D01*
X21776Y6302D01*
Y6157D01*
X21685Y6065D01*
X21501D01*
X21453Y6056D01*
X21412Y6029D01*
X21385Y5988D01*
X21376Y5940D01*
Y5674D01*
X21383Y5635D01*
X21378Y5630D01*
Y5315D01*
X21383Y5310D01*
X21376Y5271D01*
Y5197D01*
X21654D01*
Y5138D01*
X21713D01*
Y4879D01*
X21806D01*
X21854Y4889D01*
X21879Y4906D01*
X21899Y4916D01*
X21958D01*
X22063Y4825D01*
Y4082D01*
X20701D01*
X20265Y4518D01*
X20222Y4621D01*
X20263Y4674D01*
X20289Y4736D01*
X20297Y4803D01*
X20289Y4870D01*
X20263Y4932D01*
X20222Y4986D01*
X20168Y5027D01*
X20106Y5052D01*
X20039Y5061D01*
X19973Y5052D01*
X19910Y5027D01*
X19857Y4986D01*
X19816Y4932D01*
X19790Y4870D01*
X19781Y4803D01*
X19790Y4736D01*
X19816Y4674D01*
X19857Y4621D01*
X19859Y4619D01*
Y4488D01*
X19872Y4419D01*
X19912Y4360D01*
X20371Y3902D01*
X20317Y3848D01*
X20278Y3790D01*
X20264Y3720D01*
Y3094D01*
X20206Y3050D01*
X20153Y2980D01*
X20119Y2898D01*
X20107Y2811D01*
X20119Y2724D01*
X20153Y2642D01*
X20206Y2572D01*
X20264Y2528D01*
Y2129D01*
X20263Y2127D01*
X20146Y2078D01*
X20114Y2103D01*
X20032Y2137D01*
X19945Y2149D01*
X19858Y2137D01*
X19776Y2103D01*
X19706Y2050D01*
X19653Y1980D01*
X19619Y1898D01*
X19607Y1811D01*
X19619Y1724D01*
X19653Y1642D01*
X19706Y1572D01*
X19776Y1519D01*
X19751Y1401D01*
X17753D01*
X17728Y1519D01*
X17798Y1572D01*
X17851Y1642D01*
X17885Y1724D01*
X17889Y1752D01*
X17559D01*
Y1811D01*
X17500D01*
Y2141D01*
X17472Y2137D01*
X17390Y2103D01*
X17358Y2078D01*
X17241Y2127D01*
X17240Y2129D01*
Y2528D01*
X17298Y2572D01*
X17351Y2642D01*
X17385Y2724D01*
X17397Y2811D01*
X17385Y2898D01*
X17351Y2980D01*
X17298Y3050D01*
X17228Y3103D01*
X17146Y3137D01*
X17059Y3149D01*
X16972Y3137D01*
X16890Y3103D01*
X16820Y3050D01*
X16767Y2980D01*
X16733Y2898D01*
X16722Y2811D01*
X16733Y2724D01*
X16767Y2642D01*
X16820Y2572D01*
X16878Y2528D01*
Y2129D01*
X16877Y2127D01*
X16760Y2078D01*
X16728Y2103D01*
X16646Y2137D01*
X16559Y2149D01*
X16472Y2137D01*
X16390Y2103D01*
X16320Y2050D01*
X16267Y1980D01*
X16233Y1898D01*
X16222Y1811D01*
X16233Y1724D01*
X16267Y1642D01*
X16320Y1572D01*
X16390Y1519D01*
X16366Y1401D01*
X14367D01*
X14342Y1519D01*
X14412Y1572D01*
X14466Y1642D01*
X14499Y1724D01*
X14503Y1752D01*
X14173D01*
Y1811D01*
X14114D01*
Y2141D01*
X14086Y2137D01*
X14004Y2103D01*
X13972Y2078D01*
X13856Y2127D01*
X13854Y2129D01*
Y2528D01*
X13912Y2572D01*
X13966Y2642D01*
X13999Y2724D01*
X14011Y2811D01*
X13999Y2898D01*
X13966Y2980D01*
X13912Y3050D01*
X13854Y3094D01*
Y3323D01*
X15010Y4479D01*
X15049Y4537D01*
X15056Y4575D01*
X15064Y4581D01*
X15105Y4635D01*
X15131Y4697D01*
X15140Y4764D01*
X15131Y4831D01*
X15105Y4893D01*
X15064Y4946D01*
X15011Y4987D01*
X14949Y5013D01*
X14882Y5022D01*
X14815Y5013D01*
X14753Y4987D01*
X14699Y4946D01*
X14658Y4893D01*
X14633Y4831D01*
X14624Y4764D01*
X14633Y4697D01*
X14657Y4637D01*
X13673Y3653D01*
X12947Y4380D01*
X12888Y4419D01*
X12819Y4433D01*
X11719D01*
X11718Y4434D01*
X11664Y4475D01*
X11602Y4501D01*
X11535Y4510D01*
X11469Y4501D01*
X11406Y4475D01*
X11353Y4434D01*
X11312Y4381D01*
X11286Y4319D01*
X11277Y4252D01*
X11286Y4185D01*
X11312Y4123D01*
X11353Y4069D01*
X11406Y4028D01*
X11469Y4003D01*
X11535Y3994D01*
X11602Y4003D01*
X11664Y4028D01*
X11718Y4069D01*
X11719Y4071D01*
X12744D01*
X13493Y3323D01*
Y3094D01*
X13435Y3050D01*
X13381Y2980D01*
X13347Y2898D01*
X13336Y2811D01*
X13347Y2724D01*
X13381Y2642D01*
X13435Y2572D01*
X13493Y2528D01*
Y2129D01*
X13491Y2127D01*
X13374Y2078D01*
X13342Y2103D01*
X13261Y2137D01*
X13173Y2149D01*
X13086Y2137D01*
X13004Y2103D01*
X12935Y2050D01*
X12881Y1980D01*
X12847Y1898D01*
X12836Y1811D01*
X12847Y1724D01*
X12881Y1642D01*
X12935Y1572D01*
X13004Y1519D01*
X13086Y1485D01*
X13173Y1473D01*
X13261Y1485D01*
X13342Y1519D01*
X13407Y1569D01*
X13414Y1572D01*
X13538Y1571D01*
X13553Y1563D01*
X14024Y1093D01*
X14082Y1054D01*
X14151Y1040D01*
X21589D01*
X21620Y996D01*
X21641Y922D01*
X21593Y860D01*
X21553Y764D01*
X21540Y661D01*
X21553Y559D01*
X21593Y463D01*
X21656Y381D01*
X21738Y318D01*
X21834Y278D01*
X21937Y264D01*
X22040Y278D01*
X22136Y318D01*
X22218Y381D01*
X22281Y463D01*
X22321Y559D01*
X22334Y661D01*
X22321Y764D01*
X22281Y860D01*
X22234Y922D01*
X22254Y996D01*
X22285Y1040D01*
X22589D01*
X22620Y996D01*
X22641Y922D01*
X22593Y860D01*
X22553Y764D01*
X22540Y661D01*
X22553Y559D01*
X22593Y463D01*
X22656Y381D01*
X22738Y318D01*
X22834Y278D01*
X22937Y264D01*
X23040Y278D01*
X23136Y318D01*
X23218Y381D01*
X23281Y463D01*
X23321Y559D01*
X23334Y661D01*
X23321Y764D01*
X23281Y860D01*
X23234Y922D01*
X23254Y996D01*
X23285Y1040D01*
X23589D01*
X23620Y996D01*
X23640Y922D01*
X23593Y860D01*
X23553Y764D01*
X23540Y661D01*
X23553Y559D01*
X23593Y463D01*
X23656Y381D01*
X23738Y318D01*
X23834Y278D01*
X23937Y264D01*
X24040Y278D01*
X24136Y318D01*
X24218Y381D01*
X24281Y463D01*
X24321Y559D01*
X24334Y661D01*
X24321Y764D01*
X24281Y860D01*
X24234Y922D01*
X24254Y996D01*
X24285Y1040D01*
X24589D01*
X24620Y996D01*
X24641Y922D01*
X24593Y860D01*
X24553Y764D01*
X24540Y661D01*
X24553Y559D01*
X24593Y463D01*
X24656Y381D01*
X24738Y318D01*
X24834Y278D01*
X24937Y264D01*
X25040Y278D01*
X25136Y318D01*
X25218Y381D01*
X25281Y463D01*
X25321Y559D01*
X25334Y661D01*
X25321Y764D01*
X25281Y860D01*
X25234Y922D01*
X25254Y996D01*
X25285Y1040D01*
X25589D01*
X25620Y996D01*
X25640Y922D01*
X25593Y860D01*
X25553Y764D01*
X25540Y661D01*
X25553Y559D01*
X25593Y463D01*
X25656Y381D01*
X25738Y318D01*
X25834Y278D01*
X25937Y264D01*
X26040Y278D01*
X26136Y318D01*
X26218Y381D01*
X26281Y463D01*
X26321Y559D01*
X26334Y661D01*
X26321Y764D01*
X26281Y860D01*
X26234Y922D01*
X26254Y996D01*
X26285Y1040D01*
X26589D01*
X26620Y996D01*
X26641Y922D01*
X26593Y860D01*
X26553Y764D01*
X26540Y661D01*
X26553Y559D01*
X26593Y463D01*
X26656Y381D01*
X26738Y318D01*
X26834Y278D01*
X26937Y264D01*
X27040Y278D01*
X27136Y318D01*
X27218Y381D01*
X27281Y463D01*
X27321Y559D01*
X27334Y661D01*
X27321Y764D01*
X27281Y860D01*
X27234Y922D01*
X27254Y996D01*
X27285Y1040D01*
X27589D01*
X27620Y996D01*
X27641Y922D01*
X27593Y860D01*
X27553Y764D01*
X27540Y661D01*
X27553Y559D01*
X27593Y463D01*
X27656Y381D01*
X27738Y318D01*
X27834Y278D01*
X27937Y264D01*
X28040Y278D01*
X28136Y318D01*
X28218Y381D01*
X28281Y463D01*
X28321Y559D01*
X28334Y661D01*
X28321Y764D01*
X28281Y860D01*
X28234Y922D01*
X28254Y996D01*
X28285Y1040D01*
X28589D01*
X28620Y996D01*
X28640Y922D01*
X28593Y860D01*
X28553Y764D01*
X28540Y661D01*
X28553Y559D01*
X28593Y463D01*
X28656Y381D01*
X28738Y318D01*
X28834Y278D01*
X28937Y264D01*
X29040Y278D01*
X29136Y318D01*
X29218Y381D01*
X29281Y463D01*
X29321Y559D01*
X29334Y661D01*
X29321Y764D01*
X29281Y860D01*
X29234Y922D01*
X29254Y996D01*
X29285Y1040D01*
X29589D01*
X29620Y996D01*
X29641Y922D01*
X29593Y860D01*
X29553Y764D01*
X29540Y661D01*
X29553Y559D01*
X29593Y463D01*
X29656Y381D01*
X29738Y318D01*
X29834Y278D01*
X29937Y264D01*
X30040Y278D01*
X30136Y318D01*
X30218Y381D01*
X30281Y463D01*
X30321Y559D01*
X30334Y661D01*
X30321Y764D01*
X30281Y860D01*
X30234Y922D01*
X30254Y996D01*
X30285Y1040D01*
X30589D01*
X30620Y996D01*
X30640Y922D01*
X30593Y860D01*
X30553Y764D01*
X30540Y661D01*
X30553Y559D01*
X30593Y463D01*
X30656Y381D01*
X30738Y318D01*
X30834Y278D01*
X30937Y264D01*
X31040Y278D01*
X31136Y318D01*
X31218Y381D01*
X31281Y463D01*
X31321Y559D01*
X31334Y661D01*
X31321Y764D01*
X31281Y860D01*
X31234Y922D01*
X31254Y996D01*
X31285Y1040D01*
X31589D01*
X31620Y996D01*
X31641Y922D01*
X31593Y860D01*
X31553Y764D01*
X31540Y661D01*
X31553Y559D01*
X31593Y463D01*
X31656Y381D01*
X31738Y318D01*
X31834Y278D01*
X31937Y264D01*
X32040Y278D01*
X32136Y318D01*
X32218Y381D01*
X32281Y463D01*
X32321Y559D01*
X32334Y661D01*
X32321Y764D01*
X32293Y831D01*
X32319Y924D01*
X32345Y970D01*
X32352Y972D01*
X32377Y966D01*
X32561Y782D01*
X32553Y764D01*
X32540Y661D01*
X32553Y559D01*
X32593Y463D01*
X32656Y381D01*
X32738Y318D01*
X32834Y278D01*
X32937Y264D01*
X33040Y278D01*
X33136Y318D01*
X33218Y381D01*
X33281Y463D01*
X33321Y559D01*
X33334Y661D01*
X33321Y764D01*
X33281Y860D01*
X33218Y942D01*
X33136Y1005D01*
X33040Y1045D01*
X32937Y1059D01*
X32834Y1045D01*
X32816Y1038D01*
X32506Y1348D01*
X32447Y1387D01*
X32378Y1401D01*
X31296D01*
X31271Y1519D01*
X31341Y1572D01*
X31395Y1642D01*
X31428Y1724D01*
X31432Y1752D01*
X31102D01*
Y1811D01*
X31043D01*
Y2141D01*
X31015Y2137D01*
X30934Y2103D01*
X30901Y2078D01*
X30785Y2127D01*
X30783Y2129D01*
Y2528D01*
X30841Y2572D01*
X30895Y2642D01*
X30928Y2724D01*
X30940Y2811D01*
X30928Y2898D01*
X30895Y2980D01*
X30841Y3050D01*
X30771Y3103D01*
X30690Y3137D01*
X30602Y3149D01*
X30515Y3137D01*
X30434Y3103D01*
X30364Y3050D01*
X30310Y2980D01*
X30276Y2898D01*
X30265Y2811D01*
X30276Y2724D01*
X30310Y2642D01*
X30364Y2572D01*
X30422Y2528D01*
Y2129D01*
X30420Y2127D01*
X30304Y2078D01*
X30271Y2103D01*
X30190Y2137D01*
X30102Y2149D01*
X30015Y2137D01*
X29934Y2103D01*
X29864Y2050D01*
X29810Y1980D01*
X29776Y1898D01*
X29765Y1811D01*
X29776Y1724D01*
X29810Y1642D01*
X29864Y1572D01*
X29934Y1519D01*
X29909Y1401D01*
X27910D01*
X27885Y1519D01*
X27955Y1572D01*
X28009Y1642D01*
X28043Y1724D01*
X28046Y1752D01*
X27717D01*
Y1811D01*
X27657D01*
Y2141D01*
X27629Y2137D01*
X27548Y2103D01*
X27515Y2078D01*
X27399Y2127D01*
X27397Y2129D01*
Y2528D01*
X27455Y2572D01*
X27509Y2642D01*
X27543Y2724D01*
X27554Y2811D01*
X27543Y2898D01*
X27509Y2980D01*
X27455Y3050D01*
X27385Y3103D01*
X27304Y3137D01*
X27217Y3149D01*
X27129Y3137D01*
X27048Y3103D01*
X26978Y3050D01*
X26924Y2980D01*
X26890Y2898D01*
X26879Y2811D01*
X26890Y2724D01*
X26924Y2642D01*
X26978Y2572D01*
X27036Y2528D01*
Y2129D01*
X27034Y2127D01*
X26918Y2078D01*
X26885Y2103D01*
X26804Y2137D01*
X26717Y2149D01*
X26629Y2137D01*
X26548Y2103D01*
X26478Y2050D01*
X26424Y1980D01*
X26391Y1898D01*
X26379Y1811D01*
X26391Y1724D01*
X26424Y1642D01*
X26478Y1572D01*
X26548Y1519D01*
X26523Y1401D01*
X24524D01*
X24499Y1519D01*
X24569Y1572D01*
X24623Y1642D01*
X24657Y1724D01*
X24660Y1752D01*
X24331D01*
Y1811D01*
X24272D01*
Y2141D01*
X24243Y2137D01*
X24162Y2103D01*
X24129Y2078D01*
X24013Y2127D01*
X24011Y2129D01*
Y2528D01*
X24069Y2572D01*
X24123Y2642D01*
X24157Y2724D01*
X24168Y2811D01*
X24157Y2898D01*
X24123Y2980D01*
X24069Y3050D01*
X23999Y3103D01*
X23918Y3137D01*
X23831Y3149D01*
X23743Y3137D01*
X23662Y3103D01*
X23592Y3050D01*
X23538Y2980D01*
X23505Y2898D01*
X23493Y2811D01*
X23505Y2724D01*
X23538Y2642D01*
X23592Y2572D01*
X23650Y2528D01*
Y2129D01*
X23648Y2127D01*
X23532Y2078D01*
X23499Y2103D01*
X23418Y2137D01*
X23331Y2149D01*
X23243Y2137D01*
X23162Y2103D01*
X23092Y2050D01*
X23038Y1980D01*
X23005Y1898D01*
X22993Y1811D01*
X23005Y1724D01*
X23038Y1642D01*
X23092Y1572D01*
X23162Y1519D01*
X23137Y1401D01*
X21138D01*
X21114Y1519D01*
X21184Y1572D01*
X21237Y1642D01*
X21271Y1724D01*
X21275Y1752D01*
X20945D01*
Y1811D01*
X20886D01*
Y2141D01*
X20858Y2137D01*
X20776Y2103D01*
X20744Y2078D01*
X20627Y2127D01*
X20626Y2129D01*
Y2528D01*
X20684Y2572D01*
X20737Y2642D01*
X20771Y2724D01*
X20782Y2811D01*
X20771Y2898D01*
X20737Y2980D01*
X20684Y3050D01*
X20626Y3094D01*
Y3646D01*
X20701Y3721D01*
X22244D01*
X22313Y3735D01*
X22372Y3774D01*
X22411Y3832D01*
X22425Y3902D01*
Y4885D01*
X22445Y4889D01*
X22485Y4916D01*
X22513Y4957D01*
X22522Y5005D01*
Y5271D01*
X22514Y5310D01*
X22520Y5315D01*
Y5630D01*
X22514Y5635D01*
X22522Y5674D01*
Y5940D01*
X22513Y5988D01*
X22485Y6029D01*
X22445Y6056D01*
X22397Y6065D01*
X22213D01*
X22098Y6181D01*
Y6302D01*
X22136Y6318D01*
X22218Y6381D01*
X22281Y6463D01*
X22321Y6559D01*
X22334Y6661D01*
X22321Y6764D01*
X22281Y6860D01*
X22218Y6942D01*
X22136Y7005D01*
X22040Y7045D01*
X21937Y7059D01*
D02*
G37*
G36*
X21594Y5079D02*
X21376D01*
Y5005D01*
X21385Y4957D01*
X21412Y4916D01*
X21453Y4889D01*
X21501Y4879D01*
X21594D01*
Y5079D01*
D02*
G37*
G36*
X27559Y5397D02*
X27428Y5384D01*
X27302Y5346D01*
X27185Y5284D01*
X27084Y5200D01*
X27000Y5098D01*
X26938Y4982D01*
X26899Y4856D01*
X26887Y4724D01*
X26899Y4593D01*
X26938Y4467D01*
X27000Y4351D01*
X27084Y4249D01*
X27185Y4165D01*
X27302Y4103D01*
X27428Y4065D01*
X27559Y4052D01*
X27690Y4065D01*
X27816Y4103D01*
X27933Y4165D01*
X28035Y4249D01*
X28118Y4351D01*
X28180Y4467D01*
X28219Y4593D01*
X28232Y4724D01*
X28219Y4856D01*
X28180Y4982D01*
X28118Y5098D01*
X28035Y5200D01*
X27933Y5284D01*
X27816Y5346D01*
X27690Y5384D01*
X27559Y5397D01*
D02*
G37*
G36*
X12732Y3141D02*
Y2870D01*
X13003D01*
X12999Y2898D01*
X12966Y2980D01*
X12912Y3050D01*
X12842Y3103D01*
X12761Y3137D01*
X12732Y3141D01*
D02*
G37*
G36*
X8661Y5397D02*
X8530Y5384D01*
X8404Y5346D01*
X8288Y5284D01*
X8186Y5200D01*
X8102Y5098D01*
X8040Y4982D01*
X8002Y4856D01*
X7989Y4724D01*
X8002Y4593D01*
X8040Y4467D01*
X8102Y4351D01*
X8186Y4249D01*
X8288Y4165D01*
X8404Y4103D01*
X8530Y4065D01*
X8661Y4052D01*
X8793Y4065D01*
X8919Y4103D01*
X9035Y4165D01*
X9137Y4249D01*
X9221Y4351D01*
X9283Y4467D01*
X9321Y4593D01*
X9334Y4724D01*
X9321Y4856D01*
X9283Y4982D01*
X9221Y5098D01*
X9137Y5200D01*
X9035Y5284D01*
X8919Y5346D01*
X8793Y5384D01*
X8661Y5397D01*
D02*
G37*
%LPD*%
D11*
X22244Y5807D02*
D03*
Y5138D02*
D03*
X21654Y5807D02*
D03*
Y5138D02*
D03*
X35709Y5886D02*
D03*
Y5217D02*
D03*
X35118Y5886D02*
D03*
Y5217D02*
D03*
X31772Y5807D02*
D03*
Y5138D02*
D03*
X31181Y5807D02*
D03*
Y5138D02*
D03*
X24528Y5807D02*
D03*
Y5138D02*
D03*
X23937Y5807D02*
D03*
Y5138D02*
D03*
X23346Y5807D02*
D03*
Y5138D02*
D03*
X29724Y5807D02*
D03*
Y5138D02*
D03*
X29134Y5807D02*
D03*
Y5138D02*
D03*
D17*
X33701Y18898D02*
D03*
X36850D02*
D03*
X25906D02*
D03*
X29055D02*
D03*
X18110D02*
D03*
X21260D02*
D03*
X10315D02*
D03*
X13465D02*
D03*
X2520D02*
D03*
X5669D02*
D03*
D20*
X38386Y9921D02*
D03*
D34*
X32378Y1220D02*
X32937Y661D01*
X36929Y2087D02*
X37205D01*
X39154Y3110D02*
Y4823D01*
X38701Y5276D02*
X39154Y4823D01*
X37701Y2776D02*
X38819D01*
X39154Y3110D01*
X22901Y8839D02*
X24063Y7677D01*
X23819Y1220D02*
X27205D01*
X20445Y3720D02*
X20626Y3902D01*
X20445Y2811D02*
Y3720D01*
X20433Y1220D02*
X23819D01*
X23831Y1232D01*
Y2811D01*
X17059Y1248D02*
Y2811D01*
Y1248D02*
X17087Y1220D01*
X14151D02*
X17087D01*
X13673Y1699D02*
Y3398D01*
Y1699D02*
X14151Y1220D01*
X8681Y8839D02*
X22901D01*
X20039Y4488D02*
Y4803D01*
Y4488D02*
X20626Y3902D01*
X22244D01*
X11535Y4252D02*
X12819D01*
X13673Y3398D01*
X14882Y4606D02*
Y4764D01*
X13673Y3398D02*
X14882Y4606D01*
X22244Y3902D02*
Y5138D01*
X8543Y8720D02*
X8661Y8839D01*
X1516Y8720D02*
X8543D01*
X8661Y8740D02*
X8681Y8720D01*
X33937Y5938D02*
X34449Y6450D01*
X34445Y6454D02*
X34449Y6450D01*
X34445Y6454D02*
Y7169D01*
X33937Y7677D02*
X34445Y7169D01*
X24063Y7677D02*
X33937D01*
X30591Y1220D02*
X32378D01*
X27205D02*
X30591D01*
X30602Y1232D01*
Y2811D01*
X27205Y1220D02*
X27217Y1232D01*
Y2811D01*
X17087Y1220D02*
X20433D01*
X20445Y1232D01*
Y2811D01*
X24685Y12068D02*
X24921Y12305D01*
X32717Y12323D02*
X32756Y12362D01*
X30176Y12362D02*
X30236D01*
X30130Y12317D02*
X30176Y12362D01*
X30130Y13317D02*
X30246D01*
X30130Y13817D02*
X30234D01*
X24685Y11339D02*
Y12068D01*
X9173Y11339D02*
X9370Y11535D01*
Y12323D01*
X1457Y11693D02*
Y12305D01*
Y11693D02*
X1772Y11378D01*
X37205Y2087D02*
X37701Y2583D01*
Y2776D01*
D35*
X6744Y13817D02*
X6848D01*
X34823Y5512D02*
X35118Y5217D01*
X33110Y5512D02*
X34823D01*
X32937Y5685D02*
X33110Y5512D01*
X32937Y5685D02*
Y6661D01*
X35118Y5217D02*
X35709D01*
X34429Y8169D02*
X35937Y6661D01*
X28013Y8366D02*
X28209Y8169D01*
X27480Y8110D02*
X27735Y8366D01*
X26457Y8110D02*
X27480D01*
X28209Y8169D02*
X34429D01*
X27735Y8366D02*
X28013D01*
X26378Y8031D02*
X26457Y8110D01*
X34272Y7933D02*
X34937Y7268D01*
X27972Y7933D02*
X34272D01*
X27874Y8031D02*
X27972Y7933D01*
X11890Y8110D02*
X22600D01*
X11653Y8346D02*
X22697D01*
X11555Y8583D02*
X22795D01*
X3150Y8268D02*
Y8276D01*
X3260Y8386D01*
X8820D01*
X8914Y8480D02*
X11453D01*
X8820Y8386D02*
X8914Y8480D01*
X34937Y6661D02*
Y7268D01*
X23937Y6661D02*
Y7107D01*
X22697Y8346D02*
X23937Y7107D01*
X11550Y8244D02*
X11653Y8346D01*
X10520Y8244D02*
X11550D01*
X22795Y8583D02*
X24717Y6661D01*
X11453Y8480D02*
X11555Y8583D01*
X37441Y12932D02*
Y15551D01*
X37707Y15817D01*
X37926D01*
Y13817D02*
Y13819D01*
Y13317D02*
X37935Y13307D01*
X29994Y15817D02*
X30288D01*
X29697Y15520D02*
X29994Y15817D01*
X22937Y6661D02*
Y7773D01*
X22600Y8110D02*
X22937Y7773D01*
X24717Y6661D02*
X24937D01*
X11791Y8012D02*
X11890Y8110D01*
X10291Y8016D02*
X10520Y8244D01*
X24528Y6252D02*
X24937Y6661D01*
X24528Y5807D02*
Y6252D01*
X22937Y6661D02*
X23346Y6252D01*
Y5807D02*
Y6252D01*
X21937Y6091D02*
X21961D01*
X22244Y5807D01*
X21937Y6091D02*
Y6661D01*
X21654Y5807D02*
X21937Y6091D01*
X23937Y5807D02*
Y6661D01*
X28937D02*
X29134Y6465D01*
Y5807D02*
Y6465D01*
X29724Y6449D02*
X29937Y6661D01*
X29724Y5807D02*
Y6449D01*
X30937Y6661D02*
X31181Y6417D01*
Y5807D02*
Y6417D01*
X31772Y6496D02*
X31937Y6661D01*
X31772Y5807D02*
Y6496D01*
X34937Y6661D02*
X35118Y6480D01*
Y5886D02*
Y6480D01*
X35709Y6433D02*
X35937Y6661D01*
X35709Y5886D02*
Y6433D01*
X13701Y11614D02*
X13937Y11378D01*
X6063Y11496D02*
X6181Y11378D01*
X37659Y12817D02*
X37926D01*
X32795Y11378D02*
X33059Y11641D01*
X32825Y13317D02*
X33059Y13083D01*
X30079Y11378D02*
Y11390D01*
X29697Y11772D02*
X30079Y11390D01*
X29461Y11563D02*
X29646Y11378D01*
X24825Y12817D02*
X24830D01*
X24988D01*
Y13317D02*
X25187D01*
X22283Y11339D02*
Y11351D01*
X22335Y12317D02*
X22435D01*
X22335Y13317D02*
X22431D01*
X22335Y13817D02*
X22443D01*
X21654Y11535D02*
X21850Y11339D01*
X16911Y12817D02*
X17035D01*
Y13317D02*
X17195D01*
X14382Y12317D02*
X14482D01*
X14382Y13317D02*
X14478D01*
X14382Y13817D02*
X14490D01*
X9082Y13317D02*
X9218D01*
X6614Y11378D02*
Y11390D01*
X6299Y11705D02*
X6614Y11390D01*
Y11378D02*
X6693D01*
X6744Y12317D02*
X6856D01*
X6744Y13317D02*
X6841D01*
X6596Y12817D02*
X6744D01*
X6311Y15520D02*
X6608Y15817D01*
X6744D01*
X37480Y12638D02*
X37659Y12817D01*
X29461Y12618D02*
X29697Y12854D01*
Y12520D02*
X29994Y12817D01*
X21654Y12696D02*
X21902Y12945D01*
X13701Y12657D02*
X13937Y12893D01*
X6299Y12520D02*
X6596Y12817D01*
X37480Y12087D02*
Y12638D01*
X37244Y11968D02*
Y12736D01*
X33059Y11641D02*
Y13083D01*
X29461Y11563D02*
Y12618D01*
X29697Y11772D02*
Y12520D01*
Y12854D02*
Y15520D01*
X21654Y11535D02*
Y12696D01*
X21890Y11745D02*
Y12598D01*
X21902Y12945D02*
Y15520D01*
X17480Y11575D02*
Y13032D01*
X13701Y11614D02*
Y12657D01*
X13937Y11823D02*
Y12559D01*
Y12893D02*
Y15512D01*
X6299Y11705D02*
Y12520D01*
X6311Y12866D02*
Y15520D01*
X6063Y11496D02*
Y12618D01*
X32480Y12835D02*
X32520D01*
X32608D01*
X29994Y12817D02*
X30288D01*
X32608Y12835D02*
X32626Y12817D01*
Y13317D02*
X32825D01*
X25187D02*
X25354Y13150D01*
X21890Y11745D02*
X22283Y11351D01*
X22108Y12817D02*
X22335D01*
X21902Y15520D02*
X22199Y15817D01*
X22335D01*
X17244Y11339D02*
X17480Y11575D01*
X17195Y13317D02*
X17480Y13032D01*
X13937Y11823D02*
X14370Y11390D01*
X14195Y12817D02*
X14382D01*
X13937Y15512D02*
X14242Y15817D01*
X14382D01*
X9439Y13317D02*
X9685Y13071D01*
X9240Y13317D02*
X9439D01*
X1321Y12817D02*
X1444D01*
Y13317D02*
X1581D01*
X37244Y12736D02*
X37441Y12932D01*
X21890Y12598D02*
X22108Y12817D01*
X13937Y12559D02*
X14195Y12817D01*
X6063Y12618D02*
X6311Y12866D01*
X37244Y11968D02*
X37480Y11732D01*
X37926Y12317D02*
X37959D01*
X37874Y11339D02*
Y11693D01*
X37480Y11732D02*
X37480Y11732D01*
X37480Y11693D02*
Y11732D01*
X37480Y12087D02*
X37559Y12008D01*
X37611D01*
X37795Y11823D01*
Y11772D02*
Y11823D01*
Y11772D02*
X37874Y11693D01*
X14370Y11378D02*
Y11390D01*
X25394Y11378D02*
Y11378D01*
X25354Y11417D02*
Y13150D01*
Y11417D02*
X25394Y11378D01*
X9685Y11654D02*
Y13071D01*
Y11654D02*
X10000Y11339D01*
X1581Y13317D02*
X1890Y13008D01*
Y11968D02*
Y13008D01*
Y11968D02*
X2480Y11378D01*
D40*
X35937Y661D02*
D03*
X34937D02*
D03*
X33937D02*
D03*
X32937D02*
D03*
X31937D02*
D03*
X30937D02*
D03*
X29937D02*
D03*
X28937D02*
D03*
X27937D02*
D03*
X26937D02*
D03*
X25937D02*
D03*
X24937D02*
D03*
X23937D02*
D03*
X22937D02*
D03*
X21937D02*
D03*
Y6661D02*
D03*
X22937D02*
D03*
X23937D02*
D03*
X24937D02*
D03*
X25937D02*
D03*
X26937D02*
D03*
X27937D02*
D03*
X28937D02*
D03*
X29937D02*
D03*
X30937D02*
D03*
X31937D02*
D03*
X32937D02*
D03*
X33937D02*
D03*
X34937D02*
D03*
X35937D02*
D03*
D41*
X9287Y2811D02*
D03*
X9787Y1811D02*
D03*
X10287Y2811D02*
D03*
X10787Y1811D02*
D03*
X12673Y2811D02*
D03*
X13173Y1811D02*
D03*
X13673Y2811D02*
D03*
X14173Y1811D02*
D03*
X16059Y2811D02*
D03*
X16559Y1811D02*
D03*
X17059Y2811D02*
D03*
X17559Y1811D02*
D03*
X22831Y2811D02*
D03*
X23331Y1811D02*
D03*
X23831Y2811D02*
D03*
X24331Y1811D02*
D03*
X38701Y5276D02*
D03*
X37701Y4776D02*
D03*
X38701Y4276D02*
D03*
X37701Y3776D02*
D03*
X38701Y3276D02*
D03*
X37701Y2776D02*
D03*
X26217Y2811D02*
D03*
X26717Y1811D02*
D03*
X27217Y2811D02*
D03*
X27717Y1811D02*
D03*
X29602Y2811D02*
D03*
X30102Y1811D02*
D03*
X30602Y2811D02*
D03*
X31102Y1811D02*
D03*
X19445Y2811D02*
D03*
X19945Y1811D02*
D03*
X20445Y2811D02*
D03*
X20945Y1811D02*
D03*
D42*
X5512Y2362D02*
D03*
D43*
X7480Y2362D02*
D03*
D44*
X29331Y8504D02*
D03*
X29291Y7283D02*
D03*
X6142Y7913D02*
D03*
X4685Y7756D02*
D03*
X36929Y2087D02*
D03*
X15591Y7756D02*
D03*
X13858D02*
D03*
X20472Y5906D02*
D03*
X35039Y8268D02*
D03*
X32087Y3346D02*
D03*
X25787Y1969D02*
D03*
X25394Y4921D02*
D03*
X27362Y5906D02*
D03*
X23228Y4331D02*
D03*
X22244Y1969D02*
D03*
X19685Y394D02*
D03*
X17717D02*
D03*
X15748D02*
D03*
X10236Y5315D02*
D03*
X9449Y6693D02*
D03*
X7874D02*
D03*
X6102D02*
D03*
X3740Y7087D02*
D03*
X13780Y394D02*
D03*
X11811D02*
D03*
X9843D02*
D03*
X8465D02*
D03*
X6890Y3346D02*
D03*
Y4528D02*
D03*
X5315Y5512D02*
D03*
X3740Y6102D02*
D03*
X1969D02*
D03*
X2362Y7480D02*
D03*
X394Y6102D02*
D03*
X24744Y7874D02*
D03*
X20039Y4803D02*
D03*
X11535Y4252D02*
D03*
X14882Y4764D02*
D03*
X3150Y8268D02*
D03*
X8681Y8720D02*
D03*
X1516D02*
D03*
X38543Y14094D02*
D03*
X11791Y8012D02*
D03*
X10291Y8016D02*
D03*
X26378Y8031D02*
D03*
X27874D02*
D03*
X35030Y11388D02*
D03*
X35541D02*
D03*
X24685Y11339D02*
D03*
X9173Y11339D02*
D03*
X1772Y11378D02*
D03*
X30512Y5315D02*
D03*
D45*
X24961Y14331D02*
D03*
X24409D02*
D03*
X32323D02*
D03*
X32874D02*
D03*
X32323Y13858D02*
D03*
X31772Y14331D02*
D03*
Y13858D02*
D03*
X32874D02*
D03*
X24409D02*
D03*
X24961D02*
D03*
X23858D02*
D03*
Y14331D02*
D03*
X16614Y13858D02*
D03*
X16063Y14331D02*
D03*
Y13858D02*
D03*
X17165D02*
D03*
X8858D02*
D03*
X9409D02*
D03*
X8307Y14331D02*
D03*
Y13858D02*
D03*
X512Y14331D02*
D03*
Y13858D02*
D03*
X1063D02*
D03*
X1614D02*
D03*
X1063Y14331D02*
D03*
X1614D02*
D03*
X1575Y2559D02*
D03*
X18583Y6654D02*
D03*
X19331Y4685D02*
D03*
X21063Y5118D02*
D03*
X394Y7874D02*
D03*
X7480D02*
D03*
X33937Y5938D02*
D03*
X394Y3937D02*
D03*
Y3150D02*
D03*
X1575D02*
D03*
Y3937D02*
D03*
X984Y3543D02*
D03*
X394Y2559D02*
D03*
Y1772D02*
D03*
X1575D02*
D03*
X984Y2165D02*
D03*
X7677Y394D02*
D03*
X6890D02*
D03*
Y1575D02*
D03*
X7677D02*
D03*
X7283Y984D02*
D03*
X16614Y14331D02*
D03*
X17165D02*
D03*
X8858Y14331D02*
D03*
X9409Y14331D02*
D03*
D46*
X6848Y13817D02*
D03*
X24213Y8031D02*
D03*
X36063Y16142D02*
D03*
X5276Y14961D02*
D03*
X4488Y12598D02*
D03*
X35276Y14567D02*
D03*
X35669Y14961D02*
D03*
X35276Y15354D02*
D03*
X36063D02*
D03*
Y14567D02*
D03*
X36457Y14961D02*
D03*
X35669Y14173D02*
D03*
X34882D02*
D03*
Y14961D02*
D03*
X34488Y14567D02*
D03*
Y15354D02*
D03*
X34094Y14961D02*
D03*
Y14173D02*
D03*
X34488Y13780D02*
D03*
X35276D02*
D03*
X36063D02*
D03*
X36457Y14173D02*
D03*
X35669Y15748D02*
D03*
X34882D02*
D03*
X34094D02*
D03*
Y16535D02*
D03*
X34488Y16142D02*
D03*
Y16929D02*
D03*
X34882Y16535D02*
D03*
X35276Y16142D02*
D03*
Y16929D02*
D03*
X35669Y16535D02*
D03*
X36063Y16929D02*
D03*
X34094Y13386D02*
D03*
X34882D02*
D03*
X35669D02*
D03*
X36457D02*
D03*
X36063Y12992D02*
D03*
X35276D02*
D03*
X34488D02*
D03*
X27480Y14567D02*
D03*
X27874Y14961D02*
D03*
X27480Y15354D02*
D03*
X28268D02*
D03*
Y14567D02*
D03*
X28661Y14961D02*
D03*
X27874Y14173D02*
D03*
X27087D02*
D03*
Y14961D02*
D03*
X26693Y14567D02*
D03*
Y15354D02*
D03*
X26299Y14961D02*
D03*
Y14173D02*
D03*
X26693Y13780D02*
D03*
X27480D02*
D03*
X28268D02*
D03*
X28661Y14173D02*
D03*
Y15748D02*
D03*
X27874D02*
D03*
X27087D02*
D03*
X26299D02*
D03*
Y16535D02*
D03*
X26693Y16142D02*
D03*
Y16929D02*
D03*
X27087Y16535D02*
D03*
X27480Y16142D02*
D03*
Y16929D02*
D03*
X28268Y16142D02*
D03*
X27874Y16535D02*
D03*
X28268Y16929D02*
D03*
X28661Y16535D02*
D03*
X26299Y13386D02*
D03*
X27087D02*
D03*
X27874D02*
D03*
X28661D02*
D03*
X28268Y12992D02*
D03*
X27480D02*
D03*
X26693D02*
D03*
X26299Y12598D02*
D03*
X27087D02*
D03*
X27874D02*
D03*
X28661D02*
D03*
X19685Y14567D02*
D03*
X20079Y14961D02*
D03*
X19685Y15354D02*
D03*
X20472D02*
D03*
Y14567D02*
D03*
X20866Y14961D02*
D03*
X20079Y14173D02*
D03*
X19291D02*
D03*
Y14961D02*
D03*
X18898Y14567D02*
D03*
Y15354D02*
D03*
X18504Y14961D02*
D03*
Y14173D02*
D03*
X18898Y13780D02*
D03*
X19685D02*
D03*
X20472D02*
D03*
X20866Y14173D02*
D03*
Y15748D02*
D03*
X20079D02*
D03*
X19291D02*
D03*
X18504D02*
D03*
Y16535D02*
D03*
X18898Y16142D02*
D03*
Y16929D02*
D03*
X19291Y16535D02*
D03*
X19685Y16142D02*
D03*
Y16929D02*
D03*
X20472Y16142D02*
D03*
X20079Y16535D02*
D03*
X20472Y16929D02*
D03*
X20866Y16535D02*
D03*
X18504Y13386D02*
D03*
X19291D02*
D03*
X20079D02*
D03*
X20866D02*
D03*
X20472Y12992D02*
D03*
X19685D02*
D03*
X18898D02*
D03*
X18504Y12598D02*
D03*
X19291D02*
D03*
X20079D02*
D03*
X20866D02*
D03*
X11890Y14567D02*
D03*
X12283Y14961D02*
D03*
X11890Y15354D02*
D03*
X12677D02*
D03*
Y14567D02*
D03*
X13071Y14961D02*
D03*
X12283Y14173D02*
D03*
X11496D02*
D03*
Y14961D02*
D03*
X11102Y14567D02*
D03*
Y15354D02*
D03*
X10709Y14961D02*
D03*
Y14173D02*
D03*
X11102Y13780D02*
D03*
X11890D02*
D03*
X12677D02*
D03*
X13071Y14173D02*
D03*
Y15748D02*
D03*
X12283D02*
D03*
X11496D02*
D03*
X10709D02*
D03*
Y16535D02*
D03*
X11102Y16142D02*
D03*
Y16929D02*
D03*
X11496Y16535D02*
D03*
X11890Y16142D02*
D03*
Y16929D02*
D03*
X12677Y16142D02*
D03*
X12283Y16535D02*
D03*
X12677Y16929D02*
D03*
X13071Y16535D02*
D03*
X10709Y13386D02*
D03*
X11496D02*
D03*
X12283D02*
D03*
X13071D02*
D03*
X12677Y12992D02*
D03*
X11890D02*
D03*
X11102D02*
D03*
X10709Y12598D02*
D03*
X11496D02*
D03*
X12283D02*
D03*
X13071D02*
D03*
X5276D02*
D03*
X3701D02*
D03*
X2913D02*
D03*
X3307Y12992D02*
D03*
X4094D02*
D03*
X4882D02*
D03*
X5276Y13386D02*
D03*
X4488D02*
D03*
X3701D02*
D03*
X2913D02*
D03*
X5276Y16535D02*
D03*
X4882Y16929D02*
D03*
X4488Y16535D02*
D03*
X4882Y16142D02*
D03*
X4094Y16929D02*
D03*
Y16142D02*
D03*
X3701Y16535D02*
D03*
X3307Y16929D02*
D03*
Y16142D02*
D03*
X2913Y16535D02*
D03*
Y15748D02*
D03*
X3701D02*
D03*
X4488D02*
D03*
X5276D02*
D03*
Y14173D02*
D03*
X4882Y13780D02*
D03*
X4094D02*
D03*
X3307D02*
D03*
X2913Y14173D02*
D03*
Y14961D02*
D03*
X3307Y15354D02*
D03*
Y14567D02*
D03*
X3701Y14961D02*
D03*
Y14173D02*
D03*
X4488D02*
D03*
X4882Y14567D02*
D03*
Y15354D02*
D03*
X4094D02*
D03*
X4488Y14961D02*
D03*
X4094Y14567D02*
D03*
X22480Y7717D02*
D03*
X16968D02*
D03*
X20157Y7756D02*
D03*
X19685D02*
D03*
X37926Y13819D02*
D03*
X37935Y13307D02*
D03*
X13937Y11378D02*
D03*
X6181Y11378D02*
D03*
X6614D02*
D03*
X17132Y12317D02*
D03*
X17244Y11339D02*
D03*
X16911Y12817D02*
D03*
X21850Y11339D02*
D03*
X22283D02*
D03*
X29646Y11378D02*
D03*
X30079D02*
D03*
X32717Y12323D02*
D03*
X32795Y11378D02*
D03*
X9370Y12323D02*
D03*
X30234Y13817D02*
D03*
X32520Y12835D02*
D03*
X30246Y13317D02*
D03*
X30236Y12362D02*
D03*
X24746Y12817D02*
D03*
X24921Y12305D02*
D03*
X1457Y12305D02*
D03*
X22435Y12317D02*
D03*
X6841Y13317D02*
D03*
X9116Y12817D02*
D03*
X6856Y12317D02*
D03*
X1321Y12817D02*
D03*
X14608Y13817D02*
D03*
X14596Y13317D02*
D03*
X14600Y12317D02*
D03*
X22443Y13817D02*
D03*
X22431Y13317D02*
D03*
X37959Y12317D02*
D03*
X37874Y11339D02*
D03*
X37480Y11693D02*
D03*
X14370Y11378D02*
D03*
X25394D02*
D03*
X10000Y11339D02*
D03*
X2480Y11378D02*
D03*
D47*
X12756Y7717D02*
D03*
D48*
X35945Y9370D02*
D03*
D49*
X37926Y12317D02*
D03*
Y13817D02*
D03*
Y12817D02*
D03*
Y13317D02*
D03*
Y15817D02*
D03*
Y16817D02*
D03*
Y16317D02*
D03*
Y14317D02*
D03*
Y15317D02*
D03*
Y14817D02*
D03*
X32626Y12817D02*
D03*
Y12317D02*
D03*
Y13317D02*
D03*
Y14317D02*
D03*
Y13817D02*
D03*
X35276Y14567D02*
D03*
X32626Y15317D02*
D03*
Y14817D02*
D03*
Y15817D02*
D03*
Y16817D02*
D03*
Y16317D02*
D03*
X30130Y12317D02*
D03*
Y13817D02*
D03*
Y12817D02*
D03*
Y13317D02*
D03*
Y15817D02*
D03*
Y16817D02*
D03*
Y16317D02*
D03*
Y14317D02*
D03*
Y15317D02*
D03*
Y14817D02*
D03*
X27480Y13386D02*
D03*
X24830Y12317D02*
D03*
Y12817D02*
D03*
Y13817D02*
D03*
Y13317D02*
D03*
Y15817D02*
D03*
Y16817D02*
D03*
Y16317D02*
D03*
Y14317D02*
D03*
Y15317D02*
D03*
Y14817D02*
D03*
X22335Y12317D02*
D03*
Y13817D02*
D03*
Y12817D02*
D03*
Y13317D02*
D03*
Y15817D02*
D03*
Y16817D02*
D03*
Y16317D02*
D03*
Y14317D02*
D03*
Y15317D02*
D03*
Y14817D02*
D03*
X17035Y12817D02*
D03*
Y12317D02*
D03*
Y13317D02*
D03*
Y14317D02*
D03*
Y13817D02*
D03*
X19685Y14567D02*
D03*
X17035Y15317D02*
D03*
Y14817D02*
D03*
Y15817D02*
D03*
Y16817D02*
D03*
Y16317D02*
D03*
X14540Y12317D02*
D03*
Y13817D02*
D03*
Y12817D02*
D03*
Y13317D02*
D03*
Y15817D02*
D03*
Y16817D02*
D03*
Y16317D02*
D03*
Y14317D02*
D03*
Y15317D02*
D03*
Y14817D02*
D03*
X9240Y12817D02*
D03*
Y12317D02*
D03*
Y13317D02*
D03*
Y14317D02*
D03*
Y13817D02*
D03*
X11890Y14567D02*
D03*
X9240Y15317D02*
D03*
Y14817D02*
D03*
Y15817D02*
D03*
Y16817D02*
D03*
Y16317D02*
D03*
X6744Y12317D02*
D03*
Y13817D02*
D03*
Y12817D02*
D03*
Y13317D02*
D03*
Y15817D02*
D03*
Y16817D02*
D03*
Y16317D02*
D03*
Y14317D02*
D03*
Y15317D02*
D03*
Y14817D02*
D03*
X1444Y12817D02*
D03*
Y12317D02*
D03*
Y13317D02*
D03*
Y14317D02*
D03*
Y13817D02*
D03*
X4094Y14567D02*
D03*
X1444Y15317D02*
D03*
Y14817D02*
D03*
Y15817D02*
D03*
Y16817D02*
D03*
Y16317D02*
D03*
M02*
