G04 Layer_Color=8388736*
%FSLAX24Y24*%
%MOIN*%
G70*
G01*
G75*
G04:AMPARAMS|DCode=53|XSize=165.5mil|YSize=102.5mil|CornerRadius=27.6mil|HoleSize=0mil|Usage=FLASHONLY|Rotation=180.000|XOffset=0mil|YOffset=0mil|HoleType=Round|Shape=RoundedRectangle|*
%AMROUNDEDRECTD53*
21,1,0.1655,0.0472,0,0,180.0*
21,1,0.1102,0.1025,0,0,180.0*
1,1,0.0552,-0.0551,0.0236*
1,1,0.0552,0.0551,0.0236*
1,1,0.0552,0.0551,-0.0236*
1,1,0.0552,-0.0551,-0.0236*
%
%ADD53ROUNDEDRECTD53*%
G04:AMPARAMS|DCode=54|XSize=47.4mil|YSize=43.4mil|CornerRadius=8.4mil|HoleSize=0mil|Usage=FLASHONLY|Rotation=0.000|XOffset=0mil|YOffset=0mil|HoleType=Round|Shape=RoundedRectangle|*
%AMROUNDEDRECTD54*
21,1,0.0474,0.0266,0,0,0.0*
21,1,0.0305,0.0434,0,0,0.0*
1,1,0.0169,0.0153,-0.0133*
1,1,0.0169,-0.0153,-0.0133*
1,1,0.0169,-0.0153,0.0133*
1,1,0.0169,0.0153,0.0133*
%
%ADD54ROUNDEDRECTD54*%
%ADD55O,0.0552X0.0316*%
%ADD56R,0.0552X0.0316*%
%ADD57R,0.0781X0.0363*%
%ADD58O,0.0781X0.0363*%
G04:AMPARAMS|DCode=59|XSize=47.4mil|YSize=43.4mil|CornerRadius=8.4mil|HoleSize=0mil|Usage=FLASHONLY|Rotation=90.000|XOffset=0mil|YOffset=0mil|HoleType=Round|Shape=RoundedRectangle|*
%AMROUNDEDRECTD59*
21,1,0.0474,0.0266,0,0,90.0*
21,1,0.0305,0.0434,0,0,90.0*
1,1,0.0169,0.0133,0.0153*
1,1,0.0169,0.0133,-0.0153*
1,1,0.0169,-0.0133,-0.0153*
1,1,0.0169,-0.0133,0.0153*
%
%ADD59ROUNDEDRECTD59*%
%ADD60R,0.1655X0.1261*%
G04:AMPARAMS|DCode=61|XSize=78.9mil|YSize=53.3mil|CornerRadius=9.7mil|HoleSize=0mil|Usage=FLASHONLY|Rotation=0.000|XOffset=0mil|YOffset=0mil|HoleType=Round|Shape=RoundedRectangle|*
%AMROUNDEDRECTD61*
21,1,0.0789,0.0340,0,0,0.0*
21,1,0.0595,0.0533,0,0,0.0*
1,1,0.0193,0.0298,-0.0170*
1,1,0.0193,-0.0298,-0.0170*
1,1,0.0193,-0.0298,0.0170*
1,1,0.0193,0.0298,0.0170*
%
%ADD61ROUNDEDRECTD61*%
G04:AMPARAMS|DCode=62|XSize=39.5mil|YSize=47.4mil|CornerRadius=7.9mil|HoleSize=0mil|Usage=FLASHONLY|Rotation=180.000|XOffset=0mil|YOffset=0mil|HoleType=Round|Shape=RoundedRectangle|*
%AMROUNDEDRECTD62*
21,1,0.0395,0.0315,0,0,180.0*
21,1,0.0236,0.0474,0,0,180.0*
1,1,0.0159,-0.0118,0.0157*
1,1,0.0159,0.0118,0.0157*
1,1,0.0159,0.0118,-0.0157*
1,1,0.0159,-0.0118,-0.0157*
%
%ADD62ROUNDEDRECTD62*%
%ADD63R,0.1655X0.1891*%
G04:AMPARAMS|DCode=64|XSize=67.1mil|YSize=43.4mil|CornerRadius=12.9mil|HoleSize=0mil|Usage=FLASHONLY|Rotation=270.000|XOffset=0mil|YOffset=0mil|HoleType=Round|Shape=RoundedRectangle|*
%AMROUNDEDRECTD64*
21,1,0.0671,0.0177,0,0,270.0*
21,1,0.0413,0.0434,0,0,270.0*
1,1,0.0257,-0.0089,-0.0207*
1,1,0.0257,-0.0089,0.0207*
1,1,0.0257,0.0089,0.0207*
1,1,0.0257,0.0089,-0.0207*
%
%ADD64ROUNDEDRECTD64*%
G04:AMPARAMS|DCode=65|XSize=39.5mil|YSize=39.5mil|CornerRadius=7.9mil|HoleSize=0mil|Usage=FLASHONLY|Rotation=180.000|XOffset=0mil|YOffset=0mil|HoleType=Round|Shape=RoundedRectangle|*
%AMROUNDEDRECTD65*
21,1,0.0395,0.0236,0,0,180.0*
21,1,0.0236,0.0395,0,0,180.0*
1,1,0.0159,-0.0118,0.0118*
1,1,0.0159,0.0118,0.0118*
1,1,0.0159,0.0118,-0.0118*
1,1,0.0159,-0.0118,-0.0118*
%
%ADD65ROUNDEDRECTD65*%
%ADD66R,0.1261X0.1655*%
%ADD67R,0.1900X0.1860*%
%ADD68R,0.0730X0.0320*%
%ADD69O,0.0690X0.0316*%
%ADD70R,0.0690X0.0316*%
%ADD71O,0.0237X0.0671*%
%ADD72R,0.0237X0.0671*%
%ADD73R,0.0926X0.0474*%
%ADD74R,0.0926X0.1360*%
%ADD75O,0.0316X0.0690*%
%ADD76R,0.0316X0.0690*%
%ADD77C,0.0710*%
%ADD78C,0.0080*%
%ADD79C,0.0080*%
%ADD80C,0.0592*%
%ADD81R,0.0612X0.0612*%
%ADD82C,0.0612*%
%ADD83C,0.0434*%
%ADD84C,0.0474*%
%ADD85C,0.0395*%
%ADD86C,0.0356*%
%ADD87C,0.0631*%
G36*
X13465Y12205D02*
X10315D01*
Y17165D01*
X13465D01*
Y12205D01*
D02*
G37*
G36*
X5669D02*
X2520D01*
Y17165D01*
X5669D01*
Y12205D01*
D02*
G37*
G36*
X29055D02*
X25906D01*
Y17165D01*
X29055D01*
Y12205D01*
D02*
G37*
G36*
X36063Y17165D02*
Y14213D01*
X36850Y14213D01*
Y12638D01*
X33701D01*
Y17165D01*
X36063Y17165D01*
D02*
G37*
G36*
X21260Y12283D02*
X18110D01*
Y17165D01*
X21260D01*
Y12283D01*
D02*
G37*
D53*
X32323Y14094D02*
D03*
Y16063D02*
D03*
X16614Y14094D02*
D03*
Y16063D02*
D03*
X8858Y14094D02*
D03*
Y16063D02*
D03*
X1063Y14094D02*
D03*
Y16063D02*
D03*
X24409Y14094D02*
D03*
Y16063D02*
D03*
D54*
X4921Y3287D02*
D03*
Y2618D02*
D03*
X2362Y3287D02*
D03*
Y2618D02*
D03*
X36417Y2539D02*
D03*
Y1870D02*
D03*
Y5571D02*
D03*
Y4902D02*
D03*
X32598Y1831D02*
D03*
Y2500D02*
D03*
X32598Y5689D02*
D03*
Y5020D02*
D03*
X38976Y13248D02*
D03*
Y12579D02*
D03*
X24764Y10295D02*
D03*
Y9626D02*
D03*
X8701Y10177D02*
D03*
Y9508D02*
D03*
X1575Y10610D02*
D03*
Y9941D02*
D03*
X37244Y15413D02*
D03*
Y16083D02*
D03*
X38425Y11358D02*
D03*
Y12028D02*
D03*
X38425Y12579D02*
D03*
Y13248D02*
D03*
X669Y12146D02*
D03*
Y12815D02*
D03*
D55*
X4181Y2598D02*
D03*
Y2972D02*
D03*
Y3346D02*
D03*
X3150Y2598D02*
D03*
Y2972D02*
D03*
D56*
Y3346D02*
D03*
D57*
X4331Y3937D02*
D03*
Y394D02*
D03*
D58*
Y4437D02*
D03*
Y4937D02*
D03*
Y5437D02*
D03*
X2488Y3937D02*
D03*
Y4437D02*
D03*
Y4937D02*
D03*
Y5437D02*
D03*
X4331Y894D02*
D03*
Y1394D02*
D03*
Y1894D02*
D03*
X2488Y394D02*
D03*
Y894D02*
D03*
Y1394D02*
D03*
Y1894D02*
D03*
D59*
X15256Y13898D02*
D03*
X14587D02*
D03*
X20020Y5276D02*
D03*
X19350D02*
D03*
X30886Y13858D02*
D03*
X30217D02*
D03*
X23091D02*
D03*
X22421D02*
D03*
X7539Y13937D02*
D03*
X6870D02*
D03*
X24114Y7913D02*
D03*
X24783D02*
D03*
X8012D02*
D03*
X8681D02*
D03*
X846Y8386D02*
D03*
X1516D02*
D03*
X12303Y4803D02*
D03*
X12972D02*
D03*
X12303Y5984D02*
D03*
X12972D02*
D03*
X12303Y5394D02*
D03*
X12972D02*
D03*
X15532Y4843D02*
D03*
X16201D02*
D03*
X15532Y6024D02*
D03*
X16201D02*
D03*
X15532Y5433D02*
D03*
X16201D02*
D03*
X19626Y11732D02*
D03*
X18957D02*
D03*
X31988Y12756D02*
D03*
X31319D02*
D03*
X24193D02*
D03*
X23524D02*
D03*
X31398Y12165D02*
D03*
X30728D02*
D03*
X30886Y13268D02*
D03*
X30217D02*
D03*
X16398Y12756D02*
D03*
X15728D02*
D03*
X23642Y12165D02*
D03*
X22972D02*
D03*
X23091Y13268D02*
D03*
X22421D02*
D03*
X8602Y12756D02*
D03*
X7933D02*
D03*
X15846Y12165D02*
D03*
X15177D02*
D03*
X15256Y13307D02*
D03*
X14587D02*
D03*
X8051Y12165D02*
D03*
X7382D02*
D03*
X7539Y13307D02*
D03*
X6870D02*
D03*
D60*
X984Y2165D02*
D03*
Y4921D02*
D03*
Y3543D02*
D03*
Y787D02*
D03*
D61*
X37874Y9685D02*
D03*
Y10866D02*
D03*
X38740Y9094D02*
D03*
Y10276D02*
D03*
D62*
X36575Y16043D02*
D03*
Y14587D02*
D03*
D63*
X38425Y15354D02*
D03*
D64*
X14193Y6004D02*
D03*
X14862D02*
D03*
X14193Y4783D02*
D03*
X14862D02*
D03*
X10846Y6004D02*
D03*
X11516D02*
D03*
X10846Y4783D02*
D03*
X11516D02*
D03*
D65*
X21043Y11732D02*
D03*
X20374D02*
D03*
D66*
X7283Y984D02*
D03*
X5906D02*
D03*
D67*
X38295Y17402D02*
D03*
D68*
X36791Y18152D02*
D03*
Y17152D02*
D03*
Y17652D02*
D03*
Y16652D02*
D03*
D69*
X35551Y1972D02*
D03*
Y2472D02*
D03*
Y2972D02*
D03*
Y3472D02*
D03*
Y3972D02*
D03*
Y4472D02*
D03*
Y4972D02*
D03*
Y5472D02*
D03*
X33425Y1972D02*
D03*
Y2472D02*
D03*
Y2972D02*
D03*
Y3472D02*
D03*
Y3972D02*
D03*
Y4472D02*
D03*
Y4972D02*
D03*
D70*
Y5472D02*
D03*
D71*
X19783Y6024D02*
D03*
X20039D02*
D03*
X19528D02*
D03*
X19272D02*
D03*
X19016D02*
D03*
X19783Y8386D02*
D03*
X19528D02*
D03*
X19272D02*
D03*
X18248Y6024D02*
D03*
X17992D02*
D03*
X18760D02*
D03*
X18504D02*
D03*
X17736D02*
D03*
X17480D02*
D03*
X17224D02*
D03*
X18504Y8386D02*
D03*
X18248D02*
D03*
X19016D02*
D03*
X18760D02*
D03*
X17480D02*
D03*
X17224D02*
D03*
X17992D02*
D03*
X17736D02*
D03*
D72*
X20039D02*
D03*
D73*
X36900Y9094D02*
D03*
Y10000D02*
D03*
Y10906D02*
D03*
D74*
X34596Y10000D02*
D03*
D75*
X28354Y7913D02*
D03*
X28854D02*
D03*
X27854D02*
D03*
X27354D02*
D03*
X28854Y10039D02*
D03*
X28354D02*
D03*
X27854D02*
D03*
X25854Y7913D02*
D03*
X26854D02*
D03*
X26354D02*
D03*
Y10039D02*
D03*
X27354D02*
D03*
X26854D02*
D03*
X25854D02*
D03*
X25354D02*
D03*
X12291Y7913D02*
D03*
X12791D02*
D03*
X11791D02*
D03*
X11291D02*
D03*
X12791Y10039D02*
D03*
X12291D02*
D03*
X11791D02*
D03*
X9791Y7913D02*
D03*
X10791D02*
D03*
X10291D02*
D03*
Y10039D02*
D03*
X11291D02*
D03*
X10791D02*
D03*
X9791D02*
D03*
X9291D02*
D03*
X5165Y8386D02*
D03*
X5665D02*
D03*
X4665D02*
D03*
X4165D02*
D03*
X5665Y10512D02*
D03*
X5165D02*
D03*
X4665D02*
D03*
X2665Y8386D02*
D03*
X3665D02*
D03*
X3165D02*
D03*
Y10512D02*
D03*
X4165D02*
D03*
X3665D02*
D03*
X2665D02*
D03*
X2165D02*
D03*
D76*
X25354Y7913D02*
D03*
X9291Y7913D02*
D03*
X2165Y8386D02*
D03*
D77*
X35937Y661D02*
D03*
X34937D02*
D03*
X33937D02*
D03*
X32937D02*
D03*
X31937D02*
D03*
X30937D02*
D03*
X29937D02*
D03*
X28937D02*
D03*
X27937D02*
D03*
X26937D02*
D03*
X25937D02*
D03*
X24937D02*
D03*
X23937D02*
D03*
X22937D02*
D03*
X21937D02*
D03*
Y6661D02*
D03*
X22937D02*
D03*
X23937D02*
D03*
X24937D02*
D03*
X25937D02*
D03*
X26937D02*
D03*
X27937D02*
D03*
X28937D02*
D03*
X29937D02*
D03*
X30937D02*
D03*
X31937D02*
D03*
X32937D02*
D03*
X33937D02*
D03*
X34937D02*
D03*
X35937D02*
D03*
D78*
X8661Y4724D02*
D03*
X27559D02*
D03*
X38189Y7677D02*
D03*
X1181Y6890D02*
D03*
D79*
X11339Y2520D02*
D03*
X14724D02*
D03*
X18110D02*
D03*
X24882D02*
D03*
X37992Y5827D02*
D03*
X28268Y2520D02*
D03*
X31654D02*
D03*
X21496D02*
D03*
D80*
X9287Y2811D02*
D03*
X9787Y1811D02*
D03*
X10287Y2811D02*
D03*
X10787Y1811D02*
D03*
X12673Y2811D02*
D03*
X13173Y1811D02*
D03*
X13673Y2811D02*
D03*
X14173Y1811D02*
D03*
X16059Y2811D02*
D03*
X16559Y1811D02*
D03*
X17059Y2811D02*
D03*
X17559Y1811D02*
D03*
X22831Y2811D02*
D03*
X23331Y1811D02*
D03*
X23831Y2811D02*
D03*
X24331Y1811D02*
D03*
X38701Y5276D02*
D03*
X37701Y4776D02*
D03*
X38701Y4276D02*
D03*
X37701Y3776D02*
D03*
X38701Y3276D02*
D03*
X37701Y2776D02*
D03*
X26217Y2811D02*
D03*
X26717Y1811D02*
D03*
X27217Y2811D02*
D03*
X27717Y1811D02*
D03*
X29602Y2811D02*
D03*
X30102Y1811D02*
D03*
X30602Y2811D02*
D03*
X31102Y1811D02*
D03*
X19445Y2811D02*
D03*
X19945Y1811D02*
D03*
X20445Y2811D02*
D03*
X20945Y1811D02*
D03*
D81*
X5512Y2362D02*
D03*
D82*
X7480Y2362D02*
D03*
D83*
X29331Y8504D02*
D03*
X29291Y7283D02*
D03*
X6142Y7913D02*
D03*
X4685Y7756D02*
D03*
X36929Y2087D02*
D03*
X15591Y7756D02*
D03*
X13858D02*
D03*
X20472Y5906D02*
D03*
X35039Y8268D02*
D03*
X32087Y3346D02*
D03*
X25787Y1969D02*
D03*
X25394Y4921D02*
D03*
X27362Y5906D02*
D03*
X23228Y4331D02*
D03*
X22244Y1969D02*
D03*
X19685Y394D02*
D03*
X17717D02*
D03*
X15748D02*
D03*
X10236Y5315D02*
D03*
X9449Y6693D02*
D03*
X7874D02*
D03*
X6102D02*
D03*
X3740Y7087D02*
D03*
X13780Y394D02*
D03*
X11811D02*
D03*
X9843D02*
D03*
X8465D02*
D03*
X6890Y3346D02*
D03*
Y4528D02*
D03*
X5315Y5512D02*
D03*
X3740Y6102D02*
D03*
X1969D02*
D03*
X2362Y7480D02*
D03*
X394Y6102D02*
D03*
X24744Y7874D02*
D03*
X20039Y4803D02*
D03*
X11535Y4252D02*
D03*
X14882Y4764D02*
D03*
X3150Y8268D02*
D03*
X8681Y8720D02*
D03*
X1516D02*
D03*
X38543Y14094D02*
D03*
X11791Y8012D02*
D03*
X10291Y8016D02*
D03*
X26378Y8031D02*
D03*
X27874D02*
D03*
X35030Y11388D02*
D03*
X35541D02*
D03*
X24685Y11339D02*
D03*
X9173Y11339D02*
D03*
X1772Y11378D02*
D03*
X30512Y5315D02*
D03*
D84*
X24961Y14331D02*
D03*
X24409D02*
D03*
X32323D02*
D03*
X32874D02*
D03*
X32323Y13858D02*
D03*
X31772Y14331D02*
D03*
Y13858D02*
D03*
X32874D02*
D03*
X24409D02*
D03*
X24961D02*
D03*
X23858D02*
D03*
Y14331D02*
D03*
X16614Y13858D02*
D03*
X16063Y14331D02*
D03*
Y13858D02*
D03*
X17165D02*
D03*
X8858D02*
D03*
X9409D02*
D03*
X8307Y14331D02*
D03*
Y13858D02*
D03*
X512Y14331D02*
D03*
Y13858D02*
D03*
X1063D02*
D03*
X1614D02*
D03*
X1063Y14331D02*
D03*
X1614D02*
D03*
X1575Y2559D02*
D03*
X18583Y6654D02*
D03*
X19331Y4685D02*
D03*
X21063Y5118D02*
D03*
X394Y7874D02*
D03*
X7480D02*
D03*
X33937Y5938D02*
D03*
X394Y3937D02*
D03*
Y3150D02*
D03*
X1575D02*
D03*
Y3937D02*
D03*
X984Y3543D02*
D03*
X394Y2559D02*
D03*
Y1772D02*
D03*
X1575D02*
D03*
X984Y2165D02*
D03*
X7677Y394D02*
D03*
X6890D02*
D03*
Y1575D02*
D03*
X7677D02*
D03*
X7283Y984D02*
D03*
X16614Y14331D02*
D03*
X17165D02*
D03*
X8858Y14331D02*
D03*
X9409Y14331D02*
D03*
D85*
X6848Y13817D02*
D03*
X24213Y8031D02*
D03*
X36063Y16142D02*
D03*
X5276Y14961D02*
D03*
X4488Y12598D02*
D03*
X35276Y14567D02*
D03*
X35669Y14961D02*
D03*
X35276Y15354D02*
D03*
X36063D02*
D03*
Y14567D02*
D03*
X36457Y14961D02*
D03*
X35669Y14173D02*
D03*
X34882D02*
D03*
Y14961D02*
D03*
X34488Y14567D02*
D03*
Y15354D02*
D03*
X34094Y14961D02*
D03*
Y14173D02*
D03*
X34488Y13780D02*
D03*
X35276D02*
D03*
X36063D02*
D03*
X36457Y14173D02*
D03*
X35669Y15748D02*
D03*
X34882D02*
D03*
X34094D02*
D03*
Y16535D02*
D03*
X34488Y16142D02*
D03*
Y16929D02*
D03*
X34882Y16535D02*
D03*
X35276Y16142D02*
D03*
Y16929D02*
D03*
X35669Y16535D02*
D03*
X36063Y16929D02*
D03*
X34094Y13386D02*
D03*
X34882D02*
D03*
X35669D02*
D03*
X36457D02*
D03*
X36063Y12992D02*
D03*
X35276D02*
D03*
X34488D02*
D03*
X27480Y14567D02*
D03*
X27874Y14961D02*
D03*
X27480Y15354D02*
D03*
X28268D02*
D03*
Y14567D02*
D03*
X28661Y14961D02*
D03*
X27874Y14173D02*
D03*
X27087D02*
D03*
Y14961D02*
D03*
X26693Y14567D02*
D03*
Y15354D02*
D03*
X26299Y14961D02*
D03*
Y14173D02*
D03*
X26693Y13780D02*
D03*
X27480D02*
D03*
X28268D02*
D03*
X28661Y14173D02*
D03*
Y15748D02*
D03*
X27874D02*
D03*
X27087D02*
D03*
X26299D02*
D03*
Y16535D02*
D03*
X26693Y16142D02*
D03*
Y16929D02*
D03*
X27087Y16535D02*
D03*
X27480Y16142D02*
D03*
Y16929D02*
D03*
X28268Y16142D02*
D03*
X27874Y16535D02*
D03*
X28268Y16929D02*
D03*
X28661Y16535D02*
D03*
X26299Y13386D02*
D03*
X27087D02*
D03*
X27874D02*
D03*
X28661D02*
D03*
X28268Y12992D02*
D03*
X27480D02*
D03*
X26693D02*
D03*
X26299Y12598D02*
D03*
X27087D02*
D03*
X27874D02*
D03*
X28661D02*
D03*
X19685Y14567D02*
D03*
X20079Y14961D02*
D03*
X19685Y15354D02*
D03*
X20472D02*
D03*
Y14567D02*
D03*
X20866Y14961D02*
D03*
X20079Y14173D02*
D03*
X19291D02*
D03*
Y14961D02*
D03*
X18898Y14567D02*
D03*
Y15354D02*
D03*
X18504Y14961D02*
D03*
Y14173D02*
D03*
X18898Y13780D02*
D03*
X19685D02*
D03*
X20472D02*
D03*
X20866Y14173D02*
D03*
Y15748D02*
D03*
X20079D02*
D03*
X19291D02*
D03*
X18504D02*
D03*
Y16535D02*
D03*
X18898Y16142D02*
D03*
Y16929D02*
D03*
X19291Y16535D02*
D03*
X19685Y16142D02*
D03*
Y16929D02*
D03*
X20472Y16142D02*
D03*
X20079Y16535D02*
D03*
X20472Y16929D02*
D03*
X20866Y16535D02*
D03*
X18504Y13386D02*
D03*
X19291D02*
D03*
X20079D02*
D03*
X20866D02*
D03*
X20472Y12992D02*
D03*
X19685D02*
D03*
X18898D02*
D03*
X18504Y12598D02*
D03*
X19291D02*
D03*
X20079D02*
D03*
X20866D02*
D03*
X11890Y14567D02*
D03*
X12283Y14961D02*
D03*
X11890Y15354D02*
D03*
X12677D02*
D03*
Y14567D02*
D03*
X13071Y14961D02*
D03*
X12283Y14173D02*
D03*
X11496D02*
D03*
Y14961D02*
D03*
X11102Y14567D02*
D03*
Y15354D02*
D03*
X10709Y14961D02*
D03*
Y14173D02*
D03*
X11102Y13780D02*
D03*
X11890D02*
D03*
X12677D02*
D03*
X13071Y14173D02*
D03*
Y15748D02*
D03*
X12283D02*
D03*
X11496D02*
D03*
X10709D02*
D03*
Y16535D02*
D03*
X11102Y16142D02*
D03*
Y16929D02*
D03*
X11496Y16535D02*
D03*
X11890Y16142D02*
D03*
Y16929D02*
D03*
X12677Y16142D02*
D03*
X12283Y16535D02*
D03*
X12677Y16929D02*
D03*
X13071Y16535D02*
D03*
X10709Y13386D02*
D03*
X11496D02*
D03*
X12283D02*
D03*
X13071D02*
D03*
X12677Y12992D02*
D03*
X11890D02*
D03*
X11102D02*
D03*
X10709Y12598D02*
D03*
X11496D02*
D03*
X12283D02*
D03*
X13071D02*
D03*
X5276D02*
D03*
X3701D02*
D03*
X2913D02*
D03*
X3307Y12992D02*
D03*
X4094D02*
D03*
X4882D02*
D03*
X5276Y13386D02*
D03*
X4488D02*
D03*
X3701D02*
D03*
X2913D02*
D03*
X5276Y16535D02*
D03*
X4882Y16929D02*
D03*
X4488Y16535D02*
D03*
X4882Y16142D02*
D03*
X4094Y16929D02*
D03*
Y16142D02*
D03*
X3701Y16535D02*
D03*
X3307Y16929D02*
D03*
Y16142D02*
D03*
X2913Y16535D02*
D03*
Y15748D02*
D03*
X3701D02*
D03*
X4488D02*
D03*
X5276D02*
D03*
Y14173D02*
D03*
X4882Y13780D02*
D03*
X4094D02*
D03*
X3307D02*
D03*
X2913Y14173D02*
D03*
Y14961D02*
D03*
X3307Y15354D02*
D03*
Y14567D02*
D03*
X3701Y14961D02*
D03*
Y14173D02*
D03*
X4488D02*
D03*
X4882Y14567D02*
D03*
Y15354D02*
D03*
X4094D02*
D03*
X4488Y14961D02*
D03*
X4094Y14567D02*
D03*
X22480Y7717D02*
D03*
X16968D02*
D03*
X20157Y7756D02*
D03*
X19685D02*
D03*
X37926Y13819D02*
D03*
X37935Y13307D02*
D03*
X13937Y11378D02*
D03*
X6181Y11378D02*
D03*
X6614D02*
D03*
X17132Y12317D02*
D03*
X17244Y11339D02*
D03*
X16911Y12817D02*
D03*
X21850Y11339D02*
D03*
X22283D02*
D03*
X29646Y11378D02*
D03*
X30079D02*
D03*
X32717Y12323D02*
D03*
X32795Y11378D02*
D03*
X9370Y12323D02*
D03*
X30234Y13817D02*
D03*
X32520Y12835D02*
D03*
X30246Y13317D02*
D03*
X30236Y12362D02*
D03*
X24746Y12817D02*
D03*
X24921Y12305D02*
D03*
X1457Y12305D02*
D03*
X22435Y12317D02*
D03*
X6841Y13317D02*
D03*
X9116Y12817D02*
D03*
X6856Y12317D02*
D03*
X1321Y12817D02*
D03*
X14608Y13817D02*
D03*
X14596Y13317D02*
D03*
X14600Y12317D02*
D03*
X22443Y13817D02*
D03*
X22431Y13317D02*
D03*
X37959Y12317D02*
D03*
X37874Y11339D02*
D03*
X37480Y11693D02*
D03*
X14370Y11378D02*
D03*
X25394D02*
D03*
X10000Y11339D02*
D03*
X2480Y11378D02*
D03*
D86*
X12756Y7717D02*
D03*
D87*
X35945Y9370D02*
D03*
M02*
